# Blender 4.4.1
# www.blender.org
mtllib plane_lancet.mtl
o plane_lancet
v 0.400000 1.100000 -15.000000
v 0.800000 0.700000 -15.000000
v 0.800000 -0.100000 -15.000000
v 0.400000 -0.500000 -15.000000
v -0.400000 -0.500000 -15.000000
v -0.800000 -0.100000 -15.000000
v -0.800000 0.700000 -15.000000
v -0.400000 1.100000 -15.000000
v 0.700000 1.900000 -12.000000
v 1.400000 1.100000 -12.000000
v 1.400000 -0.500000 -12.000000
v 0.700000 -1.300000 -12.000000
v -0.700000 -1.300000 -12.000000
v -1.400000 -0.500000 -12.000000
v -1.400000 1.100000 -12.000000
v -0.700000 1.900000 -12.000000
v 0.950000 2.300000 -6.000000
v 1.900000 1.250000 -6.000000
v 1.900000 -0.850000 -6.000000
v 0.950000 -1.900000 -6.000000
v -0.950000 -1.900000 -6.000000
v -1.900000 -0.850000 -6.000000
v -1.900000 1.250000 -6.000000
v -0.950000 2.300000 -6.000000
v 1.050000 2.300000 0.000000
v 2.100000 1.150000 0.000000
v 2.100000 -1.150000 0.000000
v 1.050000 -2.300000 0.000000
v -1.050000 -2.300000 0.000000
v -2.100000 -1.150000 0.000000
v -2.100000 1.150000 0.000000
v -1.050000 2.300000 0.000000
v 1.000000 2.000000 6.000000
v 2.000000 1.000000 6.000000
v 2.000000 -1.000000 6.000000
v 1.000000 -2.000000 6.000000
v -1.000000 -2.000000 6.000000
v -2.000000 -1.000000 6.000000
v -2.000000 1.000000 6.000000
v -1.000000 2.000000 6.000000
v 0.750000 1.500000 11.000000
v 1.500000 0.750000 11.000000
v 1.500000 -0.750000 11.000000
v 0.750000 -1.500000 11.000000
v -0.750000 -1.500000 11.000000
v -1.500000 -0.750000 11.000000
v -1.500000 0.750000 11.000000
v -0.750000 1.500000 11.000000
v 0.450000 0.900000 14.000000
v 0.900000 0.450000 14.000000
v 0.900000 -0.450000 14.000000
v 0.450000 -0.900000 14.000000
v -0.450000 -0.900000 14.000000
v -0.900000 -0.450000 14.000000
v -0.900000 0.450000 14.000000
v -0.450000 0.900000 14.000000
v 0.200000 0.400000 15.000000
v 0.400000 0.200000 15.000000
v 0.400000 -0.200000 15.000000
v 0.200000 -0.400000 15.000000
v -0.200000 -0.400000 15.000000
v -0.400000 -0.200000 15.000000
v -0.400000 0.200000 15.000000
v -0.200000 0.400000 15.000000
v 1.400000 -0.800000 3.000000
v 1.400000 0.200000 3.000000
v 1.400000 0.200000 -3.000000
v 1.400000 -0.800000 -3.000000
v 13.500000 1.000000 -3.400000
v 13.500000 1.400000 -3.400000
v 13.500000 1.400000 -7.000000
v 13.500000 1.000000 -7.000000
v -1.400000 -0.800000 3.000000
v -1.400000 0.200000 3.000000
v -1.400000 0.200000 -3.000000
v -1.400000 -0.800000 -3.000000
v -13.500000 1.000000 -3.400000
v -13.500000 1.400000 -3.400000
v -13.500000 1.400000 -7.000000
v -13.500000 1.000000 -7.000000
v 0.800000 0.150000 -10.800000
v 0.800000 0.650000 -10.800000
v 0.800000 0.650000 -14.000000
v 0.800000 0.150000 -14.000000
v 5.000000 0.780000 -12.200000
v 5.000000 1.020000 -12.200000
v 5.000000 1.020000 -14.200000
v 5.000000 0.780000 -14.200000
v -0.800000 0.150000 -10.800000
v -0.800000 0.650000 -10.800000
v -0.800000 0.650000 -14.000000
v -0.800000 0.150000 -14.000000
v -5.000000 0.780000 -12.200000
v -5.000000 1.020000 -12.200000
v -5.000000 1.020000 -14.200000
v -5.000000 0.780000 -14.200000
v 0.000000 0.700000 -9.000000
v 0.000000 1.300000 -9.000000
v 0.000000 1.300000 -14.400000
v 0.000000 0.700000 -14.400000
v 0.000000 6.880000 -11.400000
v 0.000000 7.120000 -11.400000
v 0.000000 7.120000 -14.200000
v 0.000000 6.880000 -14.200000
v 0.450000 2.700000 0.000000
v 0.900000 2.400000 0.000000
v 0.900000 1.800000 0.000000
v 0.450000 1.500000 0.000000
v -0.450000 1.500000 0.000000
v -0.900000 1.800000 0.000000
v -0.900000 2.400000 0.000000
v -0.450000 2.700000 0.000000
v 0.550000 3.000000 2.600000
v 1.100000 2.600000 2.600000
v 1.100000 1.800000 2.600000
v 0.550000 1.400000 2.600000
v -0.550000 1.400000 2.600000
v -1.100000 1.800000 2.600000
v -1.100000 2.600000 2.600000
v -0.550000 3.000000 2.600000
v 0.400000 2.500000 5.400000
v 0.800000 2.250000 5.400000
v 0.800000 1.750000 5.400000
v 0.400000 1.500000 5.400000
v -0.400000 1.500000 5.400000
v -0.800000 1.750000 5.400000
v -0.800000 2.250000 5.400000
v -0.400000 2.500000 5.400000
v 0.850000 0.000000 14.400000
v 0.601041 0.601041 14.400000
v 0.000000 0.850000 14.400000
v -0.601041 0.601041 14.400000
v -0.850000 0.000000 14.400000
v -0.601041 -0.601041 14.400000
v -0.000000 -0.850000 14.400000
v 0.601041 -0.601041 14.400000
v 0.212500 0.000000 16.000000
v 0.150260 0.150260 16.000000
v 0.000000 0.212500 16.000000
v -0.150260 0.150260 16.000000
v -0.212500 0.000000 16.000000
v -0.150260 -0.150260 16.000000
v -0.000000 -0.212500 16.000000
v 0.150260 -0.150260 16.000000
vn 0.6882 0.6882 -0.2294
vn 0.9806 -0.0000 -0.1961
vn 0.6882 -0.6882 -0.2294
vn -0.0000 -0.9662 -0.2577
vn -0.6882 -0.6882 -0.2294
vn -0.9806 -0.0000 -0.1961
vn -0.6882 0.6882 -0.2294
vn -0.0000 0.9662 -0.2577
vn 0.7505 0.6566 -0.0750
vn 0.9965 -0.0000 -0.0830
vn 0.7488 -0.6552 -0.1006
vn -0.0000 -0.9950 -0.0995
vn -0.7488 -0.6552 -0.1006
vn -0.9965 -0.0000 -0.0830
vn -0.7505 0.6566 -0.0750
vn -0.0000 0.9978 -0.0665
vn 0.7415 0.6709 -0.0124
vn 0.9994 -0.0000 -0.0333
vn 0.7403 -0.6698 -0.0582
vn -0.0000 -0.9978 -0.0665
vn -0.7403 -0.6698 -0.0582
vn -0.9994 -0.0000 -0.0333
vn -0.7415 0.6709 -0.0124
vn -0.0000 1.0000 -0.0000
vn 0.7379 0.6737 0.0398
vn 0.9999 -0.0000 0.0167
vn 0.7379 -0.6737 0.0398
vn -0.0000 -0.9988 0.0499
vn -0.7379 -0.6737 0.0398
vn -0.9999 -0.0000 0.0167
vn -0.7379 0.6737 0.0398
vn -0.0000 0.9988 0.0499
vn 0.7032 0.7032 0.1055
vn 0.9950 -0.0000 0.0995
vn 0.7032 -0.7032 0.1055
vn -0.0000 -0.9950 0.0995
vn -0.7032 -0.7032 0.1055
vn -0.9950 -0.0000 0.0995
vn -0.7032 0.7032 0.1055
vn -0.0000 0.9950 0.0995
vn 0.6917 0.6917 0.2075
vn 0.9806 -0.0000 0.1961
vn 0.6917 -0.6917 0.2075
vn -0.0000 -0.9806 0.1961
vn -0.6917 -0.6917 0.2075
vn -0.9806 -0.0000 0.1961
vn -0.6917 0.6917 0.2075
vn -0.0000 0.9806 0.1961
vn 0.6247 0.6247 0.4685
vn 0.8944 -0.0000 0.4472
vn 0.6247 -0.6247 0.4685
vn -0.0000 -0.8944 0.4472
vn -0.6247 -0.6247 0.4685
vn -0.8944 -0.0000 0.4472
vn -0.6247 0.6247 0.4685
vn -0.0000 0.8944 0.4472
vn -0.0000 -0.0000 -1.0000
vn -0.0000 -0.0000 1.0000
vn -1.0000 -0.0000 -0.0000
vn 1.0000 -0.0000 -0.0000
vn 0.4676 -0.0000 0.8840
vn -0.3139 -0.0000 -0.9495
vn -0.0987 0.9951 -0.0000
vn 0.1471 -0.9891 -0.0000
vn -0.4676 -0.0000 0.8840
vn 0.3139 -0.0000 -0.9495
vn 0.0987 0.9951 -0.0000
vn -0.1471 -0.9891 -0.0000
vn 0.3162 -0.0000 0.9487
vn -0.0476 -0.0000 -0.9989
vn -0.0878 0.9961 -0.0000
vn 0.1483 -0.9889 -0.0000
vn -0.3162 -0.0000 0.9487
vn 0.0476 -0.0000 -0.9989
vn 0.0878 0.9961 -0.0000
vn -0.1483 -0.9889 -0.0000
vn 0.5516 0.8274 -0.1061
vn 0.9971 -0.0000 -0.0767
vn 0.5539 -0.8309 -0.0533
vn -0.0000 -0.9993 -0.0384
vn -0.5539 -0.8309 -0.0533
vn -0.9971 -0.0000 -0.0767
vn -0.5516 0.8274 -0.1061
vn -0.0000 0.9934 -0.1146
vn 0.5793 0.7965 0.1733
vn 0.9943 -0.0000 0.1065
vn 0.5875 -0.8078 0.0485
vn -0.0000 -0.9994 0.0357
vn -0.5875 -0.8078 0.0485
vn -0.9943 -0.0000 0.1065
vn -0.5793 0.7965 0.1733
vn -0.0000 0.9844 0.1758
vn 0.8670 0.3591 0.3454
vn 0.3591 0.8670 0.3454
vn -0.3591 0.8670 0.3454
vn -0.8670 0.3591 0.3454
vn -0.8670 -0.3591 0.3454
vn -0.3591 -0.8670 0.3454
vn 0.3591 -0.8670 0.3454
vn 0.8670 -0.3591 0.3454
vn 0.7300 0.6387 -0.2433
vn 0.7300 -0.6387 -0.2433
vn -0.7300 -0.6387 -0.2433
vn -0.7300 0.6387 -0.2433
vn 0.7393 0.6689 -0.0783
vn 0.7380 -0.6677 -0.0975
vn -0.7380 -0.6677 -0.0975
vn -0.7393 0.6689 -0.0783
vn 0.7384 0.6742 -0.0134
vn 0.7373 -0.6732 -0.0572
vn -0.7373 -0.6732 -0.0572
vn -0.7384 0.6742 -0.0134
vn 0.7068 0.7068 0.0295
vn 0.7068 -0.7068 0.0295
vn -0.7068 -0.7068 0.0295
vn -0.7068 0.7068 0.0295
vn 0.5843 0.8034 -0.1152
vn 0.5876 -0.8079 -0.0452
vn -0.5876 -0.8079 -0.0452
vn -0.5843 0.8034 -0.1152
vn 0.5231 0.8370 0.1607
vn 0.5291 -0.8465 0.0586
vn -0.5291 -0.8465 0.0586
vn -0.5231 0.8370 0.1607
vt 0.315755 0.086914
vt 0.315755 0.287109
vt 0.263672 0.086914
vt 0.419922 0.287109
vt 0.302734 0.086914
vt 0.380859 0.086914
vt 0.367839 0.287109
vt 0.367839 0.086914
vt 0.419922 0.086914
vt 0.297154 0.086914
vt 0.386440 0.086914
vt 0.263672 0.287109
vt 0.289714 0.086914
vt 0.408761 0.086914
vt 0.380859 0.287109
vt 0.330636 0.086914
vt 0.399363 0.086914
vt 0.284231 0.086914
vt 0.277259 0.086914
vt 0.413411 0.287109
vt 0.283203 0.086914
vt 0.387594 0.287109
vt 0.306775 0.086914
vt 0.271112 0.086914
vt 0.412481 0.086914
vt 0.383864 0.287109
vt 0.281701 0.086914
vt 0.273862 0.287109
vt 0.401893 0.086914
vt 0.299730 0.287109
vt 0.416202 0.287109
vt 0.409732 0.287109
vt 0.267392 0.287109
vt 0.357422 0.287109
vt 0.294922 0.086914
vt 0.400391 0.287109
vt 0.388672 0.086914
vt 0.326172 0.287109
vt 0.283203 0.287109
vt 0.330636 0.287109
vt 0.308315 0.086914
vt 0.294922 0.287109
vt 0.375279 0.086914
vt 0.352958 0.287109
vt 0.388672 0.287109
vt 0.308315 0.287109
vt 0.319475 0.086914
vt 0.376519 0.287109
vt 0.364118 0.086914
vt 0.375279 0.287109
vt 0.307075 0.287109
vt 0.419922 0.136963
vt 0.263672 0.237061
vt 0.263672 0.136963
vt 0.419922 0.237061
vt 0.419922 0.250710
vt 0.263672 0.177912
vt 0.419922 0.158984
vt 0.263672 0.166992
vt 0.263672 0.250710
vt 0.419922 0.177912
vt 0.263672 0.158984
vt 0.419922 0.166992
vt 0.097656 0.086914
vt 0.097656 0.287109
vt 0.419922 0.231883
vt 0.097656 0.201969
vt 0.419922 0.204676
vt 0.097656 0.098690
vt 0.097656 0.231883
vt 0.419922 0.201969
vt 0.097656 0.204676
vt 0.419922 0.098690
vt 0.127775 0.287109
vt 0.407875 0.086914
vt 0.407875 0.287109
vt 0.127775 0.086914
vt 0.419922 0.198134
vt 0.087891 0.524414
vt 0.146484 0.584961
vt 0.128456 0.524414
vt 0.131836 0.524414
vt 0.087891 0.584961
vt 0.096905 0.584961
vt 0.093217 0.524414
vt 0.141158 0.524414
vt 0.137470 0.584961
vt 0.105919 0.524414
vt 0.146484 0.524414
vt 0.100446 0.524414
vt 0.122358 0.584961
vt 0.091337 0.524414
vt 0.121373 0.584961
vt 0.138494 0.584961
vt 0.133929 0.524414
vt 0.113002 0.584961
vt 0.095881 0.584961
vt 0.146484 0.539551
vt 0.102539 0.524414
vt 0.087891 0.569824
vt 0.087891 0.539551
vt 0.131836 0.524414
vt 0.146484 0.569824
vt 0.556641 0.345703
vt 0.498047 0.404297
vt 0.498047 0.345703
vt 0.512695 0.404297
vt 0.556641 0.404297
vt 0.541992 0.404297
vt 0.498047 0.375000
vt 0.527344 0.404297
vt 0.556641 0.375000
vt 0.506628 0.395716
vt 0.506628 0.354284
vt 0.548060 0.354284
vt 0.302734 0.287109
vt 0.419922 0.094329
vt 0.102539 0.584961
vt 0.131836 0.584961
vt 0.527344 0.345703
vt 0.548060 0.395716
s 0
usemtl plane_lancet
f 1/1/1 10/2/1 2/3/1
f 10/4/2 3/5/2 2/6/2
f 11/7/3 4/8/3 3/9/3
f 12/4/4 5/10/4 4/11/4
f 5/8/5 14/7/5 6/9/5
f 14/12/6 7/6/6 6/5/6
f 15/2/7 8/1/7 7/3/7
f 16/12/8 1/11/8 8/10/8
f 17/4/9 10/3/9 9/8/9
f 18/4/10 11/13/10 10/14/10
f 19/15/11 12/16/11 11/9/11
f 12/17/12 21/12/12 13/18/12
f 13/16/13 22/15/13 14/9/13
f 14/13/14 23/4/14 15/14/14
f 15/3/15 24/4/15 16/8/15
f 24/12/16 9/17/16 16/18/16
f 25/4/17 18/19/17 17/9/17
f 26/20/18 19/21/18 18/9/18
f 27/22/19 20/23/19 19/9/19
f 28/4/20 21/24/20 20/25/20
f 21/23/21 30/22/21 22/9/21
f 22/21/22 31/20/22 23/9/22
f 23/19/23 32/4/23 24/9/23
f 32/12/24 17/25/24 24/24/24
f 33/26/25 26/27/25 25/9/25
f 26/9/26 35/28/26 27/3/26
f 27/29/27 36/30/27 28/3/27
f 36/31/28 29/3/28 28/9/28
f 37/30/29 30/29/29 29/3/29
f 30/3/30 39/32/30 31/9/30
f 31/27/31 40/26/31 32/9/31
f 40/33/32 25/9/32 32/3/32
f 41/34/33 34/35/33 33/9/33
f 42/36/34 35/3/34 34/9/34
f 43/4/35 36/3/35 35/37/35
f 44/36/36 37/3/36 36/9/36
f 45/38/37 38/37/37 37/3/37
f 46/39/38 39/9/38 38/3/38
f 47/12/39 40/9/39 39/35/39
f 48/39/40 33/9/40 40/3/40
f 49/40/41 42/41/41 41/9/41
f 42/9/42 51/42/42 43/3/42
f 51/4/43 44/3/43 43/43/43
f 44/9/44 53/42/44 45/3/44
f 53/44/45 46/43/45 45/3/45
f 46/3/46 55/45/46 47/9/46
f 55/12/47 48/9/47 47/41/47
f 48/3/48 49/45/48 41/9/48
f 57/46/49 50/47/49 49/9/49
f 58/48/50 51/3/50 50/9/50
f 59/4/51 52/3/51 51/49/51
f 60/48/52 53/3/52 52/9/52
f 61/50/53 54/49/53 53/3/53
f 62/51/54 55/9/54 54/3/54
f 63/12/55 56/9/55 55/47/55
f 64/51/56 49/9/56 56/3/56
f 3/52/57 5/5/57 7/53/57
f 62/54/58 60/6/58 58/55/58
f 66/4/59 68/3/59 65/12/59
f 72/3/60 70/4/60 69/12/60
f 69/56/61 66/57/61 65/3/61
f 67/57/62 72/56/62 68/3/62
f 70/58/63 67/59/63 66/12/63
f 68/59/64 69/58/64 65/12/64
f 73/12/60 75/9/60 74/4/60
f 77/12/59 79/9/59 80/3/59
f 77/60/65 74/61/65 78/12/65
f 75/61/66 80/60/66 79/12/66
f 78/62/67 75/63/67 79/3/67
f 76/63/68 77/62/68 80/3/68
f 82/4/59 84/64/59 81/65/59
f 88/64/60 86/4/60 85/65/60
f 85/66/69 82/67/69 81/64/69
f 83/67/70 88/66/70 84/64/70
f 86/68/71 83/69/71 82/65/71
f 84/69/72 85/68/72 81/65/72
f 89/65/60 91/9/60 90/4/60
f 93/65/59 95/9/59 96/64/59
f 93/70/73 90/71/73 94/65/73
f 91/71/74 96/70/74 95/65/74
f 94/72/75 91/73/75 95/64/75
f 92/73/76 93/72/76 96/64/76
f 100/64/60 98/4/60 97/65/60
f 102/4/59 104/64/59 101/65/59
f 98/74/59 101/75/59 97/65/59
f 104/76/59 99/77/59 100/64/59
f 99/64/60 102/78/60 98/65/60
f 101/78/59 100/64/59 97/65/59
f 105/79/77 114/80/77 106/81/77
f 106/82/78 115/83/78 107/79/78
f 107/81/79 116/84/79 108/79/79
f 116/80/80 109/85/80 108/86/80
f 117/87/81 110/88/81 109/89/81
f 118/83/82 111/82/82 110/79/82
f 119/83/83 112/89/83 111/88/83
f 120/83/84 105/86/84 112/85/84
f 121/83/85 114/89/85 113/90/85
f 122/91/86 115/92/86 114/89/86
f 123/93/87 116/90/87 115/89/87
f 124/94/88 117/79/88 116/89/88
f 117/95/89 126/96/89 118/79/89
f 118/92/90 127/91/90 119/89/90
f 119/79/91 128/80/91 120/95/91
f 128/97/92 113/89/92 120/79/92
f 107/98/57 109/99/57 111/100/57
f 126/101/58 124/102/58 122/103/58
f 130/104/93 137/105/93 129/106/93
f 131/106/94 138/107/94 130/104/94
f 132/106/95 139/108/95 131/104/95
f 133/106/96 140/107/96 132/104/96
f 134/106/97 141/108/97 133/104/97
f 135/104/98 142/109/98 134/106/98
f 136/104/99 143/105/99 135/106/99
f 129/104/100 144/109/100 136/106/100
f 133/110/57 131/111/57 129/112/57
f 140/113/58 142/114/58 144/115/58
f 1/1/101 9/4/101 10/2/101
f 10/4/2 11/12/2 3/5/2
f 11/7/102 12/12/102 4/8/102
f 12/4/4 13/12/4 5/10/4
f 5/8/103 13/12/103 14/7/103
f 14/12/6 15/4/6 7/6/6
f 15/2/104 16/4/104 8/1/104
f 16/12/8 9/4/8 1/11/8
f 17/4/105 18/39/105 10/3/105
f 18/4/10 19/12/10 11/13/10
f 19/15/106 20/12/106 12/16/106
f 12/17/12 20/4/12 21/12/12
f 13/16/107 21/12/107 22/15/107
f 14/13/14 22/12/14 23/4/14
f 15/3/108 23/39/108 24/4/108
f 24/12/16 17/4/16 9/17/16
f 25/4/109 26/12/109 18/19/109
f 26/20/18 27/12/18 19/21/18
f 27/22/110 28/12/110 20/23/110
f 28/4/20 29/12/20 21/24/20
f 21/23/111 29/12/111 30/22/111
f 22/21/22 30/12/22 31/20/22
f 23/19/112 31/12/112 32/4/112
f 32/12/24 25/4/24 17/25/24
f 33/26/113 34/12/113 26/27/113
f 26/9/26 34/32/26 35/28/26
f 27/29/114 35/4/114 36/30/114
f 36/31/28 37/33/28 29/3/28
f 37/30/115 38/4/115 30/29/115
f 30/3/30 38/28/30 39/32/30
f 31/27/116 39/12/116 40/26/116
f 40/33/32 33/31/32 25/9/32
f 41/34/33 42/12/33 34/35/33
f 42/36/34 43/39/34 35/3/34
f 43/4/35 44/38/35 36/3/35
f 44/36/36 45/39/36 37/3/36
f 45/38/37 46/4/37 38/37/37
f 46/39/38 47/36/38 39/9/38
f 47/12/39 48/34/39 40/9/39
f 48/39/40 41/36/40 33/9/40
f 49/40/41 50/12/41 42/41/41
f 42/9/42 50/45/42 51/42/42
f 51/4/43 52/44/43 44/3/43
f 44/9/44 52/45/44 53/42/44
f 53/44/45 54/4/45 46/43/45
f 46/3/46 54/42/46 55/45/46
f 55/12/47 56/40/47 48/9/47
f 48/3/48 56/42/48 49/45/48
f 57/46/49 58/12/49 50/47/49
f 58/48/50 59/51/50 51/3/50
f 59/4/51 60/50/51 52/3/51
f 60/48/52 61/51/52 53/3/52
f 61/50/53 62/4/53 54/49/53
f 62/51/54 63/48/54 55/9/54
f 63/12/55 64/46/55 56/9/55
f 64/51/56 57/48/56 49/9/56
f 7/53/57 8/116/57 1/15/57
f 1/15/57 2/55/57 3/52/57
f 3/52/57 4/6/57 5/5/57
f 5/5/57 6/54/57 7/53/57
f 7/53/57 1/15/57 3/52/57
f 58/55/58 57/15/58 64/116/58
f 64/116/58 63/53/58 62/54/58
f 62/54/58 61/5/58 60/6/58
f 60/6/58 59/52/58 58/55/58
f 58/55/58 64/116/58 62/54/58
f 66/4/59 67/9/59 68/3/59
f 72/3/60 71/9/60 70/4/60
f 69/56/61 70/4/61 66/57/61
f 67/57/62 71/4/62 72/56/62
f 70/58/63 71/9/63 67/59/63
f 68/59/64 72/9/64 69/58/64
f 73/12/60 76/3/60 75/9/60
f 77/12/59 78/4/59 79/9/59
f 77/60/65 73/9/65 74/61/65
f 75/61/66 76/9/66 80/60/66
f 78/62/67 74/4/67 75/63/67
f 76/63/68 73/4/68 77/62/68
f 82/4/59 83/9/59 84/64/59
f 88/64/60 87/9/60 86/4/60
f 85/66/69 86/4/69 82/67/69
f 83/67/70 87/4/70 88/66/70
f 86/68/71 87/9/71 83/69/71
f 84/69/72 88/9/72 85/68/72
f 89/65/60 92/64/60 91/9/60
f 93/65/59 94/4/59 95/9/59
f 93/70/73 89/9/73 90/71/73
f 91/71/74 92/9/74 96/70/74
f 94/72/75 90/4/75 91/73/75
f 92/73/76 89/4/76 93/72/76
f 100/64/60 99/9/60 98/4/60
f 102/4/59 103/9/59 104/64/59
f 98/74/59 102/9/59 101/75/59
f 104/76/59 103/4/59 99/77/59
f 99/64/60 103/117/60 102/78/60
f 101/78/59 104/117/59 100/64/59
f 105/79/117 113/84/117 114/80/117
f 106/82/78 114/80/78 115/83/78
f 107/81/118 115/80/118 116/84/118
f 116/80/80 117/83/80 109/85/80
f 117/87/119 118/83/119 110/88/119
f 118/83/82 119/80/82 111/82/82
f 119/83/120 120/87/120 112/89/120
f 120/83/84 113/80/84 105/86/84
f 121/83/121 122/93/121 114/89/121
f 122/91/86 123/83/86 115/92/86
f 123/93/122 124/83/122 116/90/122
f 124/94/88 125/97/88 117/79/88
f 117/95/123 125/80/123 126/96/123
f 118/92/90 126/83/90 127/91/90
f 119/79/124 127/96/124 128/80/124
f 128/97/92 121/94/92 113/89/92
f 111/100/57 112/118/57 105/119/57
f 105/119/57 106/103/57 107/98/57
f 107/98/57 108/102/57 109/99/57
f 109/99/57 110/101/57 111/100/57
f 111/100/57 105/119/57 107/98/57
f 122/103/58 121/119/58 128/118/58
f 128/118/58 127/100/58 126/101/58
f 126/101/58 125/99/58 124/102/58
f 124/102/58 123/98/58 122/103/58
f 122/103/58 128/118/58 126/101/58
f 130/104/93 138/107/93 137/105/93
f 131/106/94 139/105/94 138/107/94
f 132/106/95 140/109/95 139/108/95
f 133/106/96 141/105/96 140/107/96
f 134/106/97 142/109/97 141/108/97
f 135/104/98 143/108/98 142/109/98
f 136/104/99 144/107/99 143/105/99
f 129/104/100 137/108/100 144/109/100
f 129/112/57 136/115/57 135/120/57
f 135/120/57 134/114/57 133/110/57
f 133/110/57 132/113/57 131/111/57
f 131/111/57 130/121/57 129/112/57
f 129/112/57 135/120/57 133/110/57
f 144/115/58 137/112/58 138/121/58
f 138/121/58 139/111/58 140/113/58
f 140/113/58 141/110/58 142/114/58
f 142/114/58 143/120/58 144/115/58
f 144/115/58 138/121/58 140/113/58
