# Blender 4.4.1
# www.blender.org
mtllib plane_warhog.mtl
o plane_warhog
v 0.550000 1.300000 -14.500000
v 1.100000 0.750000 -14.500000
v 1.100000 -0.350000 -14.500000
v 0.550000 -0.900000 -14.500000
v -0.550000 -0.900000 -14.500000
v -1.100000 -0.350000 -14.500000
v -1.100000 0.750000 -14.500000
v -0.550000 1.300000 -14.500000
v 1.000000 2.400000 -11.500000
v 2.000000 1.350000 -11.500000
v 2.000000 -0.750000 -11.500000
v 1.000000 -1.800000 -11.500000
v -1.000000 -1.800000 -11.500000
v -2.000000 -0.750000 -11.500000
v -2.000000 1.350000 -11.500000
v -1.000000 2.400000 -11.500000
v 1.300000 3.000000 -6.000000
v 2.600000 1.600000 -6.000000
v 2.600000 -1.200000 -6.000000
v 1.300000 -2.600000 -6.000000
v -1.300000 -2.600000 -6.000000
v -2.600000 -1.200000 -6.000000
v -2.600000 1.600000 -6.000000
v -1.300000 3.000000 -6.000000
v 1.400000 3.000000 0.000000
v 2.800000 1.500000 0.000000
v 2.800000 -1.500000 0.000000
v 1.400000 -3.000000 0.000000
v -1.400000 -3.000000 0.000000
v -2.800000 -1.500000 0.000000
v -2.800000 1.500000 0.000000
v -1.400000 3.000000 0.000000
v 1.300000 2.600000 5.500000
v 2.600000 1.300000 5.500000
v 2.600000 -1.300000 5.500000
v 1.300000 -2.600000 5.500000
v -1.300000 -2.600000 5.500000
v -2.600000 -1.300000 5.500000
v -2.600000 1.300000 5.500000
v -1.300000 2.600000 5.500000
v 1.000000 2.000000 10.500000
v 2.000000 1.000000 10.500000
v 2.000000 -1.000000 10.500000
v 1.000000 -2.000000 10.500000
v -1.000000 -2.000000 10.500000
v -2.000000 -1.000000 10.500000
v -2.000000 1.000000 10.500000
v -1.000000 2.000000 10.500000
v 0.650000 1.300000 13.000000
v 1.300000 0.650000 13.000000
v 1.300000 -0.650000 13.000000
v 0.650000 -1.300000 13.000000
v -0.650000 -1.300000 13.000000
v -1.300000 -0.650000 13.000000
v -1.300000 0.650000 13.000000
v -0.650000 1.300000 13.000000
v 0.300000 0.600000 14.500000
v 0.600000 0.300000 14.500000
v 0.600000 -0.300000 14.500000
v 0.300000 -0.600000 14.500000
v -0.300000 -0.600000 14.500000
v -0.600000 -0.300000 14.500000
v -0.600000 0.300000 14.500000
v -0.300000 0.600000 14.500000
v 1.800000 -1.250000 4.600000
v 1.800000 0.050000 4.600000
v 1.800000 0.050000 -3.600000
v 1.800000 -1.250000 -3.600000
v 6.000000 1.150000 4.000000
v 6.000000 2.050000 4.000000
v 6.000000 2.050000 -2.600000
v 6.000000 1.150000 -2.600000
v -1.800000 -1.250000 4.600000
v -1.800000 0.050000 4.600000
v -1.800000 0.050000 -3.600000
v -1.800000 -1.250000 -3.600000
v -6.000000 1.150000 4.000000
v -6.000000 2.050000 4.000000
v -6.000000 2.050000 -2.600000
v -6.000000 1.150000 -2.600000
v 6.000000 1.150000 4.000000
v 6.000000 2.050000 4.000000
v 6.000000 2.050000 -2.600000
v 6.000000 1.150000 -2.600000
v 16.500000 0.980000 2.600000
v 16.500000 1.420000 2.600000
v 16.500000 1.420000 -1.200000
v 16.500000 0.980000 -1.200000
v -6.000000 1.150000 4.000000
v -6.000000 2.050000 4.000000
v -6.000000 2.050000 -2.600000
v -6.000000 1.150000 -2.600000
v -16.500000 0.980000 2.600000
v -16.500000 1.420000 2.600000
v -16.500000 1.420000 -1.200000
v -16.500000 0.980000 -1.200000
v 0.900000 0.280000 -10.800000
v 0.900000 0.920000 -10.800000
v 0.900000 0.920000 -14.000000
v 0.900000 0.280000 -14.000000
v 6.600000 0.840000 -11.400000
v 6.600000 1.160000 -11.400000
v 6.600000 1.160000 -13.400000
v 6.600000 0.840000 -13.400000
v -0.900000 0.280000 -10.800000
v -0.900000 0.920000 -10.800000
v -0.900000 0.920000 -14.000000
v -0.900000 0.280000 -14.000000
v -6.600000 0.840000 -11.400000
v -6.600000 1.160000 -11.400000
v -6.600000 1.160000 -13.400000
v -6.600000 0.840000 -13.400000
v 0.000000 0.850000 -10.000000
v 0.000000 1.550000 -10.000000
v 0.000000 1.550000 -14.200000
v 0.000000 0.850000 -14.200000
v 0.000000 5.450000 -11.000000
v 0.000000 5.750000 -11.000000
v 0.000000 5.750000 -14.000000
v 0.000000 5.450000 -14.000000
v 0.600000 3.600000 -1.400000
v 1.200000 3.200000 -1.400000
v 1.200000 2.400000 -1.400000
v 0.600000 2.000000 -1.400000
v -0.600000 2.000000 -1.400000
v -1.200000 2.400000 -1.400000
v -1.200000 3.200000 -1.400000
v -0.600000 3.600000 -1.400000
v 0.700000 3.900000 1.800000
v 1.400000 3.400000 1.800000
v 1.400000 2.400000 1.800000
v 0.700000 1.900000 1.800000
v -0.700000 1.900000 1.800000
v -1.400000 2.400000 1.800000
v -1.400000 3.400000 1.800000
v -0.700000 3.900000 1.800000
v 0.500000 3.200000 5.000000
v 1.000000 2.900000 5.000000
v 1.000000 2.300000 5.000000
v 0.500000 2.000000 5.000000
v -0.500000 2.000000 5.000000
v -1.000000 2.300000 5.000000
v -1.000000 2.900000 5.000000
v -0.500000 3.200000 5.000000
v 1.100000 0.000000 14.000000
v 0.777817 0.777817 14.000000
v 0.000000 1.100000 14.000000
v -0.777817 0.777817 14.000000
v -1.100000 0.000000 14.000000
v -0.777817 -0.777817 14.000000
v -0.000000 -1.100000 14.000000
v 0.777817 -0.777817 14.000000
v 0.275000 0.000000 15.800000
v 0.194454 0.194454 15.800000
v 0.000000 0.275000 15.800000
v -0.194454 0.194454 15.800000
v -0.275000 0.000000 15.800000
v -0.194454 -0.194454 15.800000
v -0.000000 -0.275000 15.800000
v 0.194454 -0.194454 15.800000
vn 0.6667 0.6667 -0.3333
vn 0.9578 -0.0000 -0.2873
vn 0.6738 -0.6738 -0.3032
vn -0.0000 -0.9578 -0.2873
vn -0.6738 -0.6738 -0.3032
vn -0.9578 -0.0000 -0.2873
vn -0.6667 0.6667 -0.3333
vn -0.0000 0.9389 -0.3443
vn 0.7198 0.6855 -0.1097
vn 0.9941 -0.0000 -0.1084
vn 0.7176 -0.6834 -0.1342
vn -0.0000 -0.9896 -0.1439
vn -0.7176 -0.6834 -0.1342
vn -0.9941 -0.0000 -0.1084
vn -0.7198 0.6855 -0.1097
vn -0.0000 0.9941 -0.1084
vn 0.7327 0.6804 -0.0122
vn 0.9994 -0.0000 -0.0333
vn 0.7315 -0.6793 -0.0583
vn -0.0000 -0.9978 -0.0665
vn -0.7315 -0.6793 -0.0583
vn -0.9994 -0.0000 -0.0333
vn -0.7327 0.6804 -0.0122
vn -0.0000 1.0000 -0.0000
vn 0.7296 0.6810 0.0628
vn 0.9993 -0.0000 0.0363
vn 0.7296 -0.6810 0.0628
vn -0.0000 -0.9974 0.0725
vn -0.7296 -0.6810 0.0628
vn -0.9993 -0.0000 0.0363
vn -0.7296 0.6810 0.0628
vn -0.0000 0.9974 0.0725
vn 0.7014 0.7014 0.1263
vn 0.9929 -0.0000 0.1191
vn 0.7014 -0.7014 0.1263
vn -0.0000 -0.9929 0.1191
vn -0.7014 -0.7014 0.1263
vn -0.9929 -0.0000 0.1191
vn -0.7014 0.7014 0.1263
vn -0.0000 0.9929 0.1191
vn 0.6778 0.6778 0.2847
vn 0.9630 -0.0000 0.2696
vn 0.6778 -0.6778 0.2847
vn -0.0000 -0.9630 0.2696
vn -0.6778 -0.6778 0.2847
vn -0.9630 -0.0000 0.2696
vn -0.6778 0.6778 0.2847
vn -0.0000 0.9630 0.2696
vn 0.6337 0.6337 0.4436
vn 0.9062 -0.0000 0.4229
vn 0.6337 -0.6337 0.4436
vn -0.0000 -0.9062 0.4229
vn -0.6337 -0.6337 0.4436
vn -0.9062 -0.0000 0.4229
vn -0.6337 0.6337 0.4436
vn -0.0000 0.9062 0.4229
vn -0.0000 -0.0000 -1.0000
vn -0.0000 -0.0000 1.0000
vn -1.0000 -0.0000 -0.0000
vn 1.0000 -0.0000 -0.0000
vn 0.1414 -0.0000 0.9899
vn 0.2316 -0.0000 -0.9728
vn -0.4299 0.9029 -0.0000
vn 0.4961 -0.8682 -0.0000
vn -0.1414 -0.0000 0.9899
vn -0.2316 -0.0000 -0.9728
vn 0.4299 0.9029 -0.0000
vn -0.4961 -0.8682 -0.0000
vn 0.1322 -0.0000 0.9912
vn 0.1322 -0.0000 -0.9912
vn 0.0599 0.9982 -0.0000
vn -0.0162 -0.9999 -0.0000
vn -0.1322 -0.0000 0.9912
vn -0.1322 -0.0000 -0.9912
vn -0.0599 0.9982 -0.0000
vn 0.0162 -0.9999 -0.0000
vn 0.1047 -0.0000 0.9945
vn 0.1047 -0.0000 -0.9945
vn -0.0421 0.9991 -0.0000
vn 0.0978 -0.9952 -0.0000
vn -0.1047 -0.0000 0.9945
vn -0.1047 -0.0000 -0.9945
vn 0.0421 0.9991 -0.0000
vn -0.0978 -0.9952 -0.0000
vn 0.5526 0.8289 -0.0863
vn 0.9981 -0.0000 -0.0624
vn 0.5542 -0.8313 -0.0433
vn -0.0000 -0.9995 -0.0312
vn -0.5542 -0.8313 -0.0433
vn -0.9981 -0.0000 -0.0624
vn -0.5526 0.8289 -0.0863
vn -0.0000 0.9956 -0.0933
vn 0.5683 0.7957 0.2096
vn 0.9923 -0.0000 0.1240
vn 0.5806 -0.8128 0.0472
vn -0.0000 -0.9995 0.0312
vn -0.5806 -0.8128 0.0472
vn -0.9923 -0.0000 0.1240
vn -0.5683 0.7957 0.2096
vn -0.0000 0.9769 0.2137
vn 0.8508 0.3524 0.3899
vn 0.3524 0.8507 0.3899
vn -0.3524 0.8507 0.3899
vn -0.8508 0.3524 0.3899
vn -0.8508 -0.3524 0.3899
vn -0.3524 -0.8507 0.3899
vn 0.3524 -0.8507 0.3899
vn 0.8508 -0.3524 0.3899
vn 0.6810 0.6486 -0.3400
vn 0.6918 -0.6589 -0.2954
vn -0.6918 -0.6589 -0.2954
vn -0.6810 0.6486 -0.3400
vn 0.7281 0.6761 -0.1135
vn 0.7258 -0.6740 -0.1376
vn -0.7258 -0.6740 -0.1376
vn -0.7281 0.6761 -0.1135
vn 0.7310 0.6823 -0.0130
vn 0.7298 -0.6812 -0.0576
vn -0.7298 -0.6812 -0.0576
vn -0.7310 0.6823 -0.0130
vn 0.7062 0.7062 0.0514
vn 0.7062 -0.7062 0.0514
vn -0.7062 -0.7062 0.0514
vn -0.7062 0.7062 0.0514
vn 0.5787 0.8101 -0.0940
vn 0.5809 -0.8132 -0.0363
vn -0.5809 -0.8132 -0.0363
vn -0.5787 0.8101 -0.0940
vn 0.5047 0.8411 0.1945
vn 0.5136 -0.8560 0.0589
vn -0.5136 -0.8560 0.0589
vn -0.5047 0.8411 0.1945
vn 0.3524 0.8508 0.3899
vn -0.3524 0.8508 0.3899
vn -0.3524 -0.8508 0.3899
vn 0.3524 -0.8508 0.3899
vt 0.149740 0.086914
vt 0.154474 0.287109
vt 0.097656 0.086914
vt 0.209263 0.086914
vt 0.097656 0.287109
vt 0.127418 0.086914
vt 0.253906 0.086914
vt 0.194639 0.086914
vt 0.253906 0.287109
vt 0.132812 0.086914
vt 0.218750 0.086914
vt 0.197088 0.086914
vt 0.121330 0.287109
vt 0.122768 0.086914
vt 0.239955 0.086914
vt 0.215899 0.287109
vt 0.165224 0.086914
vt 0.115685 0.086914
vt 0.235877 0.086914
vt 0.108073 0.086914
vt 0.248866 0.287109
vt 0.112777 0.086914
vt 0.227865 0.287109
vt 0.132378 0.086914
vt 0.103237 0.086914
vt 0.248326 0.086914
vt 0.217142 0.287109
vt 0.116039 0.086914
vt 0.243490 0.287109
vt 0.235524 0.086914
vt 0.134421 0.287109
vt 0.248326 0.287109
vt 0.108073 0.287109
vt 0.103237 0.287109
vt 0.195312 0.287109
vt 0.126953 0.086914
vt 0.235877 0.287109
vt 0.224609 0.086914
vt 0.156250 0.287109
vt 0.115685 0.287109
vt 0.172888 0.287109
vt 0.138166 0.086914
vt 0.226562 0.287109
vt 0.213397 0.086914
vt 0.178675 0.287109
vt 0.125000 0.287109
vt 0.144531 0.287109
vt 0.152344 0.086914
vt 0.211839 0.287109
vt 0.199219 0.086914
vt 0.207031 0.287109
vt 0.139724 0.287109
vt 0.253906 0.136963
vt 0.136719 0.086914
vt 0.097656 0.237061
vt 0.097656 0.136963
vt 0.214844 0.086914
vt 0.253906 0.237061
vt 0.253906 0.232511
vt 0.097656 0.165779
vt 0.253906 0.111328
vt 0.253906 0.272461
vt 0.097656 0.232511
vt 0.253906 0.165779
vt 0.097656 0.111328
vt 0.097656 0.272461
vt 0.097656 0.118721
vt 0.253906 0.169237
vt 0.253906 0.129380
vt 0.253906 0.244644
vt 0.253906 0.118721
vt 0.097656 0.169237
vt 0.097656 0.129380
vt 0.097656 0.244644
vt 0.419922 0.287109
vt 0.419922 0.214311
vt 0.419922 0.249573
vt 0.419922 0.086914
vt 0.097656 0.214311
vt 0.419922 0.232511
vt 0.097656 0.124451
vt 0.097656 0.249573
vt 0.143694 0.287109
vt 0.400191 0.086914
vt 0.400191 0.287109
vt 0.143694 0.086914
vt 0.419922 0.239444
vt 0.087891 0.524414
vt 0.146484 0.584961
vt 0.131836 0.524414
vt 0.134766 0.524414
vt 0.087891 0.584961
vt 0.095215 0.584961
vt 0.092076 0.524414
vt 0.142299 0.524414
vt 0.139160 0.584961
vt 0.102539 0.524414
vt 0.146484 0.524414
vt 0.100911 0.524414
vt 0.119851 0.584961
vt 0.093217 0.524414
vt 0.120443 0.584961
vt 0.138114 0.584961
vt 0.133464 0.524414
vt 0.113932 0.584961
vt 0.096261 0.584961
vt 0.146484 0.539551
vt 0.102539 0.524414
vt 0.087891 0.569824
vt 0.087891 0.539551
vt 0.146484 0.569824
vt 0.498047 0.345703
vt 0.512695 0.404297
vt 0.498047 0.404297
vt 0.556641 0.345703
vt 0.541992 0.404297
vt 0.556641 0.404297
vt 0.498047 0.375000
vt 0.527344 0.404297
vt 0.556641 0.375000
vt 0.506628 0.395716
vt 0.506628 0.354284
vt 0.548060 0.354284
vt 0.210803 0.287109
vt 0.136719 0.287109
vt 0.214844 0.287109
vt 0.419922 0.124451
vt 0.419922 0.096447
vt 0.102539 0.584961
vt 0.131836 0.584961
vt 0.527344 0.345703
vt 0.548060 0.395716
s 0
usemtl plane_warhog
f 1/1/1 10/2/1 2/3/1
f 2/4/2 11/5/2 3/6/2
f 3/7/3 12/5/3 4/8/3
f 12/9/4 5/10/4 4/11/4
f 13/5/5 6/7/5 5/8/5
f 14/5/6 7/4/6 6/6/6
f 15/2/7 8/1/7 7/3/7
f 16/5/8 1/11/8 8/10/8
f 9/12/9 18/13/9 10/3/9
f 18/9/10 11/14/10 10/15/10
f 19/16/11 12/17/11 11/7/11
f 20/9/12 13/18/12 12/19/12
f 13/17/13 22/16/13 14/7/13
f 14/14/14 23/9/14 15/15/14
f 23/13/15 16/12/15 15/3/15
f 24/5/16 9/19/16 16/18/16
f 25/9/17 18/20/17 17/7/17
f 26/21/18 19/22/18 18/7/18
f 27/23/19 20/24/19 19/7/19
f 28/9/20 21/25/20 20/26/20
f 21/24/21 30/23/21 22/7/21
f 22/22/22 31/21/22 23/7/22
f 23/20/23 32/9/23 24/7/23
f 32/5/24 17/26/24 24/25/24
f 33/27/25 26/28/25 25/7/25
f 34/29/26 27/3/26 26/7/26
f 27/30/27 36/31/27 28/3/27
f 36/32/28 29/3/28 28/7/28
f 37/31/29 30/30/29 29/3/29
f 38/33/30 31/7/30 30/3/30
f 31/28/31 40/27/31 32/7/31
f 40/34/32 25/7/32 32/3/32
f 41/35/33 34/36/33 33/7/33
f 42/37/34 35/3/34 34/7/34
f 43/9/35 36/3/35 35/38/35
f 44/37/36 37/3/36 36/7/36
f 45/39/37 38/38/37 37/3/37
f 46/40/38 39/7/38 38/3/38
f 47/5/39 40/7/39 39/36/39
f 48/40/40 33/7/40 40/3/40
f 49/41/41 42/42/41 41/7/41
f 50/43/42 43/3/42 42/7/42
f 51/9/43 44/3/43 43/44/43
f 52/43/44 45/3/44 44/7/44
f 53/45/45 46/44/45 45/3/45
f 54/46/46 47/7/46 46/3/46
f 55/5/47 48/7/47 47/42/47
f 56/46/48 41/7/48 48/3/48
f 57/47/49 50/48/49 49/7/49
f 58/49/50 51/3/50 50/7/50
f 59/9/51 52/3/51 51/50/51
f 60/49/52 53/3/52 52/7/52
f 61/51/53 54/50/53 53/3/53
f 62/52/54 55/7/54 54/3/54
f 63/5/55 56/7/55 55/48/55
f 64/52/56 49/7/56 56/3/56
f 3/53/57 5/54/57 7/55/57
f 62/56/58 60/57/58 58/58/58
f 66/9/59 68/3/59 65/5/59
f 72/3/60 70/9/60 69/5/60
f 69/59/61 66/60/61 65/3/61
f 67/60/62 72/59/62 68/3/62
f 66/5/63 71/61/63 67/3/63
f 65/5/64 72/61/64 69/62/64
f 73/5/60 75/7/60 74/9/60
f 77/5/59 79/7/59 80/3/59
f 77/63/65 74/64/65 78/5/65
f 75/64/66 80/63/66 79/5/66
f 74/9/67 79/65/67 78/66/67
f 73/9/68 80/65/68 76/7/68
f 82/9/59 84/3/59 81/5/59
f 88/3/60 86/9/60 85/5/60
f 81/67/69 86/68/69 82/5/69
f 84/67/70 87/68/70 88/7/70
f 82/5/71 87/69/71 83/3/71
f 84/3/72 85/70/72 81/5/72
f 89/5/60 91/7/60 90/9/60
f 93/5/59 95/7/59 96/3/59
f 89/71/73 94/72/73 93/3/73
f 92/71/74 95/72/74 91/9/74
f 90/9/75 95/73/75 94/74/75
f 89/9/76 96/73/76 92/7/76
f 98/75/59 100/3/59 97/5/59
f 104/3/60 102/75/60 101/5/60
f 101/76/77 98/63/77 97/3/77
f 99/63/78 104/76/78 100/3/78
f 102/77/79 99/3/79 98/5/79
f 100/3/80 101/77/80 97/5/80
f 105/5/60 107/78/60 106/75/60
f 109/5/59 111/78/59 112/3/59
f 109/79/81 106/80/81 110/5/81
f 107/80/82 112/79/82 111/5/82
f 106/75/83 111/81/83 110/82/83
f 105/75/84 112/81/84 108/78/84
f 116/3/60 114/75/60 113/5/60
f 118/75/59 120/3/59 117/5/59
f 114/83/59 117/84/59 113/5/59
f 120/85/59 115/86/59 116/3/59
f 115/3/60 118/87/60 114/5/60
f 117/87/59 116/3/59 113/5/59
f 121/88/85 130/89/85 122/90/85
f 122/91/86 131/92/86 123/88/86
f 123/90/87 132/93/87 124/88/87
f 132/89/88 125/94/88 124/95/88
f 133/96/89 126/97/89 125/98/89
f 134/92/90 127/91/90 126/88/90
f 135/92/91 128/98/91 127/97/91
f 136/92/92 121/95/92 128/94/92
f 137/92/93 130/98/93 129/99/93
f 138/100/94 131/101/94 130/98/94
f 139/102/95 132/99/95 131/98/95
f 140/103/96 133/88/96 132/98/96
f 133/104/97 142/105/97 134/88/97
f 134/101/98 143/100/98 135/98/98
f 135/88/99 144/89/99 136/104/99
f 144/106/100 129/98/100 136/88/100
f 123/107/57 125/108/57 127/109/57
f 142/110/58 140/90/58 138/111/58
f 145/112/101 154/113/101 153/114/101
f 146/115/102 155/114/102 154/113/102
f 147/115/103 156/116/103 155/117/103
f 148/115/104 157/114/104 156/113/104
f 149/115/105 158/116/105 157/117/105
f 150/112/106 159/117/106 158/116/106
f 151/112/107 160/113/107 159/114/107
f 152/112/108 153/117/108 160/116/108
f 149/118/57 147/119/57 145/120/57
f 156/121/58 158/122/58 160/123/58
f 1/1/109 9/9/109 10/2/109
f 2/4/2 10/9/2 11/5/2
f 3/7/110 11/124/110 12/5/110
f 12/9/4 13/5/4 5/10/4
f 13/5/111 14/124/111 6/7/111
f 14/5/6 15/9/6 7/4/6
f 15/2/112 16/9/112 8/1/112
f 16/5/8 9/9/8 1/11/8
f 9/12/113 17/9/113 18/13/113
f 18/9/10 19/5/10 11/14/10
f 19/16/114 20/5/114 12/17/114
f 20/9/12 21/5/12 13/18/12
f 13/17/115 21/5/115 22/16/115
f 14/14/14 22/5/14 23/9/14
f 23/13/116 24/9/116 16/12/116
f 24/5/16 17/9/16 9/19/16
f 25/9/117 26/5/117 18/20/117
f 26/21/18 27/5/18 19/22/18
f 27/23/118 28/5/118 20/24/118
f 28/9/20 29/5/20 21/25/20
f 21/24/119 29/5/119 30/23/119
f 22/22/22 30/5/22 31/21/22
f 23/20/120 31/5/120 32/9/120
f 32/5/24 25/9/24 17/26/24
f 33/27/121 34/5/121 26/28/121
f 34/29/26 35/33/26 27/3/26
f 27/30/122 35/9/122 36/31/122
f 36/32/28 37/34/28 29/3/28
f 37/31/123 38/9/123 30/30/123
f 38/33/30 39/29/30 31/7/30
f 31/28/124 39/5/124 40/27/124
f 40/34/32 33/32/32 25/7/32
f 41/35/33 42/5/33 34/36/33
f 42/37/34 43/40/34 35/3/34
f 43/9/35 44/39/35 36/3/35
f 44/37/36 45/40/36 37/3/36
f 45/39/37 46/9/37 38/38/37
f 46/40/38 47/37/38 39/7/38
f 47/5/39 48/35/39 40/7/39
f 48/40/40 41/37/40 33/7/40
f 49/41/41 50/5/41 42/42/41
f 50/43/42 51/46/42 43/3/42
f 51/9/43 52/45/43 44/3/43
f 52/43/44 53/46/44 45/3/44
f 53/45/45 54/9/45 46/44/45
f 54/46/46 55/43/46 47/7/46
f 55/5/47 56/41/47 48/7/47
f 56/46/48 49/43/48 41/7/48
f 57/47/49 58/5/49 50/48/49
f 58/49/50 59/52/50 51/3/50
f 59/9/51 60/51/51 52/3/51
f 60/49/52 61/52/52 53/3/52
f 61/51/53 62/9/53 54/50/53
f 62/52/54 63/49/54 55/7/54
f 63/5/55 64/47/55 56/7/55
f 64/52/56 57/49/56 49/7/56
f 7/55/57 8/125/57 1/126/57
f 1/126/57 2/58/57 3/53/57
f 3/53/57 4/57/57 5/54/57
f 5/54/57 6/56/57 7/55/57
f 7/55/57 1/126/57 3/53/57
f 58/58/58 57/126/58 64/125/58
f 64/125/58 63/55/58 62/56/58
f 62/56/58 61/54/58 60/57/58
f 60/57/58 59/53/58 58/58/58
f 58/58/58 64/125/58 62/56/58
f 66/9/59 67/7/59 68/3/59
f 72/3/60 71/7/60 70/9/60
f 69/59/61 70/9/61 66/60/61
f 67/60/62 71/9/62 72/59/62
f 66/5/63 70/62/63 71/61/63
f 65/5/64 68/3/64 72/61/64
f 73/5/60 76/3/60 75/7/60
f 77/5/59 78/9/59 79/7/59
f 77/63/65 73/7/65 74/64/65
f 75/64/66 76/7/66 80/63/66
f 74/9/67 75/7/67 79/65/67
f 73/9/68 77/66/68 80/65/68
f 82/9/59 83/7/59 84/3/59
f 88/3/60 87/7/60 86/9/60
f 81/67/69 85/7/69 86/68/69
f 84/67/70 83/5/70 87/68/70
f 82/5/71 86/70/71 87/69/71
f 84/3/72 88/69/72 85/70/72
f 89/5/60 92/3/60 91/7/60
f 93/5/59 94/9/59 95/7/59
f 89/71/73 90/9/73 94/72/73
f 92/71/74 96/3/74 95/72/74
f 90/9/75 91/7/75 95/73/75
f 89/9/76 93/74/76 96/73/76
f 98/75/59 99/78/59 100/3/59
f 104/3/60 103/78/60 102/75/60
f 101/76/77 102/75/77 98/63/77
f 99/63/78 103/75/78 104/76/78
f 102/77/79 103/127/79 99/3/79
f 100/3/80 104/127/80 101/77/80
f 105/5/60 108/3/60 107/78/60
f 109/5/59 110/75/59 111/78/59
f 109/79/81 105/78/81 106/80/81
f 107/80/82 108/78/82 112/79/82
f 106/75/83 107/78/83 111/81/83
f 105/75/84 109/82/84 112/81/84
f 116/3/60 115/78/60 114/75/60
f 118/75/59 119/78/59 120/3/59
f 114/83/59 118/78/59 117/84/59
f 120/85/59 119/75/59 115/86/59
f 115/3/60 119/128/60 118/87/60
f 117/87/59 120/128/59 116/3/59
f 121/88/125 129/93/125 130/89/125
f 122/91/86 130/89/86 131/92/86
f 123/90/126 131/89/126 132/93/126
f 132/89/88 133/92/88 125/94/88
f 133/96/127 134/92/127 126/97/127
f 134/92/90 135/89/90 127/91/90
f 135/92/128 136/96/128 128/98/128
f 136/92/92 129/89/92 121/95/92
f 137/92/129 138/102/129 130/98/129
f 138/100/94 139/92/94 131/101/94
f 139/102/130 140/92/130 132/99/130
f 140/103/96 141/106/96 133/88/96
f 133/104/131 141/89/131 142/105/131
f 134/101/98 142/92/98 143/100/98
f 135/88/132 143/105/132 144/89/132
f 144/106/100 137/103/100 129/98/100
f 127/109/57 128/129/57 121/130/57
f 121/130/57 122/111/57 123/107/57
f 123/107/57 124/90/57 125/108/57
f 125/108/57 126/110/57 127/109/57
f 127/109/57 121/130/57 123/107/57
f 138/111/58 137/130/58 144/129/58
f 144/129/58 143/109/58 142/110/58
f 142/110/58 141/108/58 140/90/58
f 140/90/58 139/107/58 138/111/58
f 138/111/58 144/129/58 142/110/58
f 145/112/101 146/115/101 154/113/101
f 146/115/133 147/112/133 155/114/133
f 147/115/134 148/112/134 156/116/134
f 148/115/104 149/112/104 157/114/104
f 149/115/105 150/112/105 158/116/105
f 150/112/135 151/115/135 159/117/135
f 151/112/136 152/115/136 160/113/136
f 152/112/108 145/115/108 153/117/108
f 145/120/57 152/123/57 151/131/57
f 151/131/57 150/122/57 149/118/57
f 149/118/57 148/121/57 147/119/57
f 147/119/57 146/132/57 145/120/57
f 145/120/57 151/131/57 149/118/57
f 160/123/58 153/120/58 154/132/58
f 154/132/58 155/119/58 156/121/58
f 156/121/58 157/118/58 158/122/58
f 158/122/58 159/131/58 160/123/58
f 160/123/58 154/132/58 156/121/58
