# Blender 4.4.1
# www.blender.org
mtllib plane_marauder.mtl
o plane_marauder
v 0.500000 1.200000 -16.500000
v 1.000000 0.700000 -16.500000
v 1.000000 -0.300000 -16.500000
v 0.500000 -0.800000 -16.500000
v -0.500000 -0.800000 -16.500000
v -1.000000 -0.300000 -16.500000
v -1.000000 0.700000 -16.500000
v -0.500000 1.200000 -16.500000
v 0.950000 2.300000 -13.000000
v 1.900000 1.300000 -13.000000
v 1.900000 -0.700000 -13.000000
v 0.950000 -1.700000 -13.000000
v -0.950000 -1.700000 -13.000000
v -1.900000 -0.700000 -13.000000
v -1.900000 1.300000 -13.000000
v -0.950000 2.300000 -13.000000
v 1.350000 3.100000 -7.000000
v 2.700000 1.650000 -7.000000
v 2.700000 -1.250000 -7.000000
v 1.350000 -2.700000 -7.000000
v -1.350000 -2.700000 -7.000000
v -2.700000 -1.250000 -7.000000
v -2.700000 1.650000 -7.000000
v -1.350000 3.100000 -7.000000
v 1.500000 3.100000 0.000000
v 3.000000 1.550000 0.000000
v 3.000000 -1.550000 0.000000
v 1.500000 -3.100000 0.000000
v -1.500000 -3.100000 0.000000
v -3.000000 -1.550000 0.000000
v -3.000000 1.550000 0.000000
v -1.500000 3.100000 0.000000
v 1.400000 2.900000 6.000000
v 2.800000 1.450000 6.000000
v 2.800000 -1.450000 6.000000
v 1.400000 -2.900000 6.000000
v -1.400000 -2.900000 6.000000
v -2.800000 -1.450000 6.000000
v -2.800000 1.450000 6.000000
v -1.400000 2.900000 6.000000
v 1.100000 2.200000 11.500000
v 2.200000 1.100000 11.500000
v 2.200000 -1.100000 11.500000
v 1.100000 -2.200000 11.500000
v -1.100000 -2.200000 11.500000
v -2.200000 -1.100000 11.500000
v -2.200000 1.100000 11.500000
v -1.100000 2.200000 11.500000
v 0.700000 1.400000 14.500000
v 1.400000 0.700000 14.500000
v 1.400000 -0.700000 14.500000
v 0.700000 -1.400000 14.500000
v -0.700000 -1.400000 14.500000
v -1.400000 -0.700000 14.500000
v -1.400000 0.700000 14.500000
v -0.700000 1.400000 14.500000
v 0.350000 0.800000 16.500000
v 0.700000 0.400000 16.500000
v 0.700000 -0.400000 16.500000
v 0.350000 -0.800000 16.500000
v -0.350000 -0.800000 16.500000
v -0.700000 -0.400000 16.500000
v -0.700000 0.400000 16.500000
v -0.350000 0.800000 16.500000
v 2.000000 -0.300000 5.000000
v 2.000000 1.100000 5.000000
v 2.000000 1.100000 -4.600000
v 2.000000 -0.300000 -4.600000
v 19.000000 1.100000 2.800000
v 19.000000 1.700000 2.800000
v 19.000000 1.700000 -1.800000
v 19.000000 1.100000 -1.800000
v -2.000000 -0.300000 5.000000
v -2.000000 1.100000 5.000000
v -2.000000 1.100000 -4.600000
v -2.000000 -0.300000 -4.600000
v -19.000000 1.100000 2.800000
v -19.000000 1.700000 2.800000
v -19.000000 1.700000 -1.800000
v -19.000000 1.100000 -1.800000
v 1.000000 0.450000 -12.400000
v 1.000000 1.150000 -12.400000
v 1.000000 1.150000 -16.200001
v 1.000000 0.450000 -16.200001
v 8.000000 0.900000 -12.800000
v 8.000000 1.300000 -12.800000
v 8.000000 1.300000 -15.600000
v 8.000000 0.900000 -15.600000
v -1.000000 0.450000 -12.400000
v -1.000000 1.150000 -12.400000
v -1.000000 1.150000 -16.200001
v -1.000000 0.450000 -16.200001
v -8.000000 0.900000 -12.800000
v -8.000000 1.300000 -12.800000
v -8.000000 1.300000 -15.600000
v -8.000000 0.900000 -15.600000
v 7.000000 0.800000 -12.600000
v 7.000000 1.400000 -12.600000
v 7.000000 1.400000 -15.800000
v 7.000000 0.800000 -15.800000
v 7.000000 4.850000 -13.200000
v 7.000000 5.150000 -13.200000
v 7.000000 5.150000 -15.400000
v 7.000000 4.850000 -15.400000
v -7.000000 0.800000 -12.600000
v -7.000000 1.400000 -12.600000
v -7.000000 1.400000 -15.800000
v -7.000000 0.800000 -15.800000
v -7.000000 4.850000 -13.200000
v -7.000000 5.150000 -13.200000
v -7.000000 5.150000 -15.400000
v -7.000000 4.850000 -15.400000
v -6.750000 2.200000 -2.400000
v -6.100000 1.550000 -2.400000
v -6.100000 0.250000 -2.400000
v -6.750000 -0.400000 -2.400000
v -8.050000 -0.400000 -2.400000
v -8.700000 0.250000 -2.400000
v -8.700000 1.550000 -2.400000
v -8.050000 2.200000 -2.400000
v -6.550000 2.600000 1.600000
v -5.700000 1.750000 1.600000
v -5.700000 0.050000 1.600000
v -6.550000 -0.800000 1.600000
v -8.250000 -0.800000 1.600000
v -9.100000 0.050000 1.600000
v -9.100000 1.750000 1.600000
v -8.250000 2.600000 1.600000
v -6.700000 2.300000 5.800000
v -6.000000 1.600000 5.800000
v -6.000000 0.200000 5.800000
v -6.700000 -0.500000 5.800000
v -8.100000 -0.500000 5.800000
v -8.800000 0.200000 5.800000
v -8.800000 1.600000 5.800000
v -8.100000 2.300000 5.800000
v -7.050000 1.600000 7.200000
v -6.700000 1.250000 7.200000
v -6.700000 0.550000 7.200000
v -7.050000 0.200000 7.200000
v -7.750000 0.200000 7.200000
v -8.100000 0.550000 7.200000
v -8.100000 1.250000 7.200000
v -7.750000 1.600000 7.200000
v -6.500000 0.900000 7.200000
v -6.763604 1.536396 7.200000
v -7.400000 1.800000 7.200000
v -8.036396 1.536396 7.200000
v -8.300000 0.900000 7.200000
v -8.036396 0.263604 7.200000
v -7.400000 0.000000 7.200000
v -6.763604 0.263604 7.200000
v -7.175000 0.900000 8.800000
v -7.240901 1.059099 8.800000
v -7.400000 1.125000 8.800000
v -7.559099 1.059099 8.800000
v -7.625000 0.900000 8.800000
v -7.559099 0.740901 8.800000
v -7.400000 0.675000 8.800000
v -7.240901 0.740901 8.800000
v 8.050000 2.200000 -2.400000
v 8.700000 1.550000 -2.400000
v 8.700000 0.250000 -2.400000
v 8.050000 -0.400000 -2.400000
v 6.750000 -0.400000 -2.400000
v 6.100000 0.250000 -2.400000
v 6.100000 1.550000 -2.400000
v 6.750000 2.200000 -2.400000
v 8.250000 2.600000 1.600000
v 9.100000 1.750000 1.600000
v 9.100000 0.050000 1.600000
v 8.250000 -0.800000 1.600000
v 6.550000 -0.800000 1.600000
v 5.700000 0.050000 1.600000
v 5.700000 1.750000 1.600000
v 6.550000 2.600000 1.600000
v 8.100000 2.300000 5.800000
v 8.800000 1.600000 5.800000
v 8.800000 0.200000 5.800000
v 8.100000 -0.500000 5.800000
v 6.700000 -0.500000 5.800000
v 6.000000 0.200000 5.800000
v 6.000000 1.600000 5.800000
v 6.700000 2.300000 5.800000
v 7.750000 1.600000 7.200000
v 8.100000 1.250000 7.200000
v 8.100000 0.550000 7.200000
v 7.750000 0.200000 7.200000
v 7.050000 0.200000 7.200000
v 6.700000 0.550000 7.200000
v 6.700000 1.250000 7.200000
v 7.050000 1.600000 7.200000
v 8.300000 0.900000 7.200000
v 8.036396 1.536396 7.200000
v 7.400000 1.800000 7.200000
v 6.763604 1.536396 7.200000
v 6.500000 0.900000 7.200000
v 6.763604 0.263604 7.200000
v 7.400000 0.000000 7.200000
v 8.036396 0.263604 7.200000
v 7.625000 0.900000 8.800000
v 7.559099 1.059099 8.800000
v 7.400000 1.125000 8.800000
v 7.240901 1.059099 8.800000
v 7.175000 0.900000 8.800000
v 7.240901 0.740901 8.800000
v 7.400000 0.675000 8.800000
v 7.559099 0.740901 8.800000
v 0.700000 3.900000 -2.000000
v 1.400000 3.450000 -2.000000
v 1.400000 2.550000 -2.000000
v 0.700000 2.100000 -2.000000
v -0.700000 2.100000 -2.000000
v -1.400000 2.550000 -2.000000
v -1.400000 3.450000 -2.000000
v -0.700000 3.900000 -2.000000
v 0.800000 4.200000 2.000000
v 1.600000 3.650000 2.000000
v 1.600000 2.550000 2.000000
v 0.800000 2.000000 2.000000
v -0.800000 2.000000 2.000000
v -1.600000 2.550000 2.000000
v -1.600000 3.650000 2.000000
v -0.800000 4.200000 2.000000
v 0.600000 3.500000 6.000000
v 1.200000 3.150000 6.000000
v 1.200000 2.450000 6.000000
v 0.600000 2.100000 6.000000
v -0.600000 2.100000 6.000000
v -1.200000 2.450000 6.000000
v -1.200000 3.150000 6.000000
v -0.600000 3.500000 6.000000
vn 0.6767 0.6767 -0.2900
vn 0.9685 -0.0000 -0.2490
vn 0.6822 -0.6822 -0.2631
vn -0.0000 -0.9685 -0.2490
vn -0.6822 -0.6822 -0.2631
vn -0.9685 -0.0000 -0.2490
vn -0.6767 0.6767 -0.2900
vn -0.0000 0.9540 -0.2998
vn 0.7183 0.6824 -0.1356
vn 0.9912 -0.0000 -0.1322
vn 0.7159 -0.6801 -0.1578
vn -0.0000 -0.9864 -0.1644
vn -0.7159 -0.6801 -0.1578
vn -0.9912 -0.0000 -0.1322
vn -0.7183 0.6824 -0.1356
vn -0.0000 0.9912 -0.1322
vn 0.7318 0.6813 -0.0157
vn 0.9991 -0.0000 -0.0428
vn 0.7306 -0.6802 -0.0605
vn -0.0000 -0.9984 -0.0570
vn -0.7306 -0.6802 -0.0605
vn -0.9991 -0.0000 -0.0428
vn -0.7318 0.6813 -0.0157
vn -0.0000 1.0000 -0.0000
vn 0.7182 0.6950 0.0351
vn 0.9994 -0.0000 0.0333
vn 0.7182 -0.6950 0.0351
vn -0.0000 -0.9994 0.0333
vn -0.7182 -0.6950 0.0351
vn -0.9994 -0.0000 0.0333
vn -0.7182 0.6950 0.0351
vn -0.0000 0.9994 0.0333
vn 0.7136 0.6890 0.1266
vn 0.9941 -0.0000 0.1084
vn 0.7136 -0.6890 0.1266
vn -0.0000 -0.9920 0.1263
vn -0.7136 -0.6890 0.1266
vn -0.9941 -0.0000 0.1084
vn -0.7136 0.6890 0.1266
vn -0.0000 0.9920 0.1263
vn 0.6804 0.6804 0.2722
vn 0.9662 -0.0000 0.2577
vn 0.6804 -0.6804 0.2722
vn -0.0000 -0.9662 0.2577
vn -0.6804 -0.6804 0.2722
vn -0.9662 -0.0000 0.2577
vn -0.6804 0.6804 0.2722
vn -0.0000 0.9662 0.2577
vn 0.6667 0.6667 0.3333
vn 0.9439 -0.0000 0.3304
vn 0.6667 -0.6667 0.3333
vn -0.0000 -0.9578 0.2873
vn -0.6667 -0.6667 0.3333
vn -0.9439 -0.0000 0.3304
vn -0.6667 0.6667 0.3333
vn -0.0000 0.9578 0.2873
vn -0.0000 -0.0000 -1.0000
vn -0.0000 -0.0000 1.0000
vn -1.0000 -0.0000 -0.0000
vn 1.0000 -0.0000 -0.0000
vn 0.1283 -0.0000 0.9917
vn 0.1625 -0.0000 -0.9867
vn -0.0353 0.9994 -0.0000
vn 0.0821 -0.9966 -0.0000
vn -0.1283 -0.0000 0.9917
vn -0.1625 -0.0000 -0.9867
vn 0.0353 0.9994 -0.0000
vn -0.0821 -0.9966 -0.0000
vn 0.0570 -0.0000 0.9984
vn 0.0854 -0.0000 -0.9963
vn -0.0214 0.9998 -0.0000
vn 0.0642 -0.9979 -0.0000
vn -0.0570 -0.0000 0.9984
vn -0.0854 -0.0000 -0.9963
vn 0.0214 0.9998 -0.0000
vn -0.0642 -0.9979 -0.0000
vn 0.7032 0.7032 -0.1055
vn 0.9950 -0.0000 -0.0995
vn 0.7032 -0.7032 -0.1055
vn -0.0000 -0.9950 -0.0995
vn -0.7032 -0.7032 -0.1055
vn -0.9950 -0.0000 -0.0995
vn -0.7032 0.7032 -0.1055
vn -0.0000 0.9950 -0.0995
vn 0.7051 0.7051 0.0755
vn 0.9975 -0.0000 0.0712
vn 0.7051 -0.7051 0.0755
vn -0.0000 -0.9975 0.0712
vn -0.7051 -0.7051 0.0755
vn -0.9975 -0.0000 0.0712
vn -0.7051 0.7051 0.0755
vn -0.0000 0.9975 0.0712
vn 0.6247 0.6247 0.4685
vn 0.8944 -0.0000 0.4472
vn 0.6247 -0.6247 0.4685
vn -0.0000 -0.8944 0.4472
vn -0.6247 -0.6247 0.4685
vn -0.8944 -0.0000 0.4472
vn -0.6247 0.6247 0.4685
vn -0.0000 0.8944 0.4472
vn 0.8608 0.3566 0.3632
vn 0.3566 0.8608 0.3632
vn -0.3566 0.8608 0.3632
vn -0.8608 0.3566 0.3632
vn -0.8608 -0.3566 0.3632
vn -0.3566 -0.8608 0.3632
vn 0.3566 -0.8608 0.3632
vn 0.8608 -0.3566 0.3632
vn 0.5395 0.8392 -0.0689
vn 0.9988 -0.0000 -0.0499
vn 0.5404 -0.8407 -0.0345
vn -0.0000 -0.9997 -0.0250
vn -0.5404 -0.8407 -0.0345
vn -0.9988 -0.0000 -0.0499
vn -0.5395 0.8392 -0.0689
vn -0.0000 0.9972 -0.0748
vn 0.5583 0.8120 0.1700
vn 0.9950 -0.0000 0.0995
vn 0.5662 -0.8235 0.0360
vn -0.0000 -0.9997 0.0250
vn -0.5662 -0.8235 0.0360
vn -0.9950 -0.0000 0.0995
vn -0.5583 0.8120 0.1700
vn -0.0000 0.9850 0.1724
vn 0.6926 0.6579 -0.2958
vn 0.7008 -0.6657 -0.2563
vn -0.7008 -0.6657 -0.2563
vn -0.6926 0.6579 -0.2958
vn 0.7249 0.6749 -0.1383
vn 0.7224 -0.6726 -0.1603
vn -0.7224 -0.6726 -0.1603
vn -0.7249 0.6749 -0.1383
vn 0.7184 0.6953 -0.0209
vn 0.7175 -0.6944 -0.0551
vn -0.7175 -0.6944 -0.0551
vn -0.7184 0.6953 -0.0209
vn 0.7189 0.6942 0.0355
vn 0.7189 -0.6942 0.0355
vn -0.7189 -0.6942 0.0355
vn -0.7189 0.6942 0.0355
vn 0.7019 0.7019 0.1212
vn 0.7019 -0.7019 0.1212
vn -0.7019 -0.7019 0.1212
vn -0.7019 0.7019 0.1212
vn 0.7148 0.6255 0.3127
vn 0.7148 -0.6255 0.3127
vn -0.7148 -0.6255 0.3127
vn -0.7148 0.6255 0.3127
vn 0.5649 0.8217 -0.0757
vn 0.5663 -0.8237 -0.0283
vn -0.5663 -0.8237 -0.0283
vn -0.5649 0.8217 -0.0757
vn 0.4977 0.8531 0.1564
vn 0.5033 -0.8628 0.0467
vn -0.5033 -0.8628 0.0467
vn -0.4977 0.8531 0.1564
vt 0.198364 0.086914
vt 0.218506 0.287109
vt 0.097656 0.086914
vt 0.323242 0.086914
vt 0.097656 0.287109
vt 0.162109 0.086914
vt 0.419922 0.086914
vt 0.304827 0.086914
vt 0.343596 0.086914
vt 0.173982 0.086914
vt 0.276693 0.086914
vt 0.160319 0.287109
vt 0.419922 0.287109
vt 0.158776 0.086914
vt 0.381028 0.086914
vt 0.331299 0.287109
vt 0.258789 0.086914
vt 0.145399 0.086914
vt 0.372179 0.086914
vt 0.118448 0.086914
vt 0.409851 0.287109
vt 0.127869 0.086914
vt 0.367663 0.287109
vt 0.167335 0.086914
vt 0.113770 0.086914
vt 0.403809 0.086914
vt 0.380859 0.287109
vt 0.117187 0.086914
vt 0.409526 0.287109
vt 0.400391 0.086914
vt 0.136719 0.287109
vt 0.409180 0.287109
vt 0.108052 0.287109
vt 0.108398 0.287109
vt 0.294596 0.287109
vt 0.160319 0.086914
vt 0.381028 0.287109
vt 0.357259 0.086914
vt 0.222982 0.287109
vt 0.385393 0.287109
vt 0.136550 0.287109
vt 0.132185 0.287109
vt 0.183594 0.086914
vt 0.361328 0.287109
vt 0.333984 0.086914
vt 0.269531 0.287109
vt 0.156250 0.287109
vt 0.248047 0.287109
vt 0.194336 0.086914
vt 0.350865 0.287109
vt 0.339355 0.287109
vt 0.166713 0.287109
vt 0.178223 0.287109
vt 0.419922 0.136963
vt 0.178223 0.086914
vt 0.097656 0.237061
vt 0.097656 0.136963
vt 0.339355 0.086914
vt 0.419922 0.237061
vt 0.419922 0.227051
vt 0.097656 0.227051
vt 0.419922 0.145304
vt 0.419922 0.241231
vt 0.097656 0.145304
vt 0.097656 0.241231
vt 0.263672 0.086914
vt 0.263672 0.287109
vt 0.419922 0.192900
vt 0.263672 0.251781
vt 0.419922 0.118524
vt 0.419922 0.266036
vt 0.263672 0.192900
vt 0.419922 0.251781
vt 0.263672 0.118524
vt 0.263672 0.266036
vt 0.409146 0.086914
vt 0.285224 0.287109
vt 0.285224 0.086914
vt 0.409146 0.287109
vt 0.419922 0.249573
vt 0.419922 0.111939
vt 0.293434 0.287109
vt 0.360398 0.086914
vt 0.282054 0.086914
vt 0.401540 0.086914
vt 0.401540 0.086914
vt 0.323196 0.086914
vt 0.293434 0.287109
vt 0.360398 0.086914
vt 0.287109 0.086914
vt 0.406135 0.287109
vt 0.373047 0.287109
vt 0.406135 0.287109
vt 0.396484 0.086914
vt 0.310547 0.287109
vt 0.277459 0.287109
vt 0.315755 0.086914
vt 0.380859 0.287109
vt 0.315755 0.287109
vt 0.380859 0.287109
vt 0.367839 0.086914
vt 0.367839 0.287109
vt 0.302734 0.287109
vt 0.302734 0.086914
vt 0.263672 0.237061
vt 0.263672 0.136963
vt 0.380859 0.086914
vt 0.498047 0.345703
vt 0.512695 0.404297
vt 0.498047 0.404297
vt 0.556641 0.345703
vt 0.556641 0.404297
vt 0.541992 0.404297
vt 0.498047 0.375000
vt 0.527344 0.404297
vt 0.556641 0.375000
vt 0.506628 0.395716
vt 0.506628 0.354284
vt 0.548060 0.354284
vt 0.390160 0.287109
vt 0.390160 0.287109
vt 0.302734 0.287109
vt 0.302734 0.086914
vt 0.087891 0.524414
vt 0.146484 0.584961
vt 0.133464 0.524414
vt 0.135831 0.524414
vt 0.087891 0.584961
vt 0.094401 0.584961
vt 0.091553 0.524414
vt 0.142822 0.524414
vt 0.139974 0.584961
vt 0.100911 0.524414
vt 0.146484 0.524414
vt 0.099609 0.524414
vt 0.122070 0.584961
vt 0.092773 0.524414
vt 0.123047 0.584961
vt 0.095215 0.584961
vt 0.134766 0.524414
vt 0.111328 0.584961
vt 0.139160 0.584961
vt 0.146484 0.539551
vt 0.102539 0.524414
vt 0.087891 0.569824
vt 0.087891 0.539551
vt 0.131836 0.524414
vt 0.146484 0.569824
vt 0.327846 0.287109
vt 0.226562 0.287109
vt 0.291016 0.287109
vt 0.277459 0.287109
vt 0.302734 0.287109
vt 0.380859 0.086914
vt 0.302734 0.086914
vt 0.527344 0.345703
vt 0.548060 0.395716
vt 0.380859 0.086914
vt 0.102539 0.584961
vt 0.131836 0.584961
s 0
usemtl plane_marauder
f 1/1/1 10/2/1 2/3/1
f 2/4/2 11/5/2 3/6/2
f 3/7/3 12/5/3 4/8/3
f 4/9/4 13/5/4 5/10/4
f 13/5/5 6/7/5 5/8/5
f 14/5/6 7/4/6 6/6/6
f 15/2/7 8/1/7 7/3/7
f 16/5/8 1/9/8 8/10/8
f 9/11/9 18/12/9 10/3/9
f 18/13/10 11/14/10 10/15/10
f 19/16/11 12/17/11 11/7/11
f 20/13/12 13/18/12 12/19/12
f 13/17/13 22/16/13 14/7/13
f 14/14/14 23/13/14 15/15/14
f 23/12/15 16/11/15 15/3/15
f 24/5/16 9/19/16 16/18/16
f 25/13/17 18/20/17 17/7/17
f 26/21/18 19/22/18 18/7/18
f 27/23/19 20/24/19 19/7/19
f 28/13/20 21/25/20 20/26/20
f 21/24/21 30/23/21 22/7/21
f 22/22/22 31/21/22 23/7/22
f 23/20/23 32/13/23 24/7/23
f 32/5/24 17/26/24 24/25/24
f 33/27/25 26/28/25 25/7/25
f 34/29/26 27/3/26 26/7/26
f 27/30/27 36/31/27 28/3/27
f 36/32/28 29/3/28 28/7/28
f 37/31/29 30/30/29 29/3/29
f 38/33/30 31/7/30 30/3/30
f 31/28/31 40/27/31 32/7/31
f 40/34/32 25/7/32 32/3/32
f 41/35/33 34/36/33 33/7/33
f 42/37/34 35/3/34 34/7/34
f 35/38/35 44/39/35 36/3/35
f 44/40/36 37/3/36 36/7/36
f 45/39/37 38/38/37 37/3/37
f 46/41/38 39/7/38 38/3/38
f 39/36/39 48/35/39 40/7/39
f 48/42/40 33/7/40 40/3/40
f 41/7/41 50/5/41 42/43/41
f 50/44/42 43/3/42 42/7/42
f 43/45/43 52/46/43 44/3/43
f 52/44/44 45/3/44 44/7/44
f 45/3/45 54/13/45 46/45/45
f 54/47/46 47/7/46 46/3/46
f 47/43/47 56/48/47 48/7/47
f 56/47/48 41/7/48 48/3/48
f 49/7/49 58/5/49 50/49/49
f 58/50/50 51/3/50 50/7/50
f 59/13/51 52/3/51 51/4/51
f 60/51/52 53/3/52 52/7/52
f 53/3/53 62/13/53 54/4/53
f 62/52/54 55/7/54 54/3/54
f 63/5/55 56/7/55 55/49/55
f 64/53/56 49/7/56 56/3/56
f 3/54/57 5/55/57 7/56/57
f 62/57/58 60/58/58 58/59/58
f 66/13/59 68/3/59 65/5/59
f 72/3/60 70/13/60 69/5/60
f 69/60/61 66/61/61 65/3/61
f 67/61/62 72/60/62 68/3/62
f 66/5/63 71/62/63 67/3/63
f 65/5/64 72/62/64 69/63/64
f 73/5/60 75/7/60 74/13/60
f 77/5/59 79/7/59 80/3/59
f 77/61/65 74/60/65 78/5/65
f 75/60/66 80/61/66 79/5/66
f 74/13/67 79/64/67 78/65/67
f 73/13/68 80/64/68 76/7/68
f 82/13/59 84/66/59 81/67/59
f 88/66/60 86/13/60 85/67/60
f 85/68/69 82/69/69 81/66/69
f 83/69/70 88/68/70 84/66/70
f 82/67/71 87/70/71 83/66/71
f 81/67/72 88/70/72 85/71/72
f 89/67/60 91/7/60 90/13/60
f 93/67/59 95/7/59 96/66/59
f 93/72/73 90/73/73 94/67/73
f 91/73/74 96/72/74 95/67/74
f 90/13/75 95/74/75 94/75/75
f 89/13/76 96/74/76 92/7/76
f 98/13/59 100/66/59 97/67/59
f 104/66/60 102/13/60 101/67/60
f 101/76/60 98/77/60 97/67/60
f 99/78/60 104/79/60 100/66/60
f 102/80/59 99/66/59 98/67/59
f 100/66/60 101/80/60 97/67/60
f 105/67/60 107/7/60 106/13/60
f 109/67/59 111/7/59 112/66/59
f 109/76/59 106/77/59 110/7/59
f 107/78/59 112/79/59 111/13/59
f 110/80/60 107/66/60 111/81/60
f 108/66/59 109/80/59 112/81/59
f 121/82/77 114/83/77 113/66/77
f 122/13/78 115/84/78 114/85/78
f 123/13/79 116/66/79 115/83/79
f 124/13/80 117/84/80 116/86/80
f 125/67/81 118/7/81 117/87/81
f 126/67/82 119/85/82 118/84/82
f 127/88/83 120/89/83 119/66/83
f 128/67/84 113/86/84 120/84/84
f 129/67/85 122/7/85 121/90/85
f 130/91/86 123/66/86 122/7/86
f 131/92/87 124/90/87 123/7/87
f 132/93/88 125/66/88 124/7/88
f 133/13/89 126/66/89 125/94/89
f 126/66/90 135/91/90 127/7/90
f 135/95/91 128/94/91 127/66/91
f 136/96/92 121/7/92 128/66/92
f 137/67/93 130/7/93 129/97/93
f 138/98/94 131/66/94 130/7/94
f 139/99/95 132/97/95 131/7/95
f 140/100/96 133/66/96 132/7/96
f 133/101/97 142/102/97 134/66/97
f 134/66/98 143/98/98 135/7/98
f 143/102/99 136/101/99 135/66/99
f 144/103/100 129/7/100 136/66/100
f 115/54/57 117/104/57 119/105/57
f 142/106/58 140/107/58 138/59/58
f 145/108/101 154/109/101 153/110/101
f 146/111/102 155/110/102 154/109/102
f 148/108/103 155/112/103 147/111/103
f 149/108/104 156/109/104 148/111/104
f 150/108/105 157/112/105 149/111/105
f 151/111/106 158/113/106 150/108/106
f 152/111/107 159/110/107 151/108/107
f 152/108/108 153/112/108 160/113/108
f 149/114/57 147/115/57 145/116/57
f 156/117/58 158/118/58 160/119/58
f 169/13/77 162/66/77 161/89/77
f 170/13/78 163/84/78 162/85/78
f 171/120/79 164/87/79 163/7/79
f 172/13/80 165/84/80 164/86/80
f 173/121/81 166/87/81 165/7/81
f 174/67/82 167/85/82 166/84/82
f 175/67/83 168/7/83 167/87/83
f 176/67/84 161/86/84 168/84/84
f 177/67/85 170/7/85 169/90/85
f 178/91/86 171/66/86 170/7/86
f 179/92/87 172/90/87 171/7/87
f 180/93/88 173/66/88 172/7/88
f 181/13/89 174/66/89 173/94/89
f 174/66/90 183/91/90 175/7/90
f 183/95/91 176/94/91 175/66/91
f 184/96/92 169/7/92 176/66/92
f 177/97/93 186/99/93 178/7/93
f 186/98/94 179/66/94 178/7/94
f 187/99/95 180/97/95 179/7/95
f 188/100/96 181/66/96 180/7/96
f 189/13/97 182/66/97 181/101/97
f 190/122/98 183/7/98 182/66/98
f 191/102/99 184/101/99 183/66/99
f 192/103/100 177/7/100 184/66/100
f 163/54/57 165/123/57 167/105/57
f 190/106/58 188/107/58 186/59/58
f 194/111/101 201/110/101 193/108/101
f 195/108/102 202/109/102 194/111/102
f 196/108/103 203/112/103 195/111/103
f 197/108/104 204/109/104 196/111/104
f 198/108/105 205/112/105 197/111/105
f 199/111/106 206/113/106 198/108/106
f 200/111/107 207/110/107 199/108/107
f 193/111/108 208/113/108 200/108/108
f 197/114/57 195/115/57 193/116/57
f 204/117/58 206/118/58 208/119/58
f 209/124/109 218/125/109 210/126/109
f 210/127/110 219/128/110 211/124/110
f 211/126/111 220/129/111 212/124/111
f 220/125/112 213/130/112 212/131/112
f 221/132/113 214/133/113 213/134/113
f 222/128/114 215/127/114 214/124/114
f 223/128/115 216/134/115 215/133/115
f 224/128/116 209/131/116 216/130/116
f 225/128/117 218/134/117 217/135/117
f 226/136/118 219/137/118 218/134/118
f 227/138/119 220/135/119 219/134/119
f 220/134/120 229/139/120 221/124/120
f 221/140/121 230/141/121 222/124/121
f 222/137/122 231/136/122 223/134/122
f 223/124/123 232/125/123 224/140/123
f 224/124/124 225/142/124 217/134/124
f 211/143/57 213/144/57 215/145/57
f 230/146/58 228/147/58 226/148/58
f 1/1/125 9/13/125 10/2/125
f 2/4/2 10/13/2 11/5/2
f 3/7/126 11/149/126 12/5/126
f 4/9/4 12/13/4 13/5/4
f 13/5/127 14/149/127 6/7/127
f 14/5/6 15/13/6 7/4/6
f 15/2/128 16/13/128 8/1/128
f 16/5/8 9/13/8 1/9/8
f 9/11/129 17/13/129 18/12/129
f 18/13/10 19/5/10 11/14/10
f 19/16/130 20/5/130 12/17/130
f 20/13/12 21/5/12 13/18/12
f 13/17/131 21/5/131 22/16/131
f 14/14/14 22/5/14 23/13/14
f 23/12/132 24/13/132 16/11/132
f 24/5/16 17/13/16 9/19/16
f 25/13/133 26/5/133 18/20/133
f 26/21/18 27/5/18 19/22/18
f 27/23/134 28/5/134 20/24/134
f 28/13/20 29/5/20 21/25/20
f 21/24/135 29/5/135 30/23/135
f 22/22/22 30/5/22 31/21/22
f 23/20/136 31/5/136 32/13/136
f 32/5/24 25/13/24 17/26/24
f 33/27/137 34/5/137 26/28/137
f 34/29/26 35/33/26 27/3/26
f 27/30/138 35/13/138 36/31/138
f 36/32/28 37/34/28 29/3/28
f 37/31/139 38/13/139 30/30/139
f 38/33/30 39/29/30 31/7/30
f 31/28/140 39/5/140 40/27/140
f 40/34/32 33/32/32 25/7/32
f 41/35/141 42/5/141 34/36/141
f 42/37/34 43/41/34 35/3/34
f 35/38/142 43/13/142 44/39/142
f 44/40/36 45/42/36 37/3/36
f 45/39/143 46/13/143 38/38/143
f 46/41/38 47/37/38 39/7/38
f 39/36/144 47/5/144 48/35/144
f 48/42/40 41/40/40 33/7/40
f 41/7/41 49/48/41 50/5/41
f 50/44/42 51/47/42 43/3/42
f 43/45/43 51/13/43 52/46/43
f 52/44/44 53/47/44 45/3/44
f 45/3/45 53/46/45 54/13/45
f 54/47/46 55/44/46 47/7/46
f 47/43/47 55/5/47 56/48/47
f 56/47/48 49/44/48 41/7/48
f 49/7/145 57/150/145 58/5/145
f 58/50/50 59/52/50 51/3/50
f 59/13/146 60/151/146 52/3/146
f 60/51/52 61/53/52 53/3/52
f 53/3/147 61/151/147 62/13/147
f 62/52/54 63/50/54 55/7/54
f 63/5/148 64/150/148 56/7/148
f 64/53/56 57/51/56 49/7/56
f 7/56/57 8/53/57 1/51/57
f 1/51/57 2/59/57 3/54/57
f 3/54/57 4/58/57 5/55/57
f 5/55/57 6/57/57 7/56/57
f 7/56/57 1/51/57 3/54/57
f 58/59/58 57/51/58 64/53/58
f 64/53/58 63/56/58 62/57/58
f 62/57/58 61/55/58 60/58/58
f 60/58/58 59/54/58 58/59/58
f 58/59/58 64/53/58 62/57/58
f 66/13/59 67/7/59 68/3/59
f 72/3/60 71/7/60 70/13/60
f 69/60/61 70/13/61 66/61/61
f 67/61/62 71/13/62 72/60/62
f 66/5/63 70/63/63 71/62/63
f 65/5/64 68/3/64 72/62/64
f 73/5/60 76/3/60 75/7/60
f 77/5/59 78/13/59 79/7/59
f 77/61/65 73/7/65 74/60/65
f 75/60/66 76/7/66 80/61/66
f 74/13/67 75/7/67 79/64/67
f 73/13/68 77/65/68 80/64/68
f 82/13/59 83/7/59 84/66/59
f 88/66/60 87/7/60 86/13/60
f 85/68/69 86/13/69 82/69/69
f 83/69/70 87/13/70 88/68/70
f 82/67/71 86/71/71 87/70/71
f 81/67/72 84/66/72 88/70/72
f 89/67/60 92/66/60 91/7/60
f 93/67/59 94/13/59 95/7/59
f 93/72/73 89/7/73 90/73/73
f 91/73/74 92/7/74 96/72/74
f 90/13/75 91/7/75 95/74/75
f 89/13/76 93/75/76 96/74/76
f 98/13/59 99/7/59 100/66/59
f 104/66/60 103/7/60 102/13/60
f 101/76/60 102/7/60 98/77/60
f 99/78/60 103/13/60 104/79/60
f 102/80/59 103/81/59 99/66/59
f 100/66/60 104/81/60 101/80/60
f 105/67/60 108/66/60 107/7/60
f 109/67/59 110/13/59 111/7/59
f 109/76/59 105/67/59 106/77/59
f 107/78/59 108/66/59 112/79/59
f 110/80/60 106/67/60 107/66/60
f 108/66/59 105/67/59 109/80/59
f 121/82/77 122/13/77 114/83/77
f 122/13/78 123/67/78 115/84/78
f 123/13/79 124/82/79 116/66/79
f 124/13/80 125/67/80 117/84/80
f 125/67/81 126/120/81 118/7/81
f 126/67/82 127/13/82 119/85/82
f 127/88/83 128/13/83 120/89/83
f 128/67/84 121/13/84 113/86/84
f 129/67/85 130/92/85 122/7/85
f 130/91/86 131/152/86 123/66/86
f 131/92/87 132/67/87 124/90/87
f 132/93/88 133/96/88 125/66/88
f 133/13/89 134/95/89 126/66/89
f 126/66/90 134/152/90 135/91/90
f 135/95/91 136/13/91 128/94/91
f 136/96/92 129/93/92 121/7/92
f 137/67/93 138/99/93 130/7/93
f 138/98/94 139/122/94 131/66/94
f 139/99/95 140/67/95 132/97/95
f 140/100/96 141/103/96 133/66/96
f 133/101/97 141/13/97 142/102/97
f 134/66/98 142/122/98 143/98/98
f 143/102/99 144/13/99 136/101/99
f 144/103/100 137/100/100 129/7/100
f 119/105/57 120/153/57 113/98/57
f 113/98/57 114/59/57 115/54/57
f 115/54/57 116/154/57 117/104/57
f 117/104/57 118/106/57 119/105/57
f 119/105/57 113/98/57 115/54/57
f 138/59/58 137/100/58 144/103/58
f 144/103/58 143/105/58 142/106/58
f 142/106/58 141/155/58 140/107/58
f 140/107/58 139/54/58 138/59/58
f 138/59/58 144/103/58 142/106/58
f 145/108/101 146/111/101 154/109/101
f 146/111/102 147/108/102 155/110/102
f 148/108/103 156/113/103 155/112/103
f 149/108/104 157/110/104 156/109/104
f 150/108/105 158/113/105 157/112/105
f 151/111/106 159/112/106 158/113/106
f 152/111/107 160/109/107 159/110/107
f 152/108/108 145/111/108 153/112/108
f 145/116/57 152/119/57 151/156/57
f 151/156/57 150/118/57 149/114/57
f 149/114/57 148/117/57 147/115/57
f 147/115/57 146/157/57 145/116/57
f 145/116/57 151/156/57 149/114/57
f 160/119/58 153/116/58 154/157/58
f 154/157/58 155/115/58 156/117/58
f 156/117/58 157/114/58 158/118/58
f 158/118/58 159/156/58 160/119/58
f 160/119/58 154/157/58 156/117/58
f 169/13/77 170/88/77 162/66/77
f 170/13/78 171/67/78 163/84/78
f 171/120/79 172/67/79 164/87/79
f 172/13/80 173/67/80 165/84/80
f 173/121/81 174/67/81 166/87/81
f 174/67/82 175/13/82 167/85/82
f 175/67/83 176/121/83 168/7/83
f 176/67/84 169/13/84 161/86/84
f 177/67/85 178/92/85 170/7/85
f 178/91/86 179/152/86 171/66/86
f 179/92/87 180/67/87 172/90/87
f 180/93/88 181/96/88 173/66/88
f 181/13/89 182/95/89 174/66/89
f 174/66/90 182/152/90 183/91/90
f 183/95/91 184/13/91 176/94/91
f 184/96/92 177/93/92 169/7/92
f 177/97/93 185/67/93 186/99/93
f 186/98/94 187/122/94 179/66/94
f 187/99/95 188/67/95 180/97/95
f 188/100/96 189/103/96 181/66/96
f 189/13/97 190/102/97 182/66/97
f 190/122/98 191/98/98 183/7/98
f 191/102/99 192/13/99 184/101/99
f 192/103/100 185/100/100 177/7/100
f 167/105/57 168/122/57 161/27/57
f 161/27/57 162/59/57 163/54/57
f 163/54/57 164/158/57 165/123/57
f 165/123/57 166/106/57 167/105/57
f 167/105/57 161/27/57 163/54/57
f 186/59/58 185/100/58 192/103/58
f 192/103/58 191/105/58 190/106/58
f 190/106/58 189/155/58 188/107/58
f 188/107/58 187/54/58 186/59/58
f 186/59/58 192/103/58 190/106/58
f 194/111/101 202/109/101 201/110/101
f 195/108/102 203/110/102 202/109/102
f 196/108/103 204/113/103 203/112/103
f 197/108/104 205/110/104 204/109/104
f 198/108/105 206/113/105 205/112/105
f 199/111/106 207/112/106 206/113/106
f 200/111/107 208/109/107 207/110/107
f 193/111/108 201/112/108 208/113/108
f 193/116/57 200/119/57 199/156/57
f 199/156/57 198/118/57 197/114/57
f 197/114/57 196/117/57 195/115/57
f 195/115/57 194/157/57 193/116/57
f 193/116/57 199/156/57 197/114/57
f 208/119/58 201/116/58 202/157/58
f 202/157/58 203/115/58 204/117/58
f 204/117/58 205/114/58 206/118/58
f 206/118/58 207/156/58 208/119/58
f 208/119/58 202/157/58 204/117/58
f 209/124/149 217/129/149 218/125/149
f 210/127/110 218/125/110 219/128/110
f 211/126/150 219/125/150 220/129/150
f 220/125/112 221/128/112 213/130/112
f 221/132/151 222/128/151 214/133/151
f 222/128/114 223/125/114 215/127/114
f 223/128/152 224/132/152 216/134/152
f 224/128/116 217/125/116 209/131/116
f 225/128/153 226/138/153 218/134/153
f 226/136/118 227/128/118 219/137/118
f 227/138/154 228/128/154 220/135/154
f 220/134/120 228/142/120 229/139/120
f 221/140/155 229/125/155 230/141/155
f 222/137/122 230/128/122 231/136/122
f 223/124/156 231/141/156 232/125/156
f 224/124/124 232/139/124 225/142/124
f 215/145/57 216/159/57 209/160/57
f 209/160/57 210/148/57 211/143/57
f 211/143/57 212/147/57 213/144/57
f 213/144/57 214/146/57 215/145/57
f 215/145/57 209/160/57 211/143/57
f 226/148/58 225/160/58 232/159/58
f 232/159/58 231/145/58 230/146/58
f 230/146/58 229/144/58 228/147/58
f 228/147/58 227/143/58 226/148/58
f 226/148/58 232/159/58 230/146/58
