# Blender 4.4.1
# www.blender.org
mtllib plane_falcon.mtl
o plane_falcon
v 0.450000 1.100000 -13.500000
v 0.900000 0.650000 -13.500000
v 0.900000 -0.250000 -13.500000
v 0.450000 -0.700000 -13.500000
v -0.450000 -0.700000 -13.500000
v -0.900000 -0.250000 -13.500000
v -0.900000 0.650000 -13.500000
v -0.450000 1.100000 -13.500000
v 0.750000 2.000000 -11.000000
v 1.500000 1.150000 -11.000000
v 1.500000 -0.550000 -11.000000
v 0.750000 -1.400000 -11.000000
v -0.750000 -1.400000 -11.000000
v -1.500000 -0.550000 -11.000000
v -1.500000 1.150000 -11.000000
v -0.750000 2.000000 -11.000000
v 1.050000 2.500000 -6.000000
v 2.100000 1.350000 -6.000000
v 2.100000 -0.950000 -6.000000
v 1.050000 -2.100000 -6.000000
v -1.050000 -2.100000 -6.000000
v -2.100000 -0.950000 -6.000000
v -2.100000 1.350000 -6.000000
v -1.050000 2.500000 -6.000000
v 1.200000 2.500000 0.000000
v 2.400000 1.250000 0.000000
v 2.400000 -1.250000 0.000000
v 1.200000 -2.500000 0.000000
v -1.200000 -2.500000 0.000000
v -2.400000 -1.250000 0.000000
v -2.400000 1.250000 0.000000
v -1.200000 2.500000 0.000000
v 1.100000 2.200000 5.000000
v 2.200000 1.100000 5.000000
v 2.200000 -1.100000 5.000000
v 1.100000 -2.200000 5.000000
v -1.100000 -2.200000 5.000000
v -2.200000 -1.100000 5.000000
v -2.200000 1.100000 5.000000
v -1.100000 2.200000 5.000000
v 0.850000 1.700000 9.500000
v 1.700000 0.850000 9.500000
v 1.700000 -0.850000 9.500000
v 0.850000 -1.700000 9.500000
v -0.850000 -1.700000 9.500000
v -1.700000 -0.850000 9.500000
v -1.700000 0.850000 9.500000
v -0.850000 1.700000 9.500000
v 0.550000 1.100000 12.000000
v 1.100000 0.550000 12.000000
v 1.100000 -0.550000 12.000000
v 0.550000 -1.100000 12.000000
v -0.550000 -1.100000 12.000000
v -1.100000 -0.550000 12.000000
v -1.100000 0.550000 12.000000
v -0.550000 1.100000 12.000000
v 0.250000 0.500000 13.500000
v 0.500000 0.250000 13.500000
v 0.500000 -0.250000 13.500000
v 0.250000 -0.500000 13.500000
v -0.250000 -0.500000 13.500000
v -0.500000 -0.250000 13.500000
v -0.500000 0.250000 13.500000
v -0.250000 0.500000 13.500000
v 1.600000 -1.050000 4.200000
v 1.600000 0.050000 4.200000
v 1.600000 0.050000 -3.200000
v 1.600000 -1.050000 -3.200000
v 15.000000 0.350000 2.400000
v 15.000000 0.850000 2.400000
v 15.000000 0.850000 -1.400000
v 15.000000 0.350000 -1.400000
v -1.600000 -1.050000 4.200000
v -1.600000 0.050000 4.200000
v -1.600000 0.050000 -3.200000
v -1.600000 -1.050000 -3.200000
v -15.000000 0.350000 2.400000
v -15.000000 0.850000 2.400000
v -15.000000 0.850000 -1.400000
v -15.000000 0.350000 -1.400000
v 0.800000 0.200000 -10.200000
v 0.800000 0.800000 -10.200000
v 0.800000 0.800000 -13.200000
v 0.800000 0.200000 -13.200000
v 6.200000 0.750000 -10.600000
v 6.200000 1.050000 -10.600000
v 6.200000 1.050000 -12.600000
v 6.200000 0.750000 -12.600000
v -0.800000 0.200000 -10.200000
v -0.800000 0.800000 -10.200000
v -0.800000 0.800000 -13.200000
v -0.800000 0.200000 -13.200000
v -6.200000 0.750000 -10.600000
v -6.200000 1.050000 -10.600000
v -6.200000 1.050000 -12.600000
v -6.200000 0.750000 -12.600000
v 0.000000 0.850000 -9.600000
v 0.000000 1.550000 -9.600000
v 0.000000 1.550000 -13.400000
v 0.000000 0.850000 -13.400000
v 0.000000 6.050000 -10.400000
v 0.000000 6.350000 -10.400000
v 0.000000 6.350000 -13.200000
v 0.000000 6.050000 -13.200000
v 0.500000 3.100000 -1.000000
v 1.000000 2.750000 -1.000000
v 1.000000 2.050000 -1.000000
v 0.500000 1.700000 -1.000000
v -0.500000 1.700000 -1.000000
v -1.000000 2.050000 -1.000000
v -1.000000 2.750000 -1.000000
v -0.500000 3.100000 -1.000000
v 0.650000 3.400000 1.600000
v 1.300000 2.950000 1.600000
v 1.300000 2.050000 1.600000
v 0.650000 1.600000 1.600000
v -0.650000 1.600000 1.600000
v -1.300000 2.050000 1.600000
v -1.300000 2.950000 1.600000
v -0.650000 3.400000 1.600000
v 0.500000 2.900000 4.400000
v 1.000000 2.600000 4.400000
v 1.000000 2.000000 4.400000
v 0.500000 1.700000 4.400000
v -0.500000 1.700000 4.400000
v -1.000000 2.000000 4.400000
v -1.000000 2.600000 4.400000
v -0.500000 2.900000 4.400000
v 1.000000 0.000000 13.000000
v 0.707107 0.707107 13.000000
v 0.000000 1.000000 13.000000
v -0.707107 0.707107 13.000000
v -1.000000 0.000000 13.000000
v -0.707107 -0.707107 13.000000
v -0.000000 -1.000000 13.000000
v 0.707107 -0.707107 13.000000
v 0.250000 0.000000 14.800000
v 0.176777 0.176777 14.800000
v 0.000000 0.250000 14.800000
v -0.176777 0.176777 14.800000
v -0.250000 0.000000 14.800000
v -0.176777 -0.176777 14.800000
v -0.000000 -0.250000 14.800000
v 0.176777 -0.176777 14.800000
vn 0.6752 0.6752 -0.2971
vn 0.9724 -0.0000 -0.2334
vn 0.6853 -0.6853 -0.2467
vn -0.0000 -0.9630 -0.2696
vn -0.6853 -0.6853 -0.2467
vn -0.9724 -0.0000 -0.2334
vn -0.6752 0.6752 -0.2971
vn -0.0000 0.9409 -0.3387
vn 0.7452 0.6576 -0.1105
vn 0.9929 -0.0000 -0.1191
vn 0.7423 -0.6550 -0.1415
vn -0.0000 -0.9903 -0.1386
vn -0.7423 -0.6550 -0.1415
vn -0.9929 -0.0000 -0.1191
vn -0.7452 0.6576 -0.1105
vn -0.0000 0.9950 -0.0995
vn 0.7384 0.6742 -0.0185
vn 0.9988 -0.0000 -0.0499
vn 0.7366 -0.6726 -0.0705
vn -0.0000 -0.9978 -0.0665
vn -0.7366 -0.6726 -0.0705
vn -0.9988 -0.0000 -0.0499
vn -0.7384 0.6742 -0.0185
vn -0.0000 1.0000 -0.0000
vn 0.7203 0.6914 0.0559
vn 0.9992 -0.0000 0.0400
vn 0.7203 -0.6914 0.0559
vn -0.0000 -0.9982 0.0599
vn -0.7203 -0.6914 0.0559
vn -0.9992 -0.0000 0.0400
vn -0.7203 0.6914 0.0559
vn -0.0000 0.9982 0.0599
vn 0.7022 0.7022 0.1170
vn 0.9939 -0.0000 0.1104
vn 0.7022 -0.7022 0.1170
vn -0.0000 -0.9939 0.1104
vn -0.7022 -0.7022 0.1170
vn -0.9939 -0.0000 0.1104
vn -0.7022 0.7022 0.1170
vn -0.0000 0.9939 0.1104
vn 0.6853 0.6853 0.2467
vn 0.9724 -0.0000 0.2334
vn 0.6853 -0.6853 0.2467
vn -0.0000 -0.9724 0.2334
vn -0.6853 -0.6853 0.2467
vn -0.9724 -0.0000 0.2334
vn -0.6853 0.6853 0.2467
vn -0.0000 0.9724 0.2334
vn 0.6509 0.6509 0.3906
vn 0.9285 -0.0000 0.3714
vn 0.6509 -0.6509 0.3906
vn -0.0000 -0.9285 0.3714
vn -0.6509 -0.6509 0.3906
vn -0.9285 -0.0000 0.3714
vn -0.6509 0.6509 0.3906
vn -0.0000 0.9285 0.3714
vn -0.0000 -0.0000 -1.0000
vn -0.0000 -0.0000 1.0000
vn -1.0000 -0.0000 -0.0000
vn 1.0000 -0.0000 -0.0000
vn 0.1331 -0.0000 0.9911
vn 0.1331 -0.0000 -0.9911
vn -0.0596 0.9982 -0.0000
vn 0.1039 -0.9946 -0.0000
vn -0.1331 -0.0000 0.9911
vn -0.1331 -0.0000 -0.9911
vn 0.0596 0.9982 -0.0000
vn -0.1039 -0.9946 -0.0000
vn 0.0739 -0.0000 0.9973
vn 0.1104 -0.0000 -0.9939
vn -0.0462 0.9989 -0.0000
vn 0.1013 -0.9949 -0.0000
vn -0.0739 -0.0000 0.9973
vn -0.1104 -0.0000 -0.9939
vn 0.0462 0.9989 -0.0000
vn -0.1013 -0.9949 -0.0000
vn 0.5688 0.8126 -0.1266
vn 0.9934 -0.0000 -0.1146
vn 0.5723 -0.8175 -0.0645
vn -0.0000 -0.9993 -0.0384
vn -0.5723 -0.8175 -0.0645
vn -0.9934 -0.0000 -0.1146
vn -0.5688 0.8126 -0.1266
vn -0.0000 0.9934 -0.1146
vn 0.5605 0.8096 0.1746
vn 0.9943 -0.0000 0.1065
vn 0.5686 -0.8213 0.0463
vn -0.0000 -0.9994 0.0357
vn -0.5686 -0.8213 0.0463
vn -0.9943 -0.0000 0.1065
vn -0.5605 0.8096 0.1746
vn -0.0000 0.9844 0.1758
vn 0.8622 0.3571 0.3593
vn 0.3571 0.8622 0.3593
vn -0.3571 0.8622 0.3593
vn -0.8622 0.3571 0.3593
vn -0.8622 -0.3571 0.3593
vn -0.3571 -0.8622 0.3593
vn 0.3571 -0.8622 0.3593
vn 0.8622 -0.3571 0.3593
vn 0.7125 0.6286 -0.3118
vn 0.7230 -0.6379 -0.2654
vn -0.7230 -0.6379 -0.2654
vn -0.7125 0.6286 -0.3118
vn 0.7336 0.6698 -0.1148
vn 0.7315 -0.6679 -0.1374
vn -0.7315 -0.6679 -0.1374
vn -0.7336 0.6698 -0.1148
vn 0.7212 0.6923 -0.0245
vn 0.7199 -0.6911 -0.0641
vn -0.7199 -0.6911 -0.0641
vn -0.7212 0.6923 -0.0245
vn 0.7062 0.7062 0.0494
vn 0.7062 -0.7062 0.0494
vn -0.7062 -0.7062 0.0494
vn -0.7062 0.7062 0.0494
vn 0.5645 0.8154 -0.1279
vn 0.5680 -0.8204 -0.0655
vn -0.5680 -0.8204 -0.0655
vn -0.5645 0.8154 -0.1279
vn 0.5078 0.8464 0.1602
vn 0.5136 -0.8560 0.0581
vn -0.5136 -0.8560 0.0581
vn -0.5078 0.8464 0.1602
vt 0.205078 0.086914
vt 0.217014 0.287109
vt 0.097656 0.086914
vt 0.325138 0.086914
vt 0.097656 0.287109
vt 0.154527 0.086914
vt 0.335853 0.287109
vt 0.293818 0.086914
vt 0.419922 0.086914
vt 0.419922 0.287109
vt 0.162109 0.086914
vt 0.355469 0.086914
vt 0.300564 0.086914
vt 0.153702 0.086914
vt 0.391899 0.086914
vt 0.336757 0.287109
vt 0.243196 0.086914
vt 0.143694 0.086914
vt 0.373884 0.086914
vt 0.123438 0.086914
vt 0.407527 0.287109
vt 0.134841 0.086914
vt 0.357548 0.287109
vt 0.180822 0.086914
vt 0.117798 0.086914
vt 0.399780 0.086914
vt 0.350865 0.287109
vt 0.132185 0.086914
vt 0.400586 0.287109
vt 0.385393 0.086914
vt 0.166713 0.287109
vt 0.111084 0.287109
vt 0.116992 0.287109
vt 0.406494 0.287109
vt 0.300564 0.287109
vt 0.157335 0.086914
vt 0.134277 0.287109
vt 0.360243 0.086914
vt 0.383301 0.287109
vt 0.251783 0.287109
vt 0.181726 0.086914
vt 0.363051 0.287109
vt 0.335853 0.086914
vt 0.265795 0.287109
vt 0.154527 0.287109
vt 0.192440 0.287109
vt 0.211397 0.086914
vt 0.332031 0.287109
vt 0.306181 0.086914
vt 0.325138 0.287109
vt 0.185547 0.287109
vt 0.419922 0.136963
vt 0.178223 0.086914
vt 0.097656 0.237061
vt 0.097656 0.136963
vt 0.339355 0.086914
vt 0.419922 0.237061
vt 0.419922 0.234426
vt 0.097656 0.202817
vt 0.419922 0.238413
vt 0.097656 0.234426
vt 0.419922 0.202817
vt 0.097656 0.135610
vt 0.097656 0.238413
vt 0.263672 0.086914
vt 0.263672 0.287109
vt 0.419922 0.216452
vt 0.263672 0.228228
vt 0.419922 0.126953
vt 0.419922 0.260417
vt 0.263672 0.216452
vt 0.419922 0.228228
vt 0.263672 0.126953
vt 0.263672 0.260417
vt 0.283558 0.287109
vt 0.411399 0.086914
vt 0.411399 0.287109
vt 0.283558 0.086914
vt 0.419922 0.244963
vt 0.098877 0.584961
vt 0.124512 0.524414
vt 0.087891 0.524414
vt 0.133464 0.524414
vt 0.087891 0.584961
vt 0.146484 0.584961
vt 0.094651 0.524414
vt 0.139724 0.524414
vt 0.135498 0.584961
vt 0.109863 0.524414
vt 0.146484 0.524414
vt 0.098877 0.524414
vt 0.124897 0.584961
vt 0.090975 0.524414
vt 0.124512 0.584961
vt 0.139724 0.584961
vt 0.135498 0.524414
vt 0.109863 0.584961
vt 0.094651 0.584961
vt 0.146484 0.539551
vt 0.102539 0.524414
vt 0.087891 0.569824
vt 0.087891 0.539551
vt 0.131836 0.524414
vt 0.146484 0.569824
vt 0.556641 0.345703
vt 0.498047 0.404297
vt 0.498047 0.345703
vt 0.512695 0.404297
vt 0.556641 0.404297
vt 0.541992 0.404297
vt 0.498047 0.375000
vt 0.527344 0.404297
vt 0.556641 0.375000
vt 0.506628 0.395716
vt 0.506628 0.354284
vt 0.548060 0.354284
vt 0.145399 0.287109
vt 0.178223 0.287109
vt 0.339355 0.287109
vt 0.419922 0.135610
vt 0.419922 0.097451
vt 0.102539 0.584961
vt 0.131836 0.584961
vt 0.527344 0.345703
vt 0.548060 0.395716
s 0
usemtl plane_falcon
f 1/1/1 10/2/1 2/3/1
f 2/4/2 11/5/2 3/6/2
f 11/7/3 4/8/3 3/9/3
f 12/10/4 5/11/4 4/12/4
f 5/8/5 14/7/5 6/9/5
f 14/5/6 7/4/6 6/6/6
f 15/2/7 8/1/7 7/3/7
f 16/5/8 1/12/8 8/11/8
f 17/10/9 10/3/9 9/13/9
f 18/10/10 11/14/10 10/15/10
f 19/16/11 12/17/11 11/9/11
f 20/10/12 13/18/12 12/19/12
f 13/17/13 22/16/13 14/9/13
f 14/14/14 23/10/14 15/15/14
f 15/3/15 24/10/15 16/13/15
f 24/5/16 9/19/16 16/18/16
f 25/10/17 18/20/17 17/9/17
f 26/21/18 19/22/18 18/9/18
f 27/23/19 20/24/19 19/9/19
f 28/10/20 21/25/20 20/26/20
f 21/24/21 30/23/21 22/9/21
f 22/22/22 31/21/22 23/9/22
f 23/20/23 32/10/23 24/9/23
f 32/5/24 17/26/24 24/25/24
f 33/27/25 26/28/25 25/9/25
f 34/29/26 27/3/26 26/9/26
f 27/30/27 36/31/27 28/3/27
f 28/9/28 37/32/28 29/3/28
f 37/31/29 30/30/29 29/3/29
f 38/33/30 31/9/30 30/3/30
f 31/28/31 40/27/31 32/9/31
f 32/3/32 33/34/32 25/9/32
f 41/35/33 34/36/33 33/9/33
f 34/9/34 43/37/34 35/3/34
f 43/10/35 36/3/35 35/38/35
f 36/9/36 45/37/36 37/3/36
f 45/2/37 38/38/37 37/3/37
f 38/3/38 47/39/38 39/9/38
f 47/5/39 40/9/39 39/36/39
f 40/3/40 41/39/40 33/9/40
f 49/40/41 42/41/41 41/9/41
f 50/42/42 43/3/42 42/9/42
f 51/10/43 44/3/43 43/43/43
f 52/42/44 45/3/44 44/9/44
f 53/44/45 46/43/45 45/3/45
f 54/45/46 47/9/46 46/3/46
f 55/5/47 48/9/47 47/41/47
f 56/45/48 41/9/48 48/3/48
f 57/46/49 50/47/49 49/9/49
f 58/48/50 51/3/50 50/9/50
f 59/10/51 52/3/51 51/49/51
f 60/48/52 53/3/52 52/9/52
f 61/50/53 54/49/53 53/3/53
f 62/51/54 55/9/54 54/3/54
f 63/5/55 56/9/55 55/47/55
f 64/51/56 49/9/56 56/3/56
f 3/52/57 5/53/57 7/54/57
f 62/55/58 60/56/58 58/57/58
f 66/10/59 68/3/59 65/5/59
f 72/3/60 70/10/60 69/5/60
f 69/58/61 66/59/61 65/3/61
f 67/59/62 72/58/62 68/3/62
f 70/60/63 67/3/63 66/5/63
f 68/3/64 69/60/64 65/5/64
f 73/5/60 75/9/60 74/10/60
f 77/5/59 79/9/59 80/3/59
f 77/61/65 74/62/65 78/5/65
f 75/62/66 80/61/66 79/5/66
f 74/10/67 79/63/67 78/64/67
f 73/10/68 80/63/68 76/9/68
f 82/10/59 84/65/59 81/66/59
f 88/65/60 86/10/60 85/66/60
f 85/67/69 82/68/69 81/65/69
f 83/68/70 88/67/70 84/65/70
f 82/66/71 87/69/71 83/65/71
f 81/66/72 88/69/72 85/70/72
f 89/66/60 91/9/60 90/10/60
f 93/66/59 95/9/59 96/65/59
f 93/71/73 90/72/73 94/66/73
f 91/72/74 96/71/74 95/66/74
f 90/10/75 95/73/75 94/74/75
f 89/10/76 96/73/76 92/9/76
f 100/65/60 98/10/60 97/66/60
f 102/10/59 104/65/59 101/66/59
f 98/75/59 101/76/59 97/66/59
f 104/77/59 99/78/59 100/65/59
f 99/65/60 102/79/60 98/66/60
f 101/79/59 100/65/59 97/66/59
f 113/80/77 106/81/77 105/82/77
f 106/83/78 115/84/78 107/82/78
f 107/81/79 116/80/79 108/82/79
f 116/85/80 109/86/80 108/87/80
f 117/88/81 110/89/81 109/90/81
f 118/84/82 111/83/82 110/82/82
f 111/89/83 120/88/83 112/90/83
f 120/84/84 105/87/84 112/86/84
f 121/84/85 114/90/85 113/91/85
f 122/92/86 115/93/86 114/90/86
f 123/94/87 116/91/87 115/90/87
f 124/95/88 117/82/88 116/90/88
f 117/96/89 126/97/89 118/82/89
f 118/93/90 127/92/90 119/90/90
f 119/82/91 128/85/91 120/96/91
f 128/98/92 113/90/92 120/82/92
f 107/99/57 109/100/57 111/101/57
f 126/102/58 124/103/58 122/104/58
f 130/105/93 137/106/93 129/107/93
f 131/107/94 138/108/94 130/105/94
f 132/107/95 139/109/95 131/105/95
f 133/107/96 140/108/96 132/105/96
f 134/107/97 141/109/97 133/105/97
f 135/105/98 142/110/98 134/107/98
f 136/105/99 143/106/99 135/107/99
f 129/105/100 144/110/100 136/107/100
f 133/111/57 131/112/57 129/113/57
f 140/114/58 142/115/58 144/116/58
f 1/1/101 9/10/101 10/2/101
f 2/4/2 10/10/2 11/5/2
f 11/7/102 12/5/102 4/8/102
f 12/10/4 13/5/4 5/11/4
f 5/8/103 13/5/103 14/7/103
f 14/5/6 15/10/6 7/4/6
f 15/2/104 16/10/104 8/1/104
f 16/5/8 9/10/8 1/12/8
f 17/10/105 18/117/105 10/3/105
f 18/10/10 19/5/10 11/14/10
f 19/16/106 20/5/106 12/17/106
f 20/10/12 21/5/12 13/18/12
f 13/17/107 21/5/107 22/16/107
f 14/14/14 22/5/14 23/10/14
f 15/3/108 23/117/108 24/10/108
f 24/5/16 17/10/16 9/19/16
f 25/10/109 26/5/109 18/20/109
f 26/21/18 27/5/18 19/22/18
f 27/23/110 28/5/110 20/24/110
f 28/10/20 29/5/20 21/25/20
f 21/24/111 29/5/111 30/23/111
f 22/22/22 30/5/22 31/21/22
f 23/20/112 31/5/112 32/10/112
f 32/5/24 25/10/24 17/26/24
f 33/27/113 34/5/113 26/28/113
f 34/29/26 35/33/26 27/3/26
f 27/30/114 35/10/114 36/31/114
f 28/9/28 36/34/28 37/32/28
f 37/31/115 38/10/115 30/30/115
f 38/33/30 39/29/30 31/9/30
f 31/28/116 39/5/116 40/27/116
f 32/3/32 40/32/32 33/34/32
f 41/35/33 42/5/33 34/36/33
f 34/9/34 42/39/34 43/37/34
f 43/10/35 44/2/35 36/3/35
f 36/9/36 44/39/36 45/37/36
f 45/2/37 46/10/37 38/38/37
f 38/3/38 46/37/38 47/39/38
f 47/5/39 48/35/39 40/9/39
f 40/3/40 48/37/40 41/39/40
f 49/40/41 50/5/41 42/41/41
f 50/42/42 51/45/42 43/3/42
f 51/10/43 52/44/43 44/3/43
f 52/42/44 53/45/44 45/3/44
f 53/44/45 54/10/45 46/43/45
f 54/45/46 55/42/46 47/9/46
f 55/5/47 56/40/47 48/9/47
f 56/45/48 49/42/48 41/9/48
f 57/46/49 58/5/49 50/47/49
f 58/48/50 59/51/50 51/3/50
f 59/10/51 60/50/51 52/3/51
f 60/48/52 61/51/52 53/3/52
f 61/50/53 62/10/53 54/49/53
f 62/51/54 63/48/54 55/9/54
f 63/5/55 64/46/55 56/9/55
f 64/51/56 57/48/56 49/9/56
f 7/54/57 8/118/57 1/119/57
f 1/119/57 2/57/57 3/52/57
f 3/52/57 4/56/57 5/53/57
f 5/53/57 6/55/57 7/54/57
f 7/54/57 1/119/57 3/52/57
f 58/57/58 57/119/58 64/118/58
f 64/118/58 63/54/58 62/55/58
f 62/55/58 61/53/58 60/56/58
f 60/56/58 59/52/58 58/57/58
f 58/57/58 64/118/58 62/55/58
f 66/10/59 67/9/59 68/3/59
f 72/3/60 71/9/60 70/10/60
f 69/58/61 70/10/61 66/59/61
f 67/59/62 71/10/62 72/58/62
f 70/60/63 71/120/63 67/3/63
f 68/3/64 72/120/64 69/60/64
f 73/5/60 76/3/60 75/9/60
f 77/5/59 78/10/59 79/9/59
f 77/61/65 73/9/65 74/62/65
f 75/62/66 76/9/66 80/61/66
f 74/10/67 75/9/67 79/63/67
f 73/10/68 77/64/68 80/63/68
f 82/10/59 83/9/59 84/65/59
f 88/65/60 87/9/60 86/10/60
f 85/67/69 86/10/69 82/68/69
f 83/68/70 87/10/70 88/67/70
f 82/66/71 86/70/71 87/69/71
f 81/66/72 84/65/72 88/69/72
f 89/66/60 92/65/60 91/9/60
f 93/66/59 94/10/59 95/9/59
f 93/71/73 89/9/73 90/72/73
f 91/72/74 92/9/74 96/71/74
f 90/10/75 91/9/75 95/73/75
f 89/10/76 93/74/76 96/73/76
f 100/65/60 99/9/60 98/10/60
f 102/10/59 103/9/59 104/65/59
f 98/75/59 102/9/59 101/76/59
f 104/77/59 103/10/59 99/78/59
f 99/65/60 103/121/60 102/79/60
f 101/79/59 104/121/59 100/65/59
f 113/80/117 114/85/117 106/81/117
f 106/83/78 114/85/78 115/84/78
f 107/81/118 115/85/118 116/80/118
f 116/85/80 117/84/80 109/86/80
f 117/88/119 118/84/119 110/89/119
f 118/84/82 119/85/82 111/83/82
f 111/89/120 119/84/120 120/88/120
f 120/84/84 113/85/84 105/87/84
f 121/84/121 122/94/121 114/90/121
f 122/92/86 123/84/86 115/93/86
f 123/94/122 124/84/122 116/91/122
f 124/95/88 125/98/88 117/82/88
f 117/96/123 125/85/123 126/97/123
f 118/93/90 126/84/90 127/92/90
f 119/82/124 127/97/124 128/85/124
f 128/98/92 121/95/92 113/90/92
f 111/101/57 112/122/57 105/123/57
f 105/123/57 106/104/57 107/99/57
f 107/99/57 108/103/57 109/100/57
f 109/100/57 110/102/57 111/101/57
f 111/101/57 105/123/57 107/99/57
f 122/104/58 121/123/58 128/122/58
f 128/122/58 127/101/58 126/102/58
f 126/102/58 125/100/58 124/103/58
f 124/103/58 123/99/58 122/104/58
f 122/104/58 128/122/58 126/102/58
f 130/105/93 138/108/93 137/106/93
f 131/107/94 139/106/94 138/108/94
f 132/107/95 140/110/95 139/109/95
f 133/107/96 141/106/96 140/108/96
f 134/107/97 142/110/97 141/109/97
f 135/105/98 143/109/98 142/110/98
f 136/105/99 144/108/99 143/106/99
f 129/105/100 137/109/100 144/110/100
f 129/113/57 136/116/57 135/124/57
f 135/124/57 134/115/57 133/111/57
f 133/111/57 132/114/57 131/112/57
f 131/112/57 130/125/57 129/113/57
f 129/113/57 135/124/57 133/111/57
f 144/116/58 137/113/58 138/125/58
f 138/125/58 139/112/58 140/114/58
f 140/114/58 141/111/58 142/115/58
f 142/115/58 143/124/58 144/116/58
f 144/116/58 138/125/58 140/114/58
