# Blender 4.4.1
# www.blender.org
mtllib rocket.mtl
o rocket
v 0.210000 0.420000 -3.400000
v 0.420000 0.210000 -3.400000
v 0.420000 -0.210000 -3.400000
v 0.210000 -0.420000 -3.400000
v -0.210000 -0.420000 -3.400000
v -0.420000 -0.210000 -3.400000
v -0.420000 0.210000 -3.400000
v -0.210000 0.420000 -3.400000
v 0.275000 0.550000 -2.900000
v 0.550000 0.275000 -2.900000
v 0.550000 -0.275000 -2.900000
v 0.275000 -0.550000 -2.900000
v -0.275000 -0.550000 -2.900000
v -0.550000 -0.275000 -2.900000
v -0.550000 0.275000 -2.900000
v -0.275000 0.550000 -2.900000
v 0.275000 0.550000 1.900000
v 0.550000 0.275000 1.900000
v 0.550000 -0.275000 1.900000
v 0.275000 -0.550000 1.900000
v -0.275000 -0.550000 1.900000
v -0.550000 -0.275000 1.900000
v -0.550000 0.275000 1.900000
v -0.275000 0.550000 1.900000
v 0.220000 0.440000 2.700000
v 0.440000 0.220000 2.700000
v 0.440000 -0.220000 2.700000
v 0.220000 -0.440000 2.700000
v -0.220000 -0.440000 2.700000
v -0.440000 -0.220000 2.700000
v -0.440000 0.220000 2.700000
v -0.220000 0.440000 2.700000
v 0.050000 0.100000 3.500000
v 0.100000 0.050000 3.500000
v 0.100000 -0.050000 3.500000
v 0.050000 -0.100000 3.500000
v -0.050000 -0.100000 3.500000
v -0.100000 -0.050000 3.500000
v -0.100000 0.050000 3.500000
v -0.050000 0.100000 3.500000
v 0.290000 0.580000 1.550000
v 0.580000 0.290000 1.550000
v 0.580000 -0.290000 1.550000
v 0.290000 -0.580000 1.550000
v -0.290000 -0.580000 1.550000
v -0.580000 -0.290000 1.550000
v -0.580000 0.290000 1.550000
v -0.290000 0.580000 1.550000
v 0.290000 0.580000 2.150000
v 0.580000 0.290000 2.150000
v 0.580000 -0.290000 2.150000
v 0.290000 -0.580000 2.150000
v -0.290000 -0.580000 2.150000
v -0.580000 -0.290000 2.150000
v -0.580000 0.290000 2.150000
v -0.290000 0.580000 2.150000
v 0.430000 -0.060000 -3.430000
v 1.670000 -0.060000 -3.430000
v 1.670000 0.060000 -3.430000
v 0.430000 0.060000 -3.430000
v 0.430000 -0.060000 -2.070000
v 1.670000 -0.060000 -2.070000
v 1.670000 0.060000 -2.070000
v 0.430000 0.060000 -2.070000
v -0.430000 -0.060000 -3.430000
v -1.670000 -0.060000 -3.430000
v -1.670000 0.060000 -3.430000
v -0.430000 0.060000 -3.430000
v -0.430000 -0.060000 -2.070000
v -1.670000 -0.060000 -2.070000
v -1.670000 0.060000 -2.070000
v -0.430000 0.060000 -2.070000
v -0.060000 0.430000 -3.430000
v 0.060000 0.430000 -3.430000
v 0.060000 1.670000 -3.430000
v -0.060000 1.670000 -3.430000
v -0.060000 0.430000 -2.070000
v 0.060000 0.430000 -2.070000
v 0.060000 1.670000 -2.070000
v -0.060000 1.670000 -2.070000
v -0.060000 -1.670000 -3.430000
v 0.060000 -1.670000 -3.430000
v 0.060000 -0.430000 -3.430000
v -0.060000 -0.430000 -3.430000
v -0.060000 -1.670000 -2.070000
v 0.060000 -1.670000 -2.070000
v 0.060000 -0.430000 -2.070000
v -0.060000 -0.430000 -2.070000
v 0.340000 0.000000 -3.880000
v 0.240416 0.240416 -3.880000
v 0.000000 0.340000 -3.880000
v -0.240416 0.240416 -3.880000
v -0.340000 0.000000 -3.880000
v -0.240416 -0.240416 -3.880000
v -0.000000 -0.340000 -3.880000
v 0.240416 -0.240416 -3.880000
v 0.425000 0.000000 -3.320000
v 0.300520 0.300520 -3.320000
v 0.000000 0.425000 -3.320000
v -0.300520 0.300520 -3.320000
v -0.425000 0.000000 -3.320000
v -0.300520 -0.300520 -3.320000
v -0.000000 -0.425000 -3.320000
v 0.300520 -0.300520 -3.320000
vn 0.6817 0.6817 -0.2658
vn 0.9678 -0.0000 -0.2516
vn 0.6817 -0.6817 -0.2658
vn -0.0000 -0.9678 -0.2516
vn -0.6817 -0.6817 -0.2658
vn -0.9678 -0.0000 -0.2516
vn -0.6817 0.6817 -0.2658
vn -0.0000 0.9678 -0.2516
vn 0.7071 0.7071 -0.0000
vn 1.0000 -0.0000 -0.0000
vn 0.7071 -0.7071 -0.0000
vn -0.0000 -1.0000 -0.0000
vn -0.7071 -0.7071 -0.0000
vn -1.0000 -0.0000 -0.0000
vn -0.7071 0.7071 -0.0000
vn -0.0000 1.0000 -0.0000
vn 0.6997 0.6997 0.1443
vn 0.9907 -0.0000 0.1362
vn 0.6997 -0.6997 0.1443
vn -0.0000 -0.9907 0.1362
vn -0.6997 -0.6997 0.1443
vn -0.9907 -0.0000 0.1362
vn -0.6997 0.6997 0.1443
vn -0.0000 0.9907 0.1362
vn 0.6446 0.6446 0.4110
vn 0.9203 -0.0000 0.3911
vn 0.6446 -0.6446 0.4110
vn -0.0000 -0.9203 0.3911
vn -0.6446 -0.6446 0.4110
vn -0.9203 -0.0000 0.3911
vn -0.6446 0.6446 0.4110
vn -0.0000 0.9203 0.3911
vn -0.0000 -0.0000 -1.0000
vn -0.0000 -0.0000 1.0000
vn 0.9149 0.3790 -0.1389
vn 0.3790 0.9149 -0.1389
vn -0.3790 0.9149 -0.1389
vn -0.9149 0.3790 -0.1389
vn -0.9149 -0.3790 -0.1389
vn -0.3790 -0.9149 -0.1389
vn 0.3790 -0.9149 -0.1389
vn 0.9149 -0.3790 -0.1389
vt 0.556641 0.404297
vt 0.498047 0.345703
vt 0.534237 0.345703
vt 0.504972 0.345703
vt 0.549716 0.345703
vt 0.545439 0.404297
vt 0.520450 0.345703
vt 0.556641 0.345703
vt 0.498047 0.404297
vt 0.509249 0.404297
vt 0.537109 0.404297
vt 0.507812 0.345703
vt 0.550781 0.404297
vt 0.546875 0.345703
vt 0.517578 0.404297
vt 0.503906 0.404297
vt 0.505559 0.404297
vt 0.523588 0.345703
vt 0.534002 0.404297
vt 0.531100 0.345703
vt 0.549129 0.404297
vt 0.520685 0.404297
vt 0.556641 0.360352
vt 0.512695 0.345703
vt 0.498047 0.389648
vt 0.498047 0.360352
vt 0.541992 0.345703
vt 0.556641 0.389648
vt 0.146484 0.584961
vt 0.087891 0.524414
vt 0.146484 0.524414
vt 0.087891 0.584961
vt 0.146484 0.539551
vt 0.102539 0.524414
vt 0.087891 0.569824
vt 0.087891 0.539551
vt 0.131836 0.524414
vt 0.146484 0.569824
vt 0.097656 0.287109
vt 0.419922 0.086914
vt 0.097656 0.086914
vt 0.419922 0.287109
vt 0.134766 0.524414
vt 0.099609 0.524414
vt 0.087891 0.554688
vt 0.117188 0.584961
vt 0.146484 0.554688
vt 0.096471 0.576094
vt 0.096471 0.533281
vt 0.137904 0.533281
vt 0.512695 0.404297
vt 0.541992 0.404297
vt 0.102539 0.584961
vt 0.131836 0.584961
vt 0.117188 0.524414
vt 0.137904 0.576094
s 0
usemtl rocket
f 9/1/1 2/2/1 1/3/1
f 10/1/2 3/4/2 2/5/2
f 11/6/3 4/7/3 3/8/3
f 12/1/4 5/4/4 4/5/4
f 13/9/5 6/8/5 5/7/5
f 14/9/6 7/5/6 6/4/6
f 15/10/7 8/3/7 7/2/7
f 16/9/8 1/5/8 8/4/8
f 17/1/9 10/2/9 9/8/9
f 18/1/10 11/2/10 10/8/10
f 19/1/11 12/2/11 11/8/11
f 20/1/12 13/2/12 12/8/12
f 21/9/13 14/8/13 13/2/13
f 22/9/14 15/8/14 14/2/14
f 23/9/15 16/8/15 15/2/15
f 24/9/16 9/8/16 16/2/16
f 25/11/17 18/12/17 17/8/17
f 26/13/18 19/2/18 18/8/18
f 27/1/19 20/2/19 19/14/19
f 28/13/20 21/2/20 20/8/20
f 29/15/21 22/14/21 21/2/21
f 30/16/22 23/8/22 22/2/22
f 31/9/23 24/8/23 23/12/23
f 32/16/24 17/8/24 24/2/24
f 33/17/25 26/18/25 25/8/25
f 34/19/26 27/2/26 26/8/26
f 35/1/27 28/2/27 27/20/27
f 36/19/28 29/2/28 28/8/28
f 37/21/29 30/20/29 29/2/29
f 38/22/30 31/8/30 30/2/30
f 39/9/31 32/8/31 31/18/31
f 40/22/32 25/8/32 32/2/32
f 3/23/33 5/24/33 7/25/33
f 38/26/34 36/27/34 34/28/34
f 49/29/9 42/30/9 41/31/9
f 50/29/10 43/30/10 42/31/10
f 51/29/11 44/30/11 43/31/11
f 52/29/12 45/30/12 44/31/12
f 53/32/13 46/31/13 45/30/13
f 54/32/14 47/31/14 46/30/14
f 55/32/15 48/31/15 47/30/15
f 56/32/16 41/31/16 48/30/16
f 43/33/33 45/34/33 47/35/33
f 54/36/34 52/37/34 50/38/34
f 60/39/33 58/40/33 57/41/33
f 62/40/34 64/39/34 61/41/34
f 58/40/12 61/39/12 57/41/12
f 59/40/10 62/39/10 58/41/10
f 60/41/16 63/42/16 59/40/16
f 57/41/14 64/42/14 60/40/14
f 65/40/33 67/39/33 68/42/33
f 69/40/34 71/39/34 70/41/34
f 65/40/12 70/39/12 66/41/12
f 66/41/14 71/42/14 67/40/14
f 67/41/16 72/42/16 68/40/16
f 68/40/10 69/39/10 65/41/10
f 76/39/33 74/40/33 73/41/33
f 78/40/34 80/39/34 77/41/34
f 74/40/12 77/39/12 73/41/12
f 75/40/10 78/39/10 74/41/10
f 76/41/16 79/42/16 75/40/16
f 73/41/14 80/42/14 76/40/14
f 84/39/33 82/40/33 81/41/33
f 86/40/34 88/39/34 85/41/34
f 82/40/12 85/39/12 81/41/12
f 83/40/10 86/39/10 82/41/10
f 84/41/16 87/42/16 83/40/16
f 81/41/14 88/42/14 84/40/14
f 90/43/35 97/32/35 89/30/35
f 91/30/36 98/29/36 90/43/36
f 92/44/37 99/29/37 91/31/37
f 93/30/38 100/29/38 92/43/38
f 94/44/39 101/29/39 93/31/39
f 95/31/40 102/32/40 94/44/40
f 96/43/41 103/32/41 95/30/41
f 89/31/42 104/32/42 96/44/42
f 93/45/33 91/46/33 89/47/33
f 100/48/34 102/49/34 104/50/34
f 9/1/1 10/10/1 2/2/1
f 10/1/2 11/9/2 3/4/2
f 11/6/3 12/9/3 4/7/3
f 12/1/4 13/9/4 5/4/4
f 13/9/5 14/6/5 6/8/5
f 14/9/6 15/1/6 7/5/6
f 15/10/7 16/1/7 8/3/7
f 16/9/8 9/1/8 1/5/8
f 17/1/9 18/9/9 10/2/9
f 18/1/10 19/9/10 11/2/10
f 19/1/11 20/9/11 12/2/11
f 20/1/12 21/9/12 13/2/12
f 21/9/13 22/1/13 14/8/13
f 22/9/14 23/1/14 15/8/14
f 23/9/15 24/1/15 16/8/15
f 24/9/16 17/1/16 9/8/16
f 25/11/17 26/9/17 18/12/17
f 26/13/18 27/16/18 19/2/18
f 27/1/19 28/15/19 20/2/19
f 28/13/20 29/16/20 21/2/20
f 29/15/21 30/1/21 22/14/21
f 30/16/22 31/13/22 23/8/22
f 31/9/23 32/11/23 24/8/23
f 32/16/24 25/13/24 17/8/24
f 33/17/25 34/9/25 26/18/25
f 34/19/26 35/22/26 27/2/26
f 35/1/27 36/21/27 28/2/27
f 36/19/28 37/22/28 29/2/28
f 37/21/29 38/1/29 30/20/29
f 38/22/30 39/19/30 31/8/30
f 39/9/31 40/17/31 32/8/31
f 40/22/32 33/19/32 25/8/32
f 7/25/33 8/51/33 1/52/33
f 1/52/33 2/28/33 3/23/33
f 3/23/33 4/27/33 5/24/33
f 5/24/33 6/26/33 7/25/33
f 7/25/33 1/52/33 3/23/33
f 34/28/34 33/52/34 40/51/34
f 40/51/34 39/25/34 38/26/34
f 38/26/34 37/24/34 36/27/34
f 36/27/34 35/23/34 34/28/34
f 34/28/34 40/51/34 38/26/34
f 49/29/9 50/32/9 42/30/9
f 50/29/10 51/32/10 43/30/10
f 51/29/11 52/32/11 44/30/11
f 52/29/12 53/32/12 45/30/12
f 53/32/13 54/29/13 46/31/13
f 54/32/14 55/29/14 47/31/14
f 55/32/15 56/29/15 48/31/15
f 56/32/16 49/29/16 41/31/16
f 47/35/33 48/53/33 41/54/33
f 41/54/33 42/38/33 43/33/33
f 43/33/33 44/37/33 45/34/33
f 45/34/33 46/36/33 47/35/33
f 47/35/33 41/54/33 43/33/33
f 50/38/34 49/54/34 56/53/34
f 56/53/34 55/35/34 54/36/34
f 54/36/34 53/34/34 52/37/34
f 52/37/34 51/33/34 50/38/34
f 50/38/34 56/53/34 54/36/34
f 60/39/33 59/42/33 58/40/33
f 62/40/34 63/42/34 64/39/34
f 58/40/12 62/42/12 61/39/12
f 59/40/10 63/42/10 62/39/10
f 60/41/16 64/39/16 63/42/16
f 57/41/14 61/39/14 64/42/14
f 65/40/33 66/41/33 67/39/33
f 69/40/34 72/42/34 71/39/34
f 65/40/12 69/42/12 70/39/12
f 66/41/14 70/39/14 71/42/14
f 67/41/16 71/39/16 72/42/16
f 68/40/10 72/42/10 69/39/10
f 76/39/33 75/42/33 74/40/33
f 78/40/34 79/42/34 80/39/34
f 74/40/12 78/42/12 77/39/12
f 75/40/10 79/42/10 78/39/10
f 76/41/16 80/39/16 79/42/16
f 73/41/14 77/39/14 80/42/14
f 84/39/33 83/42/33 82/40/33
f 86/40/34 87/42/34 88/39/34
f 82/40/12 86/42/12 85/39/12
f 83/40/10 87/42/10 86/39/10
f 84/41/16 88/39/16 87/42/16
f 81/41/14 85/39/14 88/42/14
f 90/43/35 98/29/35 97/32/35
f 91/30/36 99/32/36 98/29/36
f 92/44/37 100/32/37 99/29/37
f 93/30/38 101/32/38 100/29/38
f 94/44/39 102/32/39 101/29/39
f 95/31/40 103/29/40 102/32/40
f 96/43/41 104/29/41 103/32/41
f 89/31/42 97/29/42 104/32/42
f 89/47/33 96/50/33 95/55/33
f 95/55/33 94/49/33 93/45/33
f 93/45/33 92/48/33 91/46/33
f 91/46/33 90/56/33 89/47/33
f 89/47/33 95/55/33 93/45/33
f 104/50/34 97/47/34 98/56/34
f 98/56/34 99/46/34 100/48/34
f 100/48/34 101/45/34 102/49/34
f 102/49/34 103/55/34 104/50/34
f 104/50/34 98/56/34 100/48/34
