# Blender 4.4.1
# www.blender.org
mtllib warship_destroyer.mtl
o warship_destroyer
v 0.690000 -1.000000 -35.000000
v 1.380000 -2.500000 -35.000000
v 1.380000 -5.500000 -35.000000
v 0.690000 -7.000000 -35.000000
v -0.690000 -7.000000 -35.000000
v -1.380000 -5.500000 -35.000000
v -1.380000 -2.500000 -35.000000
v -0.690000 -1.000000 -35.000000
v 1.656000 -1.000000 -28.700001
v 3.312000 -2.500000 -28.700001
v 3.312000 -5.500000 -28.700001
v 1.656000 -7.000000 -28.700001
v -1.656000 -7.000000 -28.700001
v -3.312000 -5.500000 -28.700001
v -3.312000 -2.500000 -28.700001
v -1.656000 -1.000000 -28.700001
v 2.231000 -1.000000 -15.750000
v 4.462000 -2.500000 -15.750000
v 4.462000 -5.500000 -15.750000
v 2.231000 -7.000000 -15.750000
v -2.231000 -7.000000 -15.750000
v -4.462000 -5.500000 -15.750000
v -4.462000 -2.500000 -15.750000
v -2.231000 -1.000000 -15.750000
v 2.300000 -1.000000 0.000000
v 4.600000 -2.500000 0.000000
v 4.600000 -5.500000 0.000000
v 2.300000 -7.000000 0.000000
v -2.300000 -7.000000 0.000000
v -4.600000 -5.500000 0.000000
v -4.600000 -2.500000 0.000000
v -2.300000 -1.000000 0.000000
v 2.139000 -1.000000 15.750000
v 4.278000 -2.500000 15.750000
v 4.278000 -5.500000 15.750000
v 2.139000 -7.000000 15.750000
v -2.139000 -7.000000 15.750000
v -4.278000 -5.500000 15.750000
v -4.278000 -2.500000 15.750000
v -2.139000 -1.000000 15.750000
v 1.426000 -1.000000 27.299999
v 2.852000 -2.500000 27.299999
v 2.852000 -5.500000 27.299999
v 1.426000 -7.000000 27.299999
v -1.426000 -7.000000 27.299999
v -2.852000 -5.500000 27.299999
v -2.852000 -2.500000 27.299999
v -1.426000 -1.000000 27.299999
v 0.138000 -1.000000 35.000000
v 0.276000 -2.500000 35.000000
v 0.276000 -5.500000 35.000000
v 0.138000 -7.000000 35.000000
v -0.138000 -7.000000 35.000000
v -0.276000 -5.500000 35.000000
v -0.276000 -2.500000 35.000000
v -0.138000 -1.000000 35.000000
v 0.690000 2.000000 -35.000000
v 1.380000 1.250000 -35.000000
v 1.380000 -0.250000 -35.000000
v 0.690000 -1.000000 -35.000000
v -0.690000 -1.000000 -35.000000
v -1.380000 -0.250000 -35.000000
v -1.380000 1.250000 -35.000000
v -0.690000 2.000000 -35.000000
v 1.656000 2.000000 -28.700001
v 3.312000 1.250000 -28.700001
v 3.312000 -0.250000 -28.700001
v 1.656000 -1.000000 -28.700001
v -1.656000 -1.000000 -28.700001
v -3.312000 -0.250000 -28.700001
v -3.312000 1.250000 -28.700001
v -1.656000 2.000000 -28.700001
v 2.231000 2.000000 -15.750000
v 4.462000 1.250000 -15.750000
v 4.462000 -0.250000 -15.750000
v 2.231000 -1.000000 -15.750000
v -2.231000 -1.000000 -15.750000
v -4.462000 -0.250000 -15.750000
v -4.462000 1.250000 -15.750000
v -2.231000 2.000000 -15.750000
v 2.300000 2.000000 0.000000
v 4.600000 1.250000 0.000000
v 4.600000 -0.250000 0.000000
v 2.300000 -1.000000 0.000000
v -2.300000 -1.000000 0.000000
v -4.600000 -0.250000 0.000000
v -4.600000 1.250000 0.000000
v -2.300000 2.000000 0.000000
v 2.139000 2.000000 15.750000
v 4.278000 1.250000 15.750000
v 4.278000 -0.250000 15.750000
v 2.139000 -1.000000 15.750000
v -2.139000 -1.000000 15.750000
v -4.278000 -0.250000 15.750000
v -4.278000 1.250000 15.750000
v -2.139000 2.000000 15.750000
v 1.426000 2.000000 27.299999
v 2.852000 1.250000 27.299999
v 2.852000 -0.250000 27.299999
v 1.426000 -1.000000 27.299999
v -1.426000 -1.000000 27.299999
v -2.852000 -0.250000 27.299999
v -2.852000 1.250000 27.299999
v -1.426000 2.000000 27.299999
v 0.138000 2.000000 35.000000
v 0.276000 1.250000 35.000000
v 0.276000 -0.250000 35.000000
v 0.138000 -1.000000 35.000000
v -0.138000 -1.000000 35.000000
v -0.276000 -0.250000 35.000000
v -0.276000 1.250000 35.000000
v -0.138000 2.000000 35.000000
v -3.000000 2.000000 -0.500000
v 3.000000 2.000000 -0.500000
v 3.000000 6.400000 -0.500000
v -3.000000 6.400000 -0.500000
v -3.000000 2.000000 12.500000
v 3.000000 2.000000 12.500000
v 3.000000 6.400000 12.500000
v -3.000000 6.400000 12.500000
v -2.200000 5.600000 3.500000
v 2.200000 5.600000 3.500000
v 2.200000 8.400000 3.500000
v -2.200000 8.400000 3.500000
v -2.200000 5.600000 11.500000
v 2.200000 5.600000 11.500000
v 2.200000 8.400000 11.500000
v -2.200000 8.400000 11.500000
v -1.400000 7.800000 6.100000
v 1.400000 7.800000 6.100000
v 1.400000 10.200000 6.100000
v -1.400000 10.200000 6.100000
v -1.400000 7.800000 10.900000
v 1.400000 7.800000 10.900000
v 1.400000 10.200000 10.900000
v -1.400000 10.200000 10.900000
v -0.220000 9.800000 6.780000
v 0.220000 9.800000 6.780000
v 0.220000 16.200001 6.780000
v -0.220000 16.200001 6.780000
v -0.220000 9.800000 7.220000
v 0.220000 9.800000 7.220000
v 0.220000 16.200001 7.220000
v -0.220000 16.200001 7.220000
v 1.500000 2.000000 -3.000000
v 1.060660 2.000000 -1.939340
v 0.000000 2.000000 -1.500000
v -1.060660 2.000000 -1.939340
v -1.500000 2.000000 -3.000000
v -1.060660 2.000000 -4.060660
v -0.000000 2.000000 -4.500000
v 1.060660 2.000000 -4.060660
v 1.200000 8.800000 -3.000000
v 0.848528 8.800000 -2.151472
v 0.000000 8.800000 -1.800000
v -0.848528 8.800000 -2.151472
v -1.200000 8.800000 -3.000000
v -0.848528 8.800000 -3.848528
v -0.000000 8.800000 -4.200000
v 0.848528 8.800000 -3.848528
v -2.600000 2.000000 -19.000000
v 2.600000 2.000000 -19.000000
v 2.600000 5.200000 -19.000000
v -2.600000 5.200000 -19.000000
v -2.600000 2.000000 -7.000000
v 2.600000 2.000000 -7.000000
v 2.600000 5.200000 -7.000000
v -2.600000 5.200000 -7.000000
v -1.500000 2.000000 20.000000
v 1.500000 2.000000 20.000000
v 1.500000 3.400000 20.000000
v -1.500000 3.400000 20.000000
v -1.500000 2.000000 24.000000
v 1.500000 2.000000 24.000000
v 1.500000 3.400000 24.000000
v -1.500000 3.400000 24.000000
v -0.270000 3.200000 23.600000
v -0.410000 3.442487 23.600000
v -0.690000 3.442487 23.600000
v -0.830000 3.200000 23.600000
v -0.690000 2.957513 23.600000
v -0.410000 2.957513 23.600000
v -0.270000 3.200000 27.200001
v -0.410000 3.442487 27.200001
v -0.690000 3.442487 27.200001
v -0.830000 3.200000 27.200001
v -0.690000 2.957513 27.200001
v -0.410000 2.957513 27.200001
v 0.830000 3.200000 23.600000
v 0.690000 3.442487 23.600000
v 0.410000 3.442487 23.600000
v 0.270000 3.200000 23.600000
v 0.410000 2.957513 23.600000
v 0.690000 2.957513 23.600000
v 0.830000 3.200000 27.200001
v 0.690000 3.442487 27.200001
v 0.410000 3.442487 27.200001
v 0.270000 3.200000 27.200001
v 0.410000 2.957513 27.200001
v 0.690000 2.957513 27.200001
v -1.500000 2.000000 -26.000000
v 1.500000 2.000000 -26.000000
v 1.500000 3.400000 -26.000000
v -1.500000 3.400000 -26.000000
v -1.500000 2.000000 -22.000000
v 1.500000 2.000000 -22.000000
v 1.500000 3.400000 -22.000000
v -1.500000 3.400000 -22.000000
v -0.270000 3.200000 -29.200001
v -0.410000 3.442487 -29.200001
v -0.690000 3.442487 -29.200001
v -0.830000 3.200000 -29.200001
v -0.690000 2.957513 -29.200001
v -0.410000 2.957513 -29.200001
v -0.270000 3.200000 -25.600000
v -0.410000 3.442487 -25.600000
v -0.690000 3.442487 -25.600000
v -0.830000 3.200000 -25.600000
v -0.690000 2.957513 -25.600000
v -0.410000 2.957513 -25.600000
v 0.830000 3.200000 -29.200001
v 0.690000 3.442487 -29.200001
v 0.410000 3.442487 -29.200001
v 0.270000 3.200000 -29.200001
v 0.410000 2.957513 -29.200001
v 0.690000 2.957513 -29.200001
v 0.830000 3.200000 -25.600000
v 0.690000 3.442487 -25.600000
v 0.410000 3.442487 -25.600000
v 0.270000 3.200000 -25.600000
v 0.410000 2.957513 -25.600000
v 0.690000 2.957513 -25.600000
vn 0.8998 0.4139 -0.1380
vn 0.9561 -0.0000 -0.2932
vn 0.8998 -0.4139 -0.1380
vn -0.0000 -1.0000 -0.0000
vn -0.8998 -0.4139 -0.1380
vn -0.9561 -0.0000 -0.2932
vn -0.8998 0.4139 -0.1380
vn -0.0000 1.0000 -0.0000
vn 0.6710 0.7408 -0.0298
vn 0.9961 -0.0000 -0.0885
vn 0.6710 -0.7408 -0.0298
vn -0.6710 -0.7408 -0.0298
vn -0.9961 -0.0000 -0.0885
vn -0.6710 0.7408 -0.0298
vn 0.5580 0.8299 -0.0024
vn 1.0000 -0.0000 -0.0088
vn 0.5580 -0.8299 -0.0024
vn -0.5580 -0.8299 -0.0024
vn -1.0000 -0.0000 -0.0088
vn -0.5580 0.8299 -0.0024
vn 0.5462 0.8376 0.0112
vn 0.9998 -0.0000 0.0204
vn 0.5462 -0.8376 0.0112
vn -0.5462 -0.8376 0.0112
vn -0.9998 -0.0000 0.0204
vn -0.5462 0.8376 0.0112
vn 0.5727 0.8167 0.0707
vn 0.9925 -0.0000 0.1225
vn 0.5727 -0.8167 0.0707
vn -0.5727 -0.8167 0.0707
vn -0.9925 -0.0000 0.1225
vn -0.5727 0.8167 0.0707
vn 0.7043 0.6696 0.2356
vn 0.9483 -0.0000 0.3173
vn 0.7043 -0.6696 0.2356
vn -0.7043 -0.6696 0.2356
vn -0.9483 -0.0000 0.3173
vn -0.7043 0.6696 0.2356
vn -0.0000 -0.0000 -1.0000
vn -0.0000 -0.0000 1.0000
vn 0.7313 0.6728 -0.1121
vn 0.7313 -0.6728 -0.1121
vn -0.7313 -0.6728 -0.1121
vn -0.7313 0.6728 -0.1121
vn 0.4125 0.9108 -0.0183
vn 0.4125 -0.9108 -0.0183
vn -0.4125 -0.9108 -0.0183
vn -0.4125 0.9108 -0.0183
vn 0.3186 0.9479 -0.0014
vn 0.3186 -0.9479 -0.0014
vn -0.3186 -0.9479 -0.0014
vn -0.3186 0.9479 -0.0014
vn 0.3100 0.9507 0.0063
vn 0.3100 -0.9507 0.0063
vn -0.3100 -0.9507 0.0063
vn -0.3100 0.9507 0.0063
vn 0.3306 0.9429 0.0408
vn 0.3306 -0.9429 0.0408
vn -0.3306 -0.9429 0.0408
vn -0.3306 0.9429 0.0408
vn 0.4599 0.8745 0.1539
vn 0.4599 -0.8745 0.1539
vn -0.4599 -0.8745 0.1539
vn -0.4599 0.8745 0.1539
vn 1.0000 -0.0000 -0.0000
vn -1.0000 -0.0000 -0.0000
vn 0.9231 0.0407 0.3824
vn 0.3824 0.0407 0.9231
vn -0.3824 0.0407 0.9231
vn -0.9231 0.0407 0.3824
vn -0.9231 0.0407 -0.3824
vn -0.3824 0.0407 -0.9231
vn 0.3824 0.0407 -0.9231
vn 0.9231 0.0407 -0.3824
vn 0.8660 0.5000 -0.0000
vn -0.8660 0.5000 -0.0000
vn -0.8660 -0.5000 -0.0000
vn 0.8660 -0.5000 -0.0000
vn 0.6575 0.7259 -0.2016
vn 0.6575 -0.7259 -0.2016
vn -0.6575 -0.7259 -0.2016
vn -0.6575 0.7259 -0.2016
vn 0.5573 0.8289 -0.0495
vn 0.5573 -0.8289 -0.0495
vn -0.5573 -0.8289 -0.0495
vn -0.5573 0.8289 -0.0495
vn 0.5463 0.8376 -0.0048
vn 0.5463 -0.8376 -0.0048
vn -0.5463 -0.8376 -0.0048
vn -0.5463 0.8376 -0.0048
vn 0.5741 0.8187 0.0059
vn 0.5741 -0.8187 0.0059
vn -0.5741 -0.8187 0.0059
vn -0.5741 0.8187 0.0059
vn 0.7240 0.6883 0.0447
vn 0.7240 -0.6883 0.0447
vn -0.7240 -0.6883 0.0447
vn -0.7240 0.6883 0.0447
vn 0.9823 0.0904 0.1643
vn 0.9823 -0.0904 0.1643
vn -0.9823 -0.0904 0.1643
vn -0.9823 0.0904 0.1643
vn 0.4093 0.9037 -0.1255
vn 0.4093 -0.9037 -0.1255
vn -0.4093 -0.9037 -0.1255
vn -0.4093 0.9037 -0.1255
vn 0.3185 0.9475 -0.0283
vn 0.3185 -0.9475 -0.0283
vn -0.3185 -0.9475 -0.0283
vn -0.3185 0.9475 -0.0283
vn 0.3100 0.9507 -0.0027
vn 0.3100 -0.9507 -0.0027
vn -0.3100 -0.9507 -0.0027
vn -0.3100 0.9507 -0.0027
vn 0.3309 0.9437 0.0034
vn 0.3309 -0.9437 0.0034
vn -0.3309 -0.9437 0.0034
vn -0.3309 0.9437 0.0034
vn 0.4653 0.8847 0.0287
vn 0.4653 -0.8847 0.0287
vn -0.4653 -0.8847 0.0287
vn -0.4653 0.8847 0.0287
vn 0.9704 0.1786 0.1623
vn 0.9704 -0.1786 0.1623
vn -0.9704 -0.1786 0.1623
vn -0.9704 0.1786 0.1623
vt 0.646973 0.439453
vt 0.610352 0.073242
vt 0.646973 0.073242
vt 0.610352 0.439453
vt 0.621033 0.073242
vt 0.636292 0.073242
vt 0.617856 0.439453
vt 0.631964 0.073242
vt 0.642253 0.073242
vt 0.615071 0.073242
vt 0.639468 0.439453
vt 0.625360 0.073242
vt 0.611418 0.439453
vt 0.644839 0.073242
vt 0.610901 0.073242
vt 0.646423 0.073242
vt 0.645906 0.439453
vt 0.612485 0.073242
vt 0.612747 0.073242
vt 0.642181 0.439453
vt 0.611633 0.439453
vt 0.644577 0.073242
vt 0.615143 0.439453
vt 0.645691 0.439453
vt 0.619507 0.073242
vt 0.628662 0.439453
vt 0.640869 0.439453
vt 0.637817 0.073242
vt 0.616455 0.439453
vt 0.630434 0.439453
vt 0.626890 0.439453
vt 0.646973 0.164795
vt 0.610352 0.347900
vt 0.610352 0.164795
vt 0.646973 0.347900
vt 0.121042 0.561523
vt 0.104595 0.366211
vt 0.063477 0.366211
vt 0.219727 0.561523
vt 0.219727 0.366211
vt 0.109049 0.366211
vt 0.174154 0.366211
vt 0.162161 0.561523
vt 0.178608 0.366211
vt 0.063477 0.561523
vt 0.095495 0.561523
vt 0.155690 0.366211
vt 0.199591 0.366211
vt 0.083612 0.366211
vt 0.187708 0.561523
vt 0.127513 0.366211
vt 0.068028 0.561523
vt 0.210625 0.366211
vt 0.065820 0.366211
vt 0.217383 0.366211
vt 0.215176 0.561523
vt 0.072579 0.366211
vt 0.073699 0.366211
vt 0.199283 0.561523
vt 0.068945 0.561523
vt 0.209505 0.366211
vt 0.083920 0.561523
vt 0.214258 0.561523
vt 0.102539 0.366211
vt 0.141602 0.561523
vt 0.193685 0.561523
vt 0.180664 0.366211
vt 0.089518 0.561523
vt 0.137629 0.366211
vt 0.071421 0.561523
vt 0.149162 0.561523
vt 0.145574 0.366211
vt 0.211782 0.561523
vt 0.134041 0.561523
vt 0.219727 0.415039
vt 0.063477 0.512695
vt 0.063477 0.415039
vt 0.219727 0.512695
vt 0.415039 0.463867
vt 0.512695 0.354004
vt 0.415039 0.354004
vt 0.512695 0.463867
vt 0.708008 0.244141
vt 0.927734 0.061035
vt 0.708008 0.061035
vt 0.927734 0.244141
vt 0.927734 0.097656
vt 0.817871 0.244141
vt 0.708008 0.152588
vt 0.817871 0.061035
vt 0.740186 0.087850
vt 0.740186 0.217325
vt 0.895556 0.217325
vt 0.762939 0.061035
vt 0.762939 0.244141
vt 0.927734 0.152588
vt 0.872803 0.244141
vt 0.708008 0.152588
vt 0.872803 0.061035
vt 0.619507 0.439453
vt 0.637817 0.439453
vt 0.102539 0.561523
vt 0.180664 0.561523
vt 0.927734 0.207520
vt 0.883789 0.244141
vt 0.751953 0.244141
vt 0.895556 0.087850
vt 0.927734 0.152588
vt 0.927734 0.152588
vt 0.708008 0.152588
s 0
usemtl warship_destroyer
f 9/1/1 2/2/1 1/3/1
f 10/1/2 3/2/2 2/3/2
f 3/3/3 12/4/3 4/2/3
f 12/1/4 5/5/4 4/6/4
f 13/4/5 6/3/5 5/2/5
f 14/4/6 7/3/6 6/2/6
f 7/2/7 16/1/7 8/3/7
f 16/4/8 1/6/8 8/5/8
f 17/7/9 10/8/9 9/2/9
f 18/1/10 11/2/10 10/3/10
f 11/8/11 20/7/11 12/2/11
f 12/9/4 21/4/4 13/10/4
f 21/11/12 14/12/12 13/3/12
f 22/4/13 15/3/13 14/2/13
f 15/12/14 24/11/14 16/3/14
f 16/10/8 17/1/8 9/9/8
f 25/13/15 18/14/15 17/2/15
f 26/1/16 19/2/16 18/3/16
f 19/14/17 28/13/17 20/2/17
f 28/1/4 21/15/4 20/16/4
f 29/17/18 22/18/18 21/3/18
f 30/4/19 23/3/19 22/2/19
f 23/18/20 32/17/20 24/3/20
f 32/4/8 17/16/8 24/15/8
f 25/19/21 34/20/21 26/3/21
f 34/1/22 27/2/22 26/3/22
f 35/20/23 28/19/23 27/3/23
f 28/3/4 37/21/4 29/2/4
f 29/22/24 38/23/24 30/2/24
f 38/4/25 31/3/25 30/2/25
f 39/23/26 32/22/26 31/2/26
f 32/2/8 33/24/8 25/3/8
f 33/25/27 42/26/27 34/3/27
f 42/1/28 35/2/28 34/3/28
f 43/26/29 36/25/29 35/3/29
f 44/27/4 37/2/4 36/3/4
f 37/28/30 46/26/30 38/2/30
f 46/4/31 39/3/31 38/2/31
f 47/26/32 40/28/32 39/2/32
f 48/29/8 33/3/8 40/2/8
f 41/3/33 50/4/33 42/2/33
f 50/1/34 43/2/34 42/3/34
f 51/1/35 44/2/35 43/3/35
f 52/30/4 45/2/4 44/3/4
f 45/2/36 54/1/36 46/3/36
f 54/4/37 47/3/37 46/2/37
f 55/4/38 48/3/38 47/2/38
f 56/31/8 41/3/8 48/2/8
f 3/32/39 5/25/39 7/33/39
f 54/34/40 52/28/40 50/35/40
f 65/36/41 58/37/41 57/38/41
f 66/39/2 59/38/2 58/40/2
f 59/37/42 68/36/42 60/38/42
f 68/39/4 61/41/4 60/42/4
f 69/43/43 62/44/43 61/40/43
f 70/45/6 63/40/6 62/38/6
f 63/44/44 72/43/44 64/40/44
f 72/45/8 57/42/8 64/41/8
f 73/46/45 66/47/45 65/38/45
f 74/39/10 67/38/10 66/40/10
f 67/47/46 76/46/46 68/38/46
f 68/48/4 77/45/4 69/49/4
f 77/50/47 70/51/47 69/40/47
f 78/45/13 71/40/13 70/38/13
f 71/51/48 80/50/48 72/40/48
f 72/49/8 73/39/8 65/48/8
f 81/52/49 74/53/49 73/38/49
f 82/39/16 75/38/16 74/40/16
f 75/53/50 84/52/50 76/38/50
f 84/39/4 77/54/4 76/55/4
f 85/56/51 78/57/51 77/40/51
f 86/45/19 79/40/19 78/38/19
f 79/57/52 88/56/52 80/40/52
f 88/45/8 73/55/8 80/54/8
f 81/58/53 90/59/53 82/40/53
f 90/39/22 83/38/22 82/40/22
f 91/59/54 84/58/54 83/40/54
f 84/40/4 93/60/4 85/38/4
f 85/61/55 94/62/55 86/38/55
f 94/45/25 87/40/25 86/38/25
f 95/62/56 88/61/56 87/38/56
f 88/38/8 89/63/8 81/40/8
f 89/64/57 98/65/57 90/40/57
f 98/39/28 91/38/28 90/40/28
f 99/65/58 92/64/58 91/40/58
f 100/66/4 93/38/4 92/40/4
f 93/67/59 102/65/59 94/38/59
f 102/45/31 95/40/31 94/38/31
f 103/65/60 96/67/60 95/38/60
f 104/68/8 89/40/8 96/38/8
f 97/69/61 106/70/61 98/40/61
f 106/39/34 99/38/34 98/40/34
f 107/70/62 100/69/62 99/40/62
f 108/71/4 101/38/4 100/40/4
f 101/72/63 110/73/63 102/38/63
f 110/45/37 103/40/37 102/38/37
f 111/73/64 104/72/64 103/38/64
f 112/74/8 97/40/8 104/38/8
f 59/75/39 61/64/39 63/76/39
f 110/77/40 108/67/40 106/78/40
f 116/79/39 114/80/39 113/81/39
f 118/80/40 120/79/40 117/81/40
f 114/80/4 117/79/4 113/81/4
f 115/80/65 118/79/65 114/81/65
f 116/81/8 119/82/8 115/80/8
f 113/81/66 120/82/66 116/80/66
f 124/79/39 122/80/39 121/81/39
f 126/80/40 128/79/40 125/81/40
f 122/80/4 125/79/4 121/81/4
f 123/80/65 126/79/65 122/81/65
f 124/81/8 127/82/8 123/80/8
f 121/81/66 128/82/66 124/80/66
f 132/83/39 130/84/39 129/85/39
f 134/84/40 136/83/40 133/85/40
f 130/84/4 133/83/4 129/85/4
f 131/84/65 134/83/65 130/85/65
f 132/85/8 135/86/8 131/84/8
f 129/85/66 136/86/66 132/84/66
f 140/83/39 138/84/39 137/85/39
f 142/84/40 144/83/40 141/85/40
f 138/84/4 141/83/4 137/85/4
f 139/84/65 142/83/65 138/85/65
f 140/85/8 143/86/8 139/84/8
f 137/85/66 144/86/66 140/84/66
f 153/84/67 146/83/67 145/85/67
f 146/84/68 155/83/68 147/85/68
f 155/86/69 148/85/69 147/84/69
f 148/83/70 157/84/70 149/85/70
f 149/83/71 158/87/71 150/85/71
f 150/85/72 159/86/72 151/84/72
f 159/83/73 152/84/73 151/85/73
f 160/87/74 145/83/74 152/85/74
f 147/88/4 149/89/4 151/90/4
f 158/91/8 156/92/8 154/93/8
f 164/79/39 162/80/39 161/81/39
f 166/80/40 168/79/40 165/81/40
f 162/80/4 165/79/4 161/81/4
f 163/80/65 166/79/65 162/81/65
f 164/81/8 167/82/8 163/80/8
f 161/81/66 168/82/66 164/80/66
f 172/79/39 170/80/39 169/81/39
f 174/80/40 176/79/40 173/81/40
f 170/80/4 173/79/4 169/81/4
f 171/80/65 174/79/65 170/81/65
f 172/81/8 175/82/8 171/80/8
f 169/81/66 176/82/66 172/80/66
f 178/84/75 183/83/75 177/85/75
f 179/85/8 184/86/8 178/84/8
f 180/85/76 185/86/76 179/84/76
f 181/85/77 186/86/77 180/84/77
f 182/84/4 187/83/4 181/85/4
f 177/84/78 188/83/78 182/85/78
f 181/94/39 179/95/39 177/96/39
f 184/97/40 186/98/40 188/99/40
f 190/84/75 195/83/75 189/85/75
f 191/85/8 196/86/8 190/84/8
f 192/85/76 197/86/76 191/84/76
f 193/85/77 198/86/77 192/84/77
f 194/84/4 199/83/4 193/85/4
f 189/84/78 200/83/78 194/85/78
f 193/94/39 191/95/39 189/96/39
f 196/97/40 198/98/40 200/99/40
f 204/79/39 202/80/39 201/81/39
f 206/80/40 208/79/40 205/81/40
f 202/80/4 205/79/4 201/81/4
f 203/80/65 206/79/65 202/81/65
f 204/81/8 207/82/8 203/80/8
f 201/81/66 208/82/66 204/80/66
f 210/84/75 215/83/75 209/85/75
f 211/85/8 216/86/8 210/84/8
f 212/85/76 217/86/76 211/84/76
f 213/85/77 218/86/77 212/84/77
f 214/84/4 219/83/4 213/85/4
f 209/84/78 220/83/78 214/85/78
f 213/94/39 211/95/39 209/96/39
f 216/97/40 218/98/40 220/99/40
f 222/84/75 227/83/75 221/85/75
f 223/85/8 228/86/8 222/84/8
f 224/85/76 229/86/76 223/84/76
f 225/85/77 230/86/77 224/84/77
f 226/84/4 231/83/4 225/85/4
f 221/84/78 232/83/78 226/85/78
f 225/94/39 223/95/39 221/96/39
f 228/97/40 230/98/40 232/99/40
f 9/1/79 10/4/79 2/2/79
f 10/1/2 11/4/2 3/2/2
f 3/3/80 11/1/80 12/4/80
f 12/1/4 13/4/4 5/5/4
f 13/4/81 14/1/81 6/3/81
f 14/4/6 15/1/6 7/3/6
f 7/2/82 15/4/82 16/1/82
f 16/4/8 9/1/8 1/6/8
f 17/7/83 18/1/83 10/8/83
f 18/1/10 19/4/10 11/2/10
f 11/8/84 19/1/84 20/7/84
f 12/9/4 20/1/4 21/4/4
f 21/11/85 22/4/85 14/12/85
f 22/4/13 23/1/13 15/3/13
f 15/12/86 23/4/86 24/11/86
f 16/10/8 24/4/8 17/1/8
f 25/13/87 26/1/87 18/14/87
f 26/1/16 27/4/16 19/2/16
f 19/14/88 27/1/88 28/13/88
f 28/1/4 29/4/4 21/15/4
f 29/17/89 30/4/89 22/18/89
f 30/4/19 31/1/19 23/3/19
f 23/18/90 31/4/90 32/17/90
f 32/4/8 25/1/8 17/16/8
f 25/19/91 33/4/91 34/20/91
f 34/1/22 35/4/22 27/2/22
f 35/20/92 36/4/92 28/19/92
f 28/3/4 36/24/4 37/21/4
f 29/22/93 37/1/93 38/23/93
f 38/4/25 39/1/25 31/3/25
f 39/23/94 40/1/94 32/22/94
f 32/2/8 40/21/8 33/24/8
f 33/25/95 41/4/95 42/26/95
f 42/1/28 43/4/28 35/2/28
f 43/26/96 44/4/96 36/25/96
f 44/27/4 45/29/4 37/2/4
f 37/28/97 45/1/97 46/26/97
f 46/4/31 47/1/31 39/3/31
f 47/26/98 48/1/98 40/28/98
f 48/29/8 41/27/8 33/3/8
f 41/3/99 49/1/99 50/4/99
f 50/1/34 51/4/34 43/2/34
f 51/1/100 52/4/100 44/2/100
f 52/30/4 53/31/4 45/2/4
f 45/2/101 53/4/101 54/1/101
f 54/4/37 55/1/37 47/3/37
f 55/4/102 56/1/102 48/3/102
f 56/31/8 49/30/8 41/3/8
f 7/33/39 8/100/39 1/101/39
f 1/101/39 2/35/39 3/32/39
f 3/32/39 4/28/39 5/25/39
f 5/25/39 6/34/39 7/33/39
f 7/33/39 1/101/39 3/32/39
f 50/35/40 49/101/40 56/100/40
f 56/100/40 55/33/40 54/34/40
f 54/34/40 53/25/40 52/28/40
f 52/28/40 51/32/40 50/35/40
f 50/35/40 56/100/40 54/34/40
f 65/36/103 66/39/103 58/37/103
f 66/39/2 67/45/2 59/38/2
f 59/37/104 67/39/104 68/36/104
f 68/39/4 69/45/4 61/41/4
f 69/43/105 70/45/105 62/44/105
f 70/45/6 71/39/6 63/40/6
f 63/44/106 71/45/106 72/43/106
f 72/45/8 65/39/8 57/42/8
f 73/46/107 74/39/107 66/47/107
f 74/39/10 75/45/10 67/38/10
f 67/47/108 75/39/108 76/46/108
f 68/48/4 76/39/4 77/45/4
f 77/50/109 78/45/109 70/51/109
f 78/45/13 79/39/13 71/40/13
f 71/51/110 79/45/110 80/50/110
f 72/49/8 80/45/8 73/39/8
f 81/52/111 82/39/111 74/53/111
f 82/39/16 83/45/16 75/38/16
f 75/53/112 83/39/112 84/52/112
f 84/39/4 85/45/4 77/54/4
f 85/56/113 86/45/113 78/57/113
f 86/45/19 87/39/19 79/40/19
f 79/57/114 87/45/114 88/56/114
f 88/45/8 81/39/8 73/55/8
f 81/58/115 89/45/115 90/59/115
f 90/39/22 91/45/22 83/38/22
f 91/59/116 92/45/116 84/58/116
f 84/40/4 92/63/4 93/60/4
f 85/61/117 93/39/117 94/62/117
f 94/45/25 95/39/25 87/40/25
f 95/62/118 96/39/118 88/61/118
f 88/38/8 96/60/8 89/63/8
f 89/64/119 97/45/119 98/65/119
f 98/39/28 99/45/28 91/38/28
f 99/65/120 100/45/120 92/64/120
f 100/66/4 101/68/4 93/38/4
f 93/67/121 101/39/121 102/65/121
f 102/45/31 103/39/31 95/40/31
f 103/65/122 104/39/122 96/67/122
f 104/68/8 97/66/8 89/40/8
f 97/69/123 105/45/123 106/70/123
f 106/39/34 107/45/34 99/38/34
f 107/70/124 108/45/124 100/69/124
f 108/71/4 109/74/4 101/38/4
f 101/72/125 109/39/125 110/73/125
f 110/45/37 111/39/37 103/40/37
f 111/73/126 112/39/126 104/72/126
f 112/74/8 105/71/8 97/40/8
f 63/76/39 64/102/39 57/103/39
f 57/103/39 58/78/39 59/75/39
f 59/75/39 60/67/39 61/64/39
f 61/64/39 62/77/39 63/76/39
f 63/76/39 57/103/39 59/75/39
f 106/78/40 105/103/40 112/102/40
f 112/102/40 111/76/40 110/77/40
f 110/77/40 109/64/40 108/67/40
f 108/67/40 107/75/40 106/78/40
f 106/78/40 112/102/40 110/77/40
f 116/79/39 115/82/39 114/80/39
f 118/80/40 119/82/40 120/79/40
f 114/80/4 118/82/4 117/79/4
f 115/80/65 119/82/65 118/79/65
f 116/81/8 120/79/8 119/82/8
f 113/81/66 117/79/66 120/82/66
f 124/79/39 123/82/39 122/80/39
f 126/80/40 127/82/40 128/79/40
f 122/80/4 126/82/4 125/79/4
f 123/80/65 127/82/65 126/79/65
f 124/81/8 128/79/8 127/82/8
f 121/81/66 125/79/66 128/82/66
f 132/83/39 131/86/39 130/84/39
f 134/84/40 135/86/40 136/83/40
f 130/84/4 134/86/4 133/83/4
f 131/84/65 135/86/65 134/83/65
f 132/85/8 136/83/8 135/86/8
f 129/85/66 133/83/66 136/86/66
f 140/83/39 139/86/39 138/84/39
f 142/84/40 143/86/40 144/83/40
f 138/84/4 142/86/4 141/83/4
f 139/84/65 143/86/65 142/83/65
f 140/85/8 144/83/8 143/86/8
f 137/85/66 141/83/66 144/86/66
f 153/84/67 154/104/67 146/83/67
f 146/84/68 154/105/68 155/83/68
f 155/86/69 156/106/69 148/85/69
f 148/83/70 156/104/70 157/84/70
f 149/83/71 157/86/71 158/87/71
f 150/85/72 158/106/72 159/86/72
f 159/83/73 160/105/73 152/84/73
f 160/87/74 153/86/74 145/83/74
f 151/90/4 152/107/4 145/108/4
f 145/108/4 146/93/4 147/88/4
f 147/88/4 148/92/4 149/89/4
f 149/89/4 150/91/4 151/90/4
f 151/90/4 145/108/4 147/88/4
f 154/93/8 153/109/8 160/107/8
f 160/107/8 159/90/8 158/91/8
f 158/91/8 157/110/8 156/92/8
f 156/92/8 155/88/8 154/93/8
f 154/93/8 160/107/8 158/91/8
f 164/79/39 163/82/39 162/80/39
f 166/80/40 167/82/40 168/79/40
f 162/80/4 166/82/4 165/79/4
f 163/80/65 167/82/65 166/79/65
f 164/81/8 168/79/8 167/82/8
f 161/81/66 165/79/66 168/82/66
f 172/79/39 171/82/39 170/80/39
f 174/80/40 175/82/40 176/79/40
f 170/80/4 174/82/4 173/79/4
f 171/80/65 175/82/65 174/79/65
f 172/81/8 176/79/8 175/82/8
f 169/81/66 173/79/66 176/82/66
f 178/84/75 184/86/75 183/83/75
f 179/85/8 185/83/8 184/86/8
f 180/85/76 186/83/76 185/86/76
f 181/85/77 187/83/77 186/86/77
f 182/84/4 188/86/4 187/83/4
f 177/84/78 183/86/78 188/83/78
f 177/96/39 182/99/39 181/94/39
f 181/94/39 180/98/39 179/95/39
f 179/95/39 178/97/39 177/96/39
f 188/99/40 183/96/40 184/97/40
f 184/97/40 185/95/40 186/98/40
f 186/98/40 187/94/40 188/99/40
f 190/84/75 196/86/75 195/83/75
f 191/85/8 197/83/8 196/86/8
f 192/85/76 198/83/76 197/86/76
f 193/85/77 199/83/77 198/86/77
f 194/84/4 200/86/4 199/83/4
f 189/84/78 195/86/78 200/83/78
f 189/96/39 194/99/39 193/94/39
f 193/94/39 192/98/39 191/95/39
f 191/95/39 190/97/39 189/96/39
f 200/99/40 195/96/40 196/97/40
f 196/97/40 197/95/40 198/98/40
f 198/98/40 199/94/40 200/99/40
f 204/79/39 203/82/39 202/80/39
f 206/80/40 207/82/40 208/79/40
f 202/80/4 206/82/4 205/79/4
f 203/80/65 207/82/65 206/79/65
f 204/81/8 208/79/8 207/82/8
f 201/81/66 205/79/66 208/82/66
f 210/84/75 216/86/75 215/83/75
f 211/85/8 217/83/8 216/86/8
f 212/85/76 218/83/76 217/86/76
f 213/85/77 219/83/77 218/86/77
f 214/84/4 220/86/4 219/83/4
f 209/84/78 215/86/78 220/83/78
f 209/96/39 214/99/39 213/94/39
f 213/94/39 212/98/39 211/95/39
f 211/95/39 210/97/39 209/96/39
f 220/99/40 215/96/40 216/97/40
f 216/97/40 217/95/40 218/98/40
f 218/98/40 219/94/40 220/99/40
f 222/84/75 228/86/75 227/83/75
f 223/85/8 229/83/8 228/86/8
f 224/85/76 230/83/76 229/86/76
f 225/85/77 231/83/77 230/86/77
f 226/84/4 232/86/4 231/83/4
f 221/84/78 227/86/78 232/83/78
f 221/96/39 226/99/39 225/94/39
f 225/94/39 224/98/39 223/95/39
f 223/95/39 222/97/39 221/96/39
f 232/99/40 227/96/40 228/97/40
f 228/97/40 229/95/40 230/98/40
f 230/98/40 231/94/40 232/99/40
