# Blender 4.4.1
# www.blender.org
mtllib warship_cruiser.mtl
o warship_cruiser
v 0.960000 -1.200000 -46.000000
v 1.920000 -2.775000 -46.000000
v 1.920000 -5.925000 -46.000000
v 0.960000 -7.500000 -46.000000
v -0.960000 -7.500000 -46.000000
v -1.920000 -5.925000 -46.000000
v -1.920000 -2.775000 -46.000000
v -0.960000 -1.200000 -46.000000
v 2.304000 -1.200000 -37.720001
v 4.608000 -2.775000 -37.720001
v 4.608000 -5.925000 -37.720001
v 2.304000 -7.500000 -37.720001
v -2.304000 -7.500000 -37.720001
v -4.608000 -5.925000 -37.720001
v -4.608000 -2.775000 -37.720001
v -2.304000 -1.200000 -37.720001
v 3.104000 -1.200000 -20.700001
v 6.208000 -2.775000 -20.700001
v 6.208000 -5.925000 -20.700001
v 3.104000 -7.500000 -20.700001
v -3.104000 -7.500000 -20.700001
v -6.208000 -5.925000 -20.700001
v -6.208000 -2.775000 -20.700001
v -3.104000 -1.200000 -20.700001
v 3.200000 -1.200000 0.000000
v 6.400000 -2.775000 0.000000
v 6.400000 -5.925000 0.000000
v 3.200000 -7.500000 0.000000
v -3.200000 -7.500000 0.000000
v -6.400000 -5.925000 0.000000
v -6.400000 -2.775000 0.000000
v -3.200000 -1.200000 0.000000
v 2.976000 -1.200000 20.700001
v 5.952000 -2.775000 20.700001
v 5.952000 -5.925000 20.700001
v 2.976000 -7.500000 20.700001
v -2.976000 -7.500000 20.700001
v -5.952000 -5.925000 20.700001
v -5.952000 -2.775000 20.700001
v -2.976000 -1.200000 20.700001
v 1.984000 -1.200000 35.880001
v 3.968000 -2.775000 35.880001
v 3.968000 -5.925000 35.880001
v 1.984000 -7.500000 35.880001
v -1.984000 -7.500000 35.880001
v -3.968000 -5.925000 35.880001
v -3.968000 -2.775000 35.880001
v -1.984000 -1.200000 35.880001
v 0.192000 -1.200000 46.000000
v 0.384000 -2.775000 46.000000
v 0.384000 -5.925000 46.000000
v 0.192000 -7.500000 46.000000
v -0.192000 -7.500000 46.000000
v -0.384000 -5.925000 46.000000
v -0.384000 -2.775000 46.000000
v -0.192000 -1.200000 46.000000
v 0.960000 2.400000 -46.000000
v 1.920000 1.500000 -46.000000
v 1.920000 -0.300000 -46.000000
v 0.960000 -1.200000 -46.000000
v -0.960000 -1.200000 -46.000000
v -1.920000 -0.300000 -46.000000
v -1.920000 1.500000 -46.000000
v -0.960000 2.400000 -46.000000
v 2.304000 2.400000 -37.720001
v 4.608000 1.500000 -37.720001
v 4.608000 -0.300000 -37.720001
v 2.304000 -1.200000 -37.720001
v -2.304000 -1.200000 -37.720001
v -4.608000 -0.300000 -37.720001
v -4.608000 1.500000 -37.720001
v -2.304000 2.400000 -37.720001
v 3.104000 2.400000 -20.700001
v 6.208000 1.500000 -20.700001
v 6.208000 -0.300000 -20.700001
v 3.104000 -1.200000 -20.700001
v -3.104000 -1.200000 -20.700001
v -6.208000 -0.300000 -20.700001
v -6.208000 1.500000 -20.700001
v -3.104000 2.400000 -20.700001
v 3.200000 2.400000 0.000000
v 6.400000 1.500000 0.000000
v 6.400000 -0.300000 0.000000
v 3.200000 -1.200000 0.000000
v -3.200000 -1.200000 0.000000
v -6.400000 -0.300000 0.000000
v -6.400000 1.500000 0.000000
v -3.200000 2.400000 0.000000
v 2.976000 2.400000 20.700001
v 5.952000 1.500000 20.700001
v 5.952000 -0.300000 20.700001
v 2.976000 -1.200000 20.700001
v -2.976000 -1.200000 20.700001
v -5.952000 -0.300000 20.700001
v -5.952000 1.500000 20.700001
v -2.976000 2.400000 20.700001
v 1.984000 2.400000 35.880001
v 3.968000 1.500000 35.880001
v 3.968000 -0.300000 35.880001
v 1.984000 -1.200000 35.880001
v -1.984000 -1.200000 35.880001
v -3.968000 -0.300000 35.880001
v -3.968000 1.500000 35.880001
v -1.984000 2.400000 35.880001
v 0.192000 2.400000 46.000000
v 0.384000 1.500000 46.000000
v 0.384000 -0.300000 46.000000
v 0.192000 -1.200000 46.000000
v -0.192000 -1.200000 46.000000
v -0.384000 -0.300000 46.000000
v -0.384000 1.500000 46.000000
v -0.192000 2.400000 46.000000
v -4.200000 2.400000 -1.000000
v 4.200000 2.400000 -1.000000
v 4.200000 7.600000 -1.000000
v -4.200000 7.600000 -1.000000
v -4.200000 2.400000 17.000000
v 4.200000 2.400000 17.000000
v 4.200000 7.600000 17.000000
v -4.200000 7.600000 17.000000
v -3.000000 7.000000 5.000000
v 3.000000 7.000000 5.000000
v 3.000000 10.200000 5.000000
v -3.000000 10.200000 5.000000
v -3.000000 7.000000 15.000000
v 3.000000 7.000000 15.000000
v 3.000000 10.200000 15.000000
v -3.000000 10.200000 15.000000
v -1.800000 9.800000 8.000000
v 1.800000 9.800000 8.000000
v 1.800000 12.200000 8.000000
v -1.800000 12.200000 8.000000
v -1.800000 9.800000 14.000000
v 1.800000 9.800000 14.000000
v 1.800000 12.200000 14.000000
v -1.800000 12.200000 14.000000
v -0.260000 11.400000 9.240000
v 0.260000 11.400000 9.240000
v 0.260000 19.400000 9.240000
v -0.260000 19.400000 9.240000
v -0.260000 11.400000 9.760000
v 0.260000 11.400000 9.760000
v 0.260000 19.400000 9.760000
v -0.260000 19.400000 9.760000
v 2.000000 2.400000 0.000000
v 1.414214 2.400000 1.414214
v 0.000000 2.400000 2.000000
v -1.414214 2.400000 1.414214
v -2.000000 2.400000 0.000000
v -1.414214 2.400000 -1.414214
v -0.000000 2.400000 -2.000000
v 1.414214 2.400000 -1.414214
v 1.640000 10.400000 0.000000
v 1.159655 10.400000 1.159655
v 0.000000 10.400000 1.640000
v -1.159655 10.400000 1.159655
v -1.640000 10.400000 0.000000
v -1.159655 10.400000 -1.159655
v -0.000000 10.400000 -1.640000
v 1.159655 10.400000 -1.159655
v 1.800000 2.400000 -11.000000
v 1.272792 2.400000 -9.727208
v 0.000000 2.400000 -9.200000
v -1.272792 2.400000 -9.727208
v -1.800000 2.400000 -11.000000
v -1.272792 2.400000 -12.272792
v -0.000000 2.400000 -12.800000
v 1.272792 2.400000 -12.272792
v 1.476000 9.600000 -11.000000
v 1.043690 9.600000 -9.956310
v 0.000000 9.600000 -9.524000
v -1.043690 9.600000 -9.956310
v -1.476000 9.600000 -11.000000
v -1.043690 9.600000 -12.043690
v -0.000000 9.600000 -12.476000
v 1.043690 9.600000 -12.043690
v -3.400000 2.400000 -27.000000
v 3.400000 2.400000 -27.000000
v 3.400000 6.400000 -27.000000
v -3.400000 6.400000 -27.000000
v -3.400000 2.400000 -13.000000
v 3.400000 2.400000 -13.000000
v 3.400000 6.400000 -13.000000
v -3.400000 6.400000 -13.000000
v -1.600000 5.800000 -22.000000
v 1.600000 5.800000 -22.000000
v 1.600000 8.200000 -22.000000
v -1.600000 8.200000 -22.000000
v -1.600000 5.800000 -16.000000
v 1.600000 5.800000 -16.000000
v 1.600000 8.200000 -16.000000
v -1.600000 8.200000 -16.000000
v -1.875000 2.400000 27.500000
v 1.875000 2.400000 27.500000
v 1.875000 4.150000 27.500000
v -1.875000 4.150000 27.500000
v -1.875000 2.400000 32.500000
v 1.875000 2.400000 32.500000
v 1.875000 4.150000 32.500000
v -1.875000 4.150000 32.500000
v -0.337500 3.900000 32.000000
v -0.512500 4.203109 32.000000
v -0.862500 4.203109 32.000000
v -1.037500 3.900000 32.000000
v -0.862500 3.596891 32.000000
v -0.512500 3.596891 32.000000
v -0.337500 3.900000 36.500000
v -0.512500 4.203109 36.500000
v -0.862500 4.203109 36.500000
v -1.037500 3.900000 36.500000
v -0.862500 3.596891 36.500000
v -0.512500 3.596891 36.500000
v 1.037500 3.900000 32.000000
v 0.862500 4.203109 32.000000
v 0.512500 4.203109 32.000000
v 0.337500 3.900000 32.000000
v 0.512500 3.596891 32.000000
v 0.862500 3.596891 32.000000
v 1.037500 3.900000 36.500000
v 0.862500 4.203109 36.500000
v 0.512500 4.203109 36.500000
v 0.337500 3.900000 36.500000
v 0.512500 3.596891 36.500000
v 0.862500 3.596891 36.500000
v -1.875000 2.400000 17.500000
v 1.875000 2.400000 17.500000
v 1.875000 4.150000 17.500000
v -1.875000 4.150000 17.500000
v -1.875000 2.400000 22.500000
v 1.875000 2.400000 22.500000
v 1.875000 4.150000 22.500000
v -1.875000 4.150000 22.500000
v -0.337500 3.900000 22.000000
v -0.512500 4.203109 22.000000
v -0.862500 4.203109 22.000000
v -1.037500 3.900000 22.000000
v -0.862500 3.596891 22.000000
v -0.512500 3.596891 22.000000
v -0.337500 3.900000 26.500000
v -0.512500 4.203109 26.500000
v -0.862500 4.203109 26.500000
v -1.037500 3.900000 26.500000
v -0.862500 3.596891 26.500000
v -0.512500 3.596891 26.500000
v 1.037500 3.900000 22.000000
v 0.862500 4.203109 22.000000
v 0.512500 4.203109 22.000000
v 0.337500 3.900000 22.000000
v 0.512500 3.596891 22.000000
v 0.862500 3.596891 22.000000
v 1.037500 3.900000 26.500000
v 0.862500 4.203109 26.500000
v 0.512500 4.203109 26.500000
v 0.337500 3.900000 26.500000
v 0.512500 3.596891 26.500000
v 0.862500 3.596891 26.500000
v -1.875000 2.400000 -33.500000
v 1.875000 2.400000 -33.500000
v 1.875000 4.150000 -33.500000
v -1.875000 4.150000 -33.500000
v -1.875000 2.400000 -28.500000
v 1.875000 2.400000 -28.500000
v 1.875000 4.150000 -28.500000
v -1.875000 4.150000 -28.500000
v -0.337500 3.900000 -37.500000
v -0.512500 4.203109 -37.500000
v -0.862500 4.203109 -37.500000
v -1.037500 3.900000 -37.500000
v -0.862500 3.596891 -37.500000
v -0.512500 3.596891 -37.500000
v -0.337500 3.900000 -33.000000
v -0.512500 4.203109 -33.000000
v -0.862500 4.203109 -33.000000
v -1.037500 3.900000 -33.000000
v -0.862500 3.596891 -33.000000
v -0.512500 3.596891 -33.000000
v 1.037500 3.900000 -37.500000
v 0.862500 4.203109 -37.500000
v 0.512500 4.203109 -37.500000
v 0.337500 3.900000 -37.500000
v 0.512500 3.596891 -37.500000
v 0.862500 3.596891 -37.500000
v 1.037500 3.900000 -33.000000
v 0.862500 4.203109 -33.000000
v 0.512500 4.203109 -33.000000
v 0.337500 3.900000 -33.000000
v 0.512500 3.596891 -33.000000
v 0.862500 3.596891 -33.000000
v -5.600000 2.400000 2.400000
v 5.600000 2.400000 2.400000
v 5.600000 4.000000 2.400000
v -5.600000 4.000000 2.400000
v -5.600000 2.400000 5.600000
v 5.600000 2.400000 5.600000
v 5.600000 4.000000 5.600000
v -5.600000 4.000000 5.600000
v -5.600000 2.400000 -7.600000
v 5.600000 2.400000 -7.600000
v 5.600000 4.000000 -7.600000
v -5.600000 4.000000 -7.600000
v -5.600000 2.400000 -4.400000
v 5.600000 2.400000 -4.400000
v 5.600000 4.000000 -4.400000
v -5.600000 4.000000 -4.400000
vn 0.8458 0.5155 -0.1373
vn 0.9511 -0.0000 -0.3088
vn 0.8458 -0.5155 -0.1373
vn -0.0000 -1.0000 -0.0000
vn -0.8458 -0.5155 -0.1373
vn -0.9511 -0.0000 -0.3088
vn -0.8458 0.5155 -0.1373
vn -0.0000 1.0000 -0.0000
vn 0.5641 0.8253 -0.0265
vn 0.9956 -0.0000 -0.0936
vn 0.5641 -0.8253 -0.0265
vn -0.5641 -0.8253 -0.0265
vn -0.9956 -0.0000 -0.0936
vn -0.5641 0.8253 -0.0265
vn 0.4525 0.8918 -0.0021
vn 1.0000 -0.0000 -0.0093
vn 0.4525 -0.8918 -0.0021
vn -0.4525 -0.8918 -0.0021
vn -1.0000 -0.0000 -0.0093
vn -0.4525 0.8918 -0.0021
vn 0.4416 0.8972 0.0096
vn 0.9998 -0.0000 0.0216
vn 0.4416 -0.8972 0.0096
vn -0.4416 -0.8972 0.0096
vn -0.9998 -0.0000 0.0216
vn -0.4416 0.8972 0.0096
vn 0.4669 0.8822 0.0610
vn 0.9916 -0.0000 0.1296
vn 0.4669 -0.8822 0.0610
vn -0.4669 -0.8822 0.0610
vn -0.9916 -0.0000 0.1296
vn -0.4669 0.8822 0.0610
vn 0.6072 0.7649 0.2150
vn 0.9426 -0.0000 0.3338
vn 0.6072 -0.7649 0.2150
vn -0.6072 -0.7649 0.2150
vn -0.9426 -0.0000 0.3338
vn -0.6072 0.7649 0.2150
vn -0.0000 -0.0000 -1.0000
vn -0.0000 -0.0000 1.0000
vn 0.6798 0.7251 -0.1103
vn 0.6798 -0.7251 -0.1103
vn -0.6798 -0.7251 -0.1103
vn -0.6798 0.7251 -0.1103
vn 0.3638 0.9313 -0.0171
vn 0.3638 -0.9313 -0.0171
vn -0.3638 -0.9313 -0.0171
vn -0.3638 0.9313 -0.0171
vn 0.2785 0.9604 -0.0013
vn 0.2785 -0.9604 -0.0013
vn -0.2785 -0.9604 -0.0013
vn -0.2785 0.9604 -0.0013
vn 0.2707 0.9626 0.0059
vn 0.2707 -0.9626 0.0059
vn -0.2707 -0.9626 0.0059
vn -0.2707 0.9626 0.0059
vn 0.2893 0.9565 0.0378
vn 0.2893 -0.9565 0.0378
vn -0.2893 -0.9565 0.0378
vn -0.2893 0.9565 0.0378
vn 0.4088 0.9011 0.1448
vn 0.4088 -0.9011 0.1448
vn -0.4088 -0.9011 0.1448
vn -0.4088 0.9011 0.1448
vn 1.0000 -0.0000 -0.0000
vn -1.0000 -0.0000 -0.0000
vn 0.9231 0.0415 0.3824
vn 0.3824 0.0415 0.9231
vn -0.3824 0.0415 0.9231
vn -0.9231 0.0415 0.3824
vn -0.9231 0.0415 -0.3824
vn -0.3824 0.0415 -0.9231
vn 0.3824 0.0415 -0.9231
vn 0.9231 0.0415 -0.3824
vn 0.8660 0.5000 -0.0000
vn -0.8660 0.5000 -0.0000
vn -0.8660 -0.5000 -0.0000
vn 0.8660 -0.5000 -0.0000
vn 0.5551 0.8120 -0.1802
vn 0.5551 -0.8120 -0.1802
vn -0.5551 -0.8120 -0.1802
vn -0.5551 0.8120 -0.1802
vn 0.4521 0.8910 -0.0425
vn 0.4521 -0.8910 -0.0425
vn -0.4521 -0.8910 -0.0425
vn -0.4521 0.8910 -0.0425
vn 0.4416 0.8972 -0.0041
vn 0.4416 -0.8972 -0.0041
vn -0.4416 -0.8972 -0.0041
vn -0.4416 0.8972 -0.0041
vn 0.4678 0.8838 0.0051
vn 0.4678 -0.8838 0.0051
vn -0.4678 -0.8838 0.0051
vn -0.4678 0.8838 0.0051
vn 0.6212 0.7826 0.0406
vn 0.6212 -0.7826 0.0406
vn -0.6212 -0.7826 0.0406
vn -0.6212 0.7826 0.0406
vn 0.9777 0.1192 0.1731
vn 0.9777 -0.1192 0.1731
vn -0.9777 -0.1192 0.1731
vn -0.9777 0.1192 0.1731
vn -0.0001 -0.0000 1.0000
vn 0.3613 0.9250 -0.1173
vn 0.3613 -0.9250 -0.1173
vn -0.3613 -0.9250 -0.1173
vn -0.3613 0.9250 -0.1173
vn 0.2784 0.9601 -0.0262
vn 0.2784 -0.9601 -0.0262
vn -0.2784 -0.9601 -0.0262
vn -0.2784 0.9601 -0.0262
vn 0.2707 0.9626 -0.0025
vn 0.2707 -0.9626 -0.0025
vn -0.2707 -0.9626 -0.0025
vn -0.2707 0.9626 -0.0025
vn 0.2895 0.9572 0.0031
vn 0.2895 -0.9572 0.0031
vn -0.2895 -0.9572 0.0031
vn -0.2895 0.9572 0.0031
vn 0.4130 0.9103 0.0270
vn 0.4130 -0.9103 0.0270
vn -0.4130 -0.9103 0.0270
vn -0.4130 0.9103 0.0270
vn 0.9636 0.2056 0.1706
vn 0.9636 -0.2056 0.1706
vn -0.9636 -0.2056 0.1706
vn -0.9636 0.2056 0.1706
vt 0.623844 0.439453
vt 0.619989 0.073242
vt 0.610352 0.073242
vt 0.646973 0.439453
vt 0.646973 0.073242
vt 0.621033 0.073242
vt 0.636292 0.073242
vt 0.633481 0.439453
vt 0.637336 0.073242
vt 0.610352 0.439453
vt 0.617856 0.439453
vt 0.631964 0.073242
vt 0.615071 0.073242
vt 0.642253 0.073242
vt 0.639468 0.439453
vt 0.625360 0.073242
vt 0.611418 0.439453
vt 0.644839 0.073242
vt 0.610901 0.073242
vt 0.646423 0.073242
vt 0.645906 0.439453
vt 0.612485 0.073242
vt 0.612747 0.073242
vt 0.642181 0.439453
vt 0.645691 0.439453
vt 0.644577 0.073242
vt 0.615143 0.439453
vt 0.611633 0.439453
vt 0.619507 0.073242
vt 0.628662 0.439453
vt 0.640869 0.439453
vt 0.637817 0.073242
vt 0.616455 0.439453
vt 0.630434 0.439453
vt 0.626890 0.439453
vt 0.646973 0.164795
vt 0.610352 0.347900
vt 0.610352 0.164795
vt 0.646973 0.347900
vt 0.121042 0.561523
vt 0.104595 0.366211
vt 0.063477 0.366211
vt 0.219727 0.561523
vt 0.219727 0.366211
vt 0.109049 0.366211
vt 0.174154 0.366211
vt 0.162161 0.561523
vt 0.178608 0.366211
vt 0.063477 0.561523
vt 0.095495 0.561523
vt 0.155690 0.366211
vt 0.083612 0.366211
vt 0.199591 0.366211
vt 0.187708 0.561523
vt 0.127513 0.366211
vt 0.068028 0.561523
vt 0.210625 0.366211
vt 0.065820 0.366211
vt 0.217383 0.366211
vt 0.215176 0.561523
vt 0.072578 0.366211
vt 0.073699 0.366211
vt 0.199283 0.561523
vt 0.214258 0.561523
vt 0.209505 0.366211
vt 0.083920 0.561523
vt 0.068945 0.561523
vt 0.102539 0.366211
vt 0.141602 0.561523
vt 0.193685 0.561523
vt 0.180664 0.366211
vt 0.089518 0.561523
vt 0.137629 0.366211
vt 0.071421 0.561523
vt 0.149162 0.561523
vt 0.145574 0.366211
vt 0.211782 0.561523
vt 0.134041 0.561523
vt 0.219727 0.415039
vt 0.063477 0.512695
vt 0.063477 0.415039
vt 0.219727 0.512695
vt 0.415039 0.463867
vt 0.512695 0.354004
vt 0.415039 0.354004
vt 0.512695 0.463867
vt 0.708008 0.244141
vt 0.927734 0.061035
vt 0.708008 0.061035
vt 0.927734 0.244141
vt 0.888184 0.244141
vt 0.747559 0.244141
vt 0.817871 0.244141
vt 0.708008 0.152588
vt 0.817871 0.061035
vt 0.740186 0.087850
vt 0.740186 0.217325
vt 0.895556 0.217325
vt 0.927734 0.211182
vt 0.927734 0.093994
vt 0.740186 0.087850
vt 0.740186 0.217325
vt 0.895556 0.217325
vt 0.762939 0.061035
vt 0.762939 0.244141
vt 0.927734 0.152588
vt 0.872803 0.244141
vt 0.708008 0.152588
vt 0.872803 0.061035
vt 0.619507 0.439453
vt 0.637817 0.439453
vt 0.102539 0.561523
vt 0.180664 0.561523
vt 0.927734 0.211182
vt 0.927734 0.093994
vt 0.895556 0.087850
vt 0.927734 0.152588
vt 0.895556 0.087850
vt 0.895556 0.217325
vt 0.740186 0.217325
vt 0.740186 0.087850
vt 0.895556 0.087850
s 0
usemtl warship_cruiser
f 9/1/1 2/2/1 1/3/1
f 10/4/2 3/3/2 2/5/2
f 3/2/3 12/1/3 4/3/3
f 12/4/4 5/6/4 4/7/4
f 13/8/5 6/9/5 5/5/5
f 14/10/6 7/5/6 6/3/6
f 7/9/7 16/8/7 8/5/7
f 16/10/8 1/7/8 8/6/8
f 17/11/9 10/12/9 9/3/9
f 18/4/10 11/3/10 10/5/10
f 11/12/11 20/11/11 12/3/11
f 20/4/4 13/13/4 12/14/4
f 21/15/12 14/16/12 13/5/12
f 22/10/13 15/5/13 14/3/13
f 15/16/14 24/15/14 16/5/14
f 24/10/8 9/14/8 16/13/8
f 25/17/15 18/18/15 17/3/15
f 26/4/16 19/3/16 18/5/16
f 19/18/17 28/17/17 20/3/17
f 28/4/4 21/19/4 20/20/4
f 29/21/18 22/22/18 21/5/18
f 30/10/19 23/5/19 22/3/19
f 23/22/20 32/21/20 24/5/20
f 32/10/8 17/20/8 24/19/8
f 25/23/21 34/24/21 26/5/21
f 34/4/22 27/3/22 26/5/22
f 35/24/23 28/23/23 27/5/23
f 36/25/4 29/3/4 28/5/4
f 29/26/24 38/27/24 30/3/24
f 38/10/25 31/5/25 30/3/25
f 39/27/26 32/26/26 31/3/26
f 40/28/8 25/5/8 32/3/8
f 33/29/27 42/30/27 34/5/27
f 42/4/28 35/3/28 34/5/28
f 43/30/29 36/29/29 35/5/29
f 44/31/4 37/3/4 36/5/4
f 37/32/30 46/30/30 38/3/30
f 46/10/31 39/5/31 38/3/31
f 47/30/32 40/32/32 39/3/32
f 48/33/8 33/5/8 40/3/8
f 41/5/33 50/10/33 42/3/33
f 50/4/34 43/3/34 42/5/34
f 51/4/35 44/3/35 43/5/35
f 52/34/4 45/3/4 44/5/4
f 45/3/36 54/4/36 46/5/36
f 54/10/37 47/5/37 46/3/37
f 55/10/38 48/5/38 47/3/38
f 56/35/8 41/5/8 48/3/8
f 3/36/39 5/29/39 7/37/39
f 54/38/40 52/32/40 50/39/40
f 65/40/41 58/41/41 57/42/41
f 66/43/2 59/42/2 58/44/2
f 59/41/42 68/40/42 60/42/42
f 68/43/4 61/45/4 60/46/4
f 69/47/43 62/48/43 61/44/43
f 70/49/6 63/44/6 62/42/6
f 63/48/44 72/47/44 64/44/44
f 72/49/8 57/46/8 64/45/8
f 73/50/45 66/51/45 65/42/45
f 74/43/10 67/42/10 66/44/10
f 67/51/46 76/50/46 68/42/46
f 76/43/4 69/52/4 68/53/4
f 77/54/47 70/55/47 69/44/47
f 78/49/13 71/44/13 70/42/13
f 71/55/48 80/54/48 72/44/48
f 80/49/8 65/53/8 72/52/8
f 81/56/49 74/57/49 73/42/49
f 82/43/16 75/42/16 74/44/16
f 75/57/50 84/56/50 76/42/50
f 84/43/4 77/58/4 76/59/4
f 85/60/51 78/61/51 77/44/51
f 86/49/19 79/44/19 78/42/19
f 79/61/52 88/60/52 80/44/52
f 88/49/8 73/59/8 80/58/8
f 81/62/53 90/63/53 82/44/53
f 90/43/22 83/42/22 82/44/22
f 91/63/54 84/62/54 83/44/54
f 92/64/4 85/42/4 84/44/4
f 85/65/55 94/66/55 86/42/55
f 94/49/25 87/44/25 86/42/25
f 95/66/56 88/65/56 87/42/56
f 96/67/8 81/44/8 88/42/8
f 89/68/57 98/69/57 90/44/57
f 98/43/28 91/42/28 90/44/28
f 99/69/58 92/68/58 91/44/58
f 100/70/4 93/42/4 92/44/4
f 93/71/59 102/69/59 94/42/59
f 102/49/31 95/44/31 94/42/31
f 103/69/60 96/71/60 95/42/60
f 104/72/8 89/44/8 96/42/8
f 97/73/61 106/74/61 98/44/61
f 106/43/34 99/42/34 98/44/34
f 107/74/62 100/73/62 99/44/62
f 108/75/4 101/42/4 100/44/4
f 101/76/63 110/77/63 102/42/63
f 110/49/37 103/44/37 102/42/37
f 111/77/64 104/76/64 103/42/64
f 112/78/8 97/44/8 104/42/8
f 59/79/39 61/68/39 63/80/39
f 110/81/40 108/71/40 106/82/40
f 116/83/39 114/84/39 113/85/39
f 118/84/40 120/83/40 117/85/40
f 114/84/4 117/83/4 113/85/4
f 115/84/65 118/83/65 114/85/65
f 116/85/8 119/86/8 115/84/8
f 113/85/66 120/86/66 116/84/66
f 124/83/39 122/84/39 121/85/39
f 126/84/40 128/83/40 125/85/40
f 122/84/4 125/83/4 121/85/4
f 123/84/65 126/83/65 122/85/65
f 124/85/8 127/86/8 123/84/8
f 121/85/66 128/86/66 124/84/66
f 132/87/39 130/88/39 129/89/39
f 134/88/40 136/87/40 133/89/40
f 130/88/4 133/87/4 129/89/4
f 131/88/65 134/87/65 130/89/65
f 132/89/8 135/90/8 131/88/8
f 129/89/66 136/90/66 132/88/66
f 140/87/39 138/88/39 137/89/39
f 142/88/40 144/87/40 141/89/40
f 138/88/4 141/87/4 137/89/4
f 139/88/65 142/87/65 138/89/65
f 140/89/8 143/90/8 139/88/8
f 137/89/66 144/90/66 140/88/66
f 153/88/67 146/87/67 145/89/67
f 154/91/68 147/89/68 146/88/68
f 155/90/69 148/89/69 147/88/69
f 148/87/70 157/88/70 149/89/70
f 157/90/71 150/89/71 149/87/71
f 158/92/72 151/88/72 150/89/72
f 159/87/73 152/88/73 151/89/73
f 152/89/74 153/90/74 145/87/74
f 147/93/4 149/94/4 151/95/4
f 158/96/8 156/97/8 154/98/8
f 169/88/67 162/87/67 161/89/67
f 162/88/68 171/87/68 163/89/68
f 171/90/69 164/89/69 163/88/69
f 172/99/70 165/89/70 164/87/70
f 173/90/71 166/89/71 165/87/71
f 166/89/72 175/90/72 167/88/72
f 175/87/73 168/88/73 167/89/73
f 176/100/74 161/87/74 168/89/74
f 163/93/4 165/94/4 167/95/4
f 174/101/8 172/102/8 170/103/8
f 180/83/39 178/84/39 177/85/39
f 182/84/40 184/83/40 181/85/40
f 178/84/4 181/83/4 177/85/4
f 179/84/65 182/83/65 178/85/65
f 180/85/8 183/86/8 179/84/8
f 177/85/66 184/86/66 180/84/66
f 188/87/39 186/88/39 185/89/39
f 190/88/40 192/87/40 189/89/40
f 186/88/4 189/87/4 185/89/4
f 187/88/65 190/87/65 186/89/65
f 188/89/8 191/90/8 187/88/8
f 185/89/66 192/90/66 188/88/66
f 196/83/39 194/84/39 193/85/39
f 198/84/40 200/83/40 197/85/40
f 194/84/4 197/83/4 193/85/4
f 195/84/65 198/83/65 194/85/65
f 196/85/8 199/86/8 195/84/8
f 193/85/66 200/86/66 196/84/66
f 202/88/75 207/87/75 201/89/75
f 203/89/8 208/90/8 202/88/8
f 204/89/76 209/90/76 203/88/76
f 205/89/77 210/90/77 204/88/77
f 206/88/4 211/87/4 205/89/4
f 201/88/78 212/87/78 206/89/78
f 205/104/39 203/105/39 201/106/39
f 208/107/40 210/108/40 212/109/40
f 214/88/75 219/87/75 213/89/75
f 215/89/8 220/90/8 214/88/8
f 216/89/76 221/90/76 215/88/76
f 217/89/77 222/90/77 216/88/77
f 218/88/4 223/87/4 217/89/4
f 213/88/78 224/87/78 218/89/78
f 217/104/39 215/105/39 213/106/39
f 220/107/40 222/108/40 224/109/40
f 228/83/39 226/84/39 225/85/39
f 230/84/40 232/83/40 229/85/40
f 226/84/4 229/83/4 225/85/4
f 227/84/65 230/83/65 226/85/65
f 228/85/8 231/86/8 227/84/8
f 225/85/66 232/86/66 228/84/66
f 234/88/75 239/87/75 233/89/75
f 235/89/8 240/90/8 234/88/8
f 236/89/76 241/90/76 235/88/76
f 237/89/77 242/90/77 236/88/77
f 238/88/4 243/87/4 237/89/4
f 233/88/78 244/87/78 238/89/78
f 237/104/39 235/105/39 233/106/39
f 240/107/40 242/108/40 244/109/40
f 246/88/75 251/87/75 245/89/75
f 247/89/8 252/90/8 246/88/8
f 248/89/76 253/90/76 247/88/76
f 249/89/77 254/90/77 248/88/77
f 250/88/4 255/87/4 249/89/4
f 245/88/78 256/87/78 250/89/78
f 249/104/39 247/105/39 245/106/39
f 252/107/40 254/108/40 256/109/40
f 260/83/39 258/84/39 257/85/39
f 262/84/40 264/83/40 261/85/40
f 258/84/4 261/83/4 257/85/4
f 259/84/65 262/83/65 258/85/65
f 260/85/8 263/86/8 259/84/8
f 257/85/66 264/86/66 260/84/66
f 266/88/75 271/87/75 265/89/75
f 267/89/8 272/90/8 266/88/8
f 268/89/76 273/90/76 267/88/76
f 269/89/77 274/90/77 268/88/77
f 270/88/4 275/87/4 269/89/4
f 265/88/78 276/87/78 270/89/78
f 269/104/39 267/105/39 265/106/39
f 272/107/40 274/108/40 276/109/40
f 278/88/75 283/87/75 277/89/75
f 279/89/8 284/90/8 278/88/8
f 280/89/76 285/90/76 279/88/76
f 281/89/77 286/90/77 280/88/77
f 282/88/4 287/87/4 281/89/4
f 277/88/78 288/87/78 282/89/78
f 281/104/39 279/105/39 277/106/39
f 284/107/40 286/108/40 288/109/40
f 292/87/39 290/88/39 289/89/39
f 294/88/40 296/87/40 293/89/40
f 290/88/4 293/87/4 289/89/4
f 291/88/65 294/87/65 290/89/65
f 292/89/8 295/90/8 291/88/8
f 289/89/66 296/90/66 292/88/66
f 300/87/39 298/88/39 297/89/39
f 302/88/40 304/87/40 301/89/40
f 298/88/4 301/87/4 297/89/4
f 299/88/65 302/87/65 298/89/65
f 300/89/8 303/90/8 299/88/8
f 297/89/66 304/90/66 300/88/66
f 9/1/79 10/4/79 2/2/79
f 10/4/2 11/10/2 3/3/2
f 3/2/80 11/4/80 12/1/80
f 12/4/4 13/10/4 5/6/4
f 13/8/81 14/10/81 6/9/81
f 14/10/6 15/4/6 7/5/6
f 7/9/82 15/10/82 16/8/82
f 16/10/8 9/4/8 1/7/8
f 17/11/83 18/4/83 10/12/83
f 18/4/10 19/10/10 11/3/10
f 11/12/84 19/4/84 20/11/84
f 20/4/4 21/10/4 13/13/4
f 21/15/85 22/10/85 14/16/85
f 22/10/13 23/4/13 15/5/13
f 15/16/86 23/10/86 24/15/86
f 24/10/8 17/4/8 9/14/8
f 25/17/87 26/4/87 18/18/87
f 26/4/16 27/10/16 19/3/16
f 19/18/88 27/4/88 28/17/88
f 28/4/4 29/10/4 21/19/4
f 29/21/89 30/10/89 22/22/89
f 30/10/19 31/4/19 23/5/19
f 23/22/90 31/10/90 32/21/90
f 32/10/8 25/4/8 17/20/8
f 25/23/91 33/10/91 34/24/91
f 34/4/22 35/10/22 27/3/22
f 35/24/92 36/10/92 28/23/92
f 36/25/4 37/28/4 29/3/4
f 29/26/93 37/4/93 38/27/93
f 38/10/25 39/4/25 31/5/25
f 39/27/94 40/4/94 32/26/94
f 40/28/8 33/25/8 25/5/8
f 33/29/95 41/10/95 42/30/95
f 42/4/28 43/10/28 35/3/28
f 43/30/96 44/10/96 36/29/96
f 44/31/4 45/33/4 37/3/4
f 37/32/97 45/4/97 46/30/97
f 46/10/31 47/4/31 39/5/31
f 47/30/98 48/4/98 40/32/98
f 48/33/8 41/31/8 33/5/8
f 41/5/99 49/4/99 50/10/99
f 50/4/34 51/10/34 43/3/34
f 51/4/100 52/10/100 44/3/100
f 52/34/4 53/35/4 45/3/4
f 45/3/101 53/10/101 54/4/101
f 54/10/37 55/4/37 47/5/37
f 55/10/102 56/4/102 48/5/102
f 56/35/8 49/34/8 41/5/8
f 7/37/39 8/110/39 1/111/39
f 1/111/39 2/39/39 3/36/39
f 3/36/39 4/32/39 5/29/39
f 5/29/39 6/38/39 7/37/39
f 7/37/39 1/111/39 3/36/39
f 50/39/40 49/111/40 56/110/40
f 56/110/103 55/37/103 54/38/103
f 54/38/40 53/29/40 52/32/40
f 52/32/103 51/36/103 50/39/103
f 50/39/40 56/110/40 54/38/40
f 65/40/104 66/43/104 58/41/104
f 66/43/2 67/49/2 59/42/2
f 59/41/105 67/43/105 68/40/105
f 68/43/4 69/49/4 61/45/4
f 69/47/106 70/49/106 62/48/106
f 70/49/6 71/43/6 63/44/6
f 63/48/107 71/49/107 72/47/107
f 72/49/8 65/43/8 57/46/8
f 73/50/108 74/43/108 66/51/108
f 74/43/10 75/49/10 67/42/10
f 67/51/109 75/43/109 76/50/109
f 76/43/4 77/49/4 69/52/4
f 77/54/110 78/49/110 70/55/110
f 78/49/13 79/43/13 71/44/13
f 71/55/111 79/49/111 80/54/111
f 80/49/8 73/43/8 65/53/8
f 81/56/112 82/43/112 74/57/112
f 82/43/16 83/49/16 75/42/16
f 75/57/113 83/43/113 84/56/113
f 84/43/4 85/49/4 77/58/4
f 85/60/114 86/49/114 78/61/114
f 86/49/19 87/43/19 79/44/19
f 79/61/115 87/49/115 88/60/115
f 88/49/8 81/43/8 73/59/8
f 81/62/116 89/49/116 90/63/116
f 90/43/22 91/49/22 83/42/22
f 91/63/117 92/49/117 84/62/117
f 92/64/4 93/67/4 85/42/4
f 85/65/118 93/43/118 94/66/118
f 94/49/25 95/43/25 87/44/25
f 95/66/119 96/43/119 88/65/119
f 96/67/8 89/64/8 81/44/8
f 89/68/120 97/49/120 98/69/120
f 98/43/28 99/49/28 91/42/28
f 99/69/121 100/49/121 92/68/121
f 100/70/4 101/72/4 93/42/4
f 93/71/122 101/43/122 102/69/122
f 102/49/31 103/43/31 95/44/31
f 103/69/123 104/43/123 96/71/123
f 104/72/8 97/70/8 89/44/8
f 97/73/124 105/49/124 106/74/124
f 106/43/34 107/49/34 99/42/34
f 107/74/125 108/49/125 100/73/125
f 108/75/4 109/78/4 101/42/4
f 101/76/126 109/43/126 110/77/126
f 110/49/37 111/43/37 103/44/37
f 111/77/127 112/43/127 104/76/127
f 112/78/8 105/75/8 97/44/8
f 63/80/39 64/112/39 57/113/39
f 57/113/39 58/82/39 59/79/39
f 59/79/39 60/71/39 61/68/39
f 61/68/39 62/81/39 63/80/39
f 63/80/39 57/113/39 59/79/39
f 106/82/40 105/113/40 112/112/40
f 112/112/40 111/80/40 110/81/40
f 110/81/40 109/68/40 108/71/40
f 108/71/40 107/79/40 106/82/40
f 106/82/40 112/112/40 110/81/40
f 116/83/39 115/86/39 114/84/39
f 118/84/40 119/86/40 120/83/40
f 114/84/4 118/86/4 117/83/4
f 115/84/65 119/86/65 118/83/65
f 116/85/8 120/83/8 119/86/8
f 113/85/66 117/83/66 120/86/66
f 124/83/39 123/86/39 122/84/39
f 126/84/40 127/86/40 128/83/40
f 122/84/4 126/86/4 125/83/4
f 123/84/65 127/86/65 126/83/65
f 124/85/8 128/83/8 127/86/8
f 121/85/66 125/83/66 128/86/66
f 132/87/39 131/90/39 130/88/39
f 134/88/40 135/90/40 136/87/40
f 130/88/4 134/90/4 133/87/4
f 131/88/65 135/90/65 134/87/65
f 132/89/8 136/87/8 135/90/8
f 129/89/66 133/87/66 136/90/66
f 140/87/39 139/90/39 138/88/39
f 142/88/40 143/90/40 144/87/40
f 138/88/4 142/90/4 141/87/4
f 139/88/65 143/90/65 142/87/65
f 140/89/8 144/87/8 143/90/8
f 137/89/66 141/87/66 144/90/66
f 153/88/67 154/114/67 146/87/67
f 154/91/68 155/87/68 147/89/68
f 155/90/69 156/92/69 148/89/69
f 148/87/70 156/114/70 157/88/70
f 157/90/71 158/115/71 150/89/71
f 158/92/72 159/90/72 151/88/72
f 159/87/73 160/91/73 152/88/73
f 152/89/74 160/115/74 153/90/74
f 151/95/4 152/116/4 145/117/4
f 145/117/4 146/98/4 147/93/4
f 147/93/4 148/97/4 149/94/4
f 149/94/4 150/96/4 151/95/4
f 151/95/4 145/117/4 147/93/4
f 154/98/8 153/117/8 160/116/8
f 160/116/8 159/95/8 158/96/8
f 158/96/8 157/94/8 156/97/8
f 156/97/8 155/93/8 154/98/8
f 154/98/8 160/116/8 158/96/8
f 169/88/67 170/99/67 162/87/67
f 162/88/68 170/91/68 171/87/68
f 171/90/69 172/92/69 164/89/69
f 172/99/70 173/88/70 165/89/70
f 173/90/71 174/100/71 166/89/71
f 166/89/72 174/92/72 175/90/72
f 175/87/73 176/91/73 168/88/73
f 176/100/74 169/90/74 161/87/74
f 167/95/4 168/118/4 161/117/4
f 161/117/4 162/119/4 163/93/4
f 163/93/4 164/120/4 165/94/4
f 165/94/4 166/121/4 167/95/4
f 167/95/4 161/117/4 163/93/4
f 170/103/8 169/117/8 176/122/8
f 176/122/8 175/95/8 174/101/8
f 174/101/8 173/94/8 172/102/8
f 172/102/8 171/93/8 170/103/8
f 170/103/8 176/122/8 174/101/8
f 180/83/39 179/86/39 178/84/39
f 182/84/40 183/86/40 184/83/40
f 178/84/4 182/86/4 181/83/4
f 179/84/65 183/86/65 182/83/65
f 180/85/8 184/83/8 183/86/8
f 177/85/66 181/83/66 184/86/66
f 188/87/39 187/90/39 186/88/39
f 190/88/40 191/90/40 192/87/40
f 186/88/4 190/90/4 189/87/4
f 187/88/65 191/90/65 190/87/65
f 188/89/8 192/87/8 191/90/8
f 185/89/66 189/87/66 192/90/66
f 196/83/39 195/86/39 194/84/39
f 198/84/40 199/86/40 200/83/40
f 194/84/4 198/86/4 197/83/4
f 195/84/65 199/86/65 198/83/65
f 196/85/8 200/83/8 199/86/8
f 193/85/66 197/83/66 200/86/66
f 202/88/75 208/90/75 207/87/75
f 203/89/8 209/87/8 208/90/8
f 204/89/76 210/87/76 209/90/76
f 205/89/77 211/87/77 210/90/77
f 206/88/4 212/90/4 211/87/4
f 201/88/78 207/90/78 212/87/78
f 201/106/39 206/109/39 205/104/39
f 205/104/39 204/108/39 203/105/39
f 203/105/39 202/107/39 201/106/39
f 212/109/40 207/106/40 208/107/40
f 208/107/40 209/105/40 210/108/40
f 210/108/40 211/104/40 212/109/40
f 214/88/75 220/90/75 219/87/75
f 215/89/8 221/87/8 220/90/8
f 216/89/76 222/87/76 221/90/76
f 217/89/77 223/87/77 222/90/77
f 218/88/4 224/90/4 223/87/4
f 213/88/78 219/90/78 224/87/78
f 213/106/39 218/109/39 217/104/39
f 217/104/39 216/108/39 215/105/39
f 215/105/39 214/107/39 213/106/39
f 224/109/40 219/106/40 220/107/40
f 220/107/40 221/105/40 222/108/40
f 222/108/40 223/104/40 224/109/40
f 228/83/39 227/86/39 226/84/39
f 230/84/40 231/86/40 232/83/40
f 226/84/4 230/86/4 229/83/4
f 227/84/65 231/86/65 230/83/65
f 228/85/8 232/83/8 231/86/8
f 225/85/66 229/83/66 232/86/66
f 234/88/75 240/90/75 239/87/75
f 235/89/8 241/87/8 240/90/8
f 236/89/76 242/87/76 241/90/76
f 237/89/77 243/87/77 242/90/77
f 238/88/4 244/90/4 243/87/4
f 233/88/78 239/90/78 244/87/78
f 233/106/39 238/109/39 237/104/39
f 237/104/39 236/108/39 235/105/39
f 235/105/39 234/107/39 233/106/39
f 244/109/40 239/106/40 240/107/40
f 240/107/40 241/105/40 242/108/40
f 242/108/40 243/104/40 244/109/40
f 246/88/75 252/90/75 251/87/75
f 247/89/8 253/87/8 252/90/8
f 248/89/76 254/87/76 253/90/76
f 249/89/77 255/87/77 254/90/77
f 250/88/4 256/90/4 255/87/4
f 245/88/78 251/90/78 256/87/78
f 245/106/39 250/109/39 249/104/39
f 249/104/39 248/108/39 247/105/39
f 247/105/39 246/107/39 245/106/39
f 256/109/40 251/106/40 252/107/40
f 252/107/40 253/105/40 254/108/40
f 254/108/40 255/104/40 256/109/40
f 260/83/39 259/86/39 258/84/39
f 262/84/40 263/86/40 264/83/40
f 258/84/4 262/86/4 261/83/4
f 259/84/65 263/86/65 262/83/65
f 260/85/8 264/83/8 263/86/8
f 257/85/66 261/83/66 264/86/66
f 266/88/75 272/90/75 271/87/75
f 267/89/8 273/87/8 272/90/8
f 268/89/76 274/87/76 273/90/76
f 269/89/77 275/87/77 274/90/77
f 270/88/4 276/90/4 275/87/4
f 265/88/78 271/90/78 276/87/78
f 265/106/39 270/109/39 269/104/39
f 269/104/39 268/108/39 267/105/39
f 267/105/39 266/107/39 265/106/39
f 276/109/40 271/106/40 272/107/40
f 272/107/40 273/105/40 274/108/40
f 274/108/40 275/104/40 276/109/40
f 278/88/75 284/90/75 283/87/75
f 279/89/8 285/87/8 284/90/8
f 280/89/76 286/87/76 285/90/76
f 281/89/77 287/87/77 286/90/77
f 282/88/4 288/90/4 287/87/4
f 277/88/78 283/90/78 288/87/78
f 277/106/39 282/109/39 281/104/39
f 281/104/39 280/108/39 279/105/39
f 279/105/39 278/107/39 277/106/39
f 288/109/40 283/106/40 284/107/40
f 284/107/40 285/105/40 286/108/40
f 286/108/40 287/104/40 288/109/40
f 292/87/39 291/90/39 290/88/39
f 294/88/40 295/90/40 296/87/40
f 290/88/4 294/90/4 293/87/4
f 291/88/65 295/90/65 294/87/65
f 292/89/8 296/87/8 295/90/8
f 289/89/66 293/87/66 296/90/66
f 300/87/39 299/90/39 298/88/39
f 302/88/40 303/90/40 304/87/40
f 298/88/4 302/90/4 301/87/4
f 299/88/65 303/90/65 302/87/65
f 300/89/8 304/87/8 303/90/8
f 297/89/66 301/87/66 304/90/66
